<svg width="363" height="385" viewBox="0 0 363 385" fill="none" xmlns="http://www.w3.org/2000/svg">
<g clip-path="url(#clip0)">
<path d="M303.3 385C336.14 385 362.762 382.969 362.762 380.463C362.762 377.957 336.14 375.926 303.3 375.926C270.46 375.926 243.837 377.957 243.837 380.463C243.837 382.969 270.46 385 303.3 385Z" fill="#E6E6E6"/>
<path d="M326.363 250.652L320.628 266.712C320.193 267.928 320.191 269.257 320.623 270.475C321.054 271.692 321.893 272.723 322.997 273.394C323.8 273.881 324.714 274.159 325.653 274.2C326.592 274.241 327.526 274.045 328.37 273.631C329.213 273.216 329.939 272.595 330.479 271.826C331.02 271.057 331.358 270.164 331.463 269.23L333.246 252.946L347.069 207.267L335.168 201.531L326.363 250.652Z" fill="#A0616A"/>
<path d="M321.54 371.75H329.989V289.592L310.791 289.213L321.54 371.75Z" fill="#A0616A"/>
<path d="M283.919 371.75H292.362V289.592L273.17 289.213L283.919 371.75Z" fill="#A0616A"/>
<path d="M331.331 298.258L309.449 295.964L304.86 271.777L296.411 296.348L270.308 293.658L281.051 252.946C300.702 239.599 319.36 239.892 337.101 252.946L331.331 298.258Z" fill="#2F2E41"/>
<path d="M294.243 375.249C294.462 377.053 293.959 378.87 292.844 380.305C291.729 381.739 290.091 382.674 288.289 382.906C287.701 382.981 287.105 382.981 286.517 382.906L270.961 380.796C269.57 380.578 268.321 379.818 267.489 378.682C266.657 377.545 266.309 376.125 266.522 374.733C266.716 373.478 267.353 372.333 268.318 371.506C269.283 370.679 270.511 370.225 271.782 370.225H274.346L282.771 362.499C282.857 367.735 286.712 366.577 293.096 366.066L294.243 375.249Z" fill="#2F2E41"/>
<path d="M331.853 375.249C332.072 377.053 331.569 378.87 330.454 380.305C329.338 381.739 327.701 382.674 325.899 382.906C325.31 382.981 324.715 382.981 324.126 382.906L308.583 380.784C307.191 380.567 305.943 379.806 305.112 378.67C304.281 377.533 303.935 376.113 304.149 374.722C304.341 373.466 304.977 372.321 305.94 371.494C306.904 370.667 308.133 370.212 309.403 370.213H311.967L320.393 362.499C320.473 367.735 324.333 366.577 330.717 366.066L331.853 375.249Z" fill="#2F2E41"/>
<path d="M301.866 158.49C309.339 158.49 315.397 152.432 315.397 144.959C315.397 137.487 309.339 131.429 301.866 131.429C294.393 131.429 288.335 137.487 288.335 144.959C288.335 152.432 294.393 158.49 301.866 158.49Z" fill="#A0616A"/>
<path d="M319.045 167.707L302.153 169.239V154.268L310.98 148.894L319.045 167.707Z" fill="#A0616A"/>
<path d="M338.982 258.682C321.992 246.241 301.585 247.503 279.095 257.15C289.31 228.311 293.669 201.422 285.639 178.68C285.645 174.665 286.987 170.766 289.452 167.597C291.917 164.428 295.366 162.168 299.256 161.174L302.124 160.434L316.354 161.174L329.695 168.992C332.416 170.587 334.674 172.862 336.248 175.595C337.822 178.327 338.658 181.423 338.672 184.576L338.982 258.682Z" fill="#E6E6E6"/>
<path d="M273.36 247.554L267.624 263.615C267.187 264.83 267.185 266.159 267.616 267.376C268.048 268.593 268.888 269.623 269.993 270.291C270.795 270.775 271.707 271.051 272.644 271.091C273.58 271.132 274.512 270.936 275.354 270.523C276.195 270.11 276.92 269.492 277.46 268.725C278.001 267.959 278.34 267.07 278.447 266.138L280.271 249.889L294.089 204.192L282.193 198.457L273.36 247.554Z" fill="#A0616A"/>
<path d="M350.138 216.077H331.331V170.007C334.587 171.813 337.417 174.299 339.628 177.296C341.839 180.293 343.379 183.73 344.144 187.375L350.138 216.077Z" fill="#E6E6E6"/>
<path d="M291.548 137.658C290.721 138.047 289.81 138.225 288.896 138.175C287.983 138.125 287.097 137.848 286.317 137.371C285.555 136.867 284.979 136.126 284.678 135.263C284.378 134.4 284.369 133.462 284.654 132.593C285.227 131.125 286.667 130.207 288.095 129.49C291.175 127.901 294.478 126.787 297.892 126.186C299.527 125.905 301.253 125.745 302.796 126.353C303.559 126.651 304.241 127.121 304.998 127.431C306.387 128.004 307.941 128.004 309.415 128.32C310.923 128.651 312.343 129.301 313.579 130.228C314.815 131.154 315.838 132.334 316.579 133.689C317.061 134.611 317.433 135.587 317.686 136.597C318.406 139.361 318.406 142.264 317.686 145.028C316.539 149.399 313.579 153.42 313.843 157.939C311.663 156.666 310.642 154.079 308.824 152.335C307.47 151.046 305.719 150.254 303.857 150.087C303.347 150.106 302.843 149.977 302.406 149.714C302.085 149.404 301.865 149.004 301.775 148.567L299.722 142.143C299.303 140.835 298.798 139.413 297.622 138.702C296.895 138.332 296.092 138.136 295.276 138.128C293.324 137.985 291.364 138.002 289.414 138.18" fill="#2F2E41"/>
<path d="M296.01 207.634L274.128 199.185L284.068 172.411C285.223 169.29 287.255 166.57 289.918 164.577C292.582 162.583 295.765 161.402 299.085 161.174L296.01 207.634Z" fill="#E6E6E6"/>
<path d="M260.362 286.661H20.0347C18.8938 286.661 17.7996 286.208 16.9929 285.401C16.1861 284.594 15.7329 283.5 15.7329 282.359V20.2357C15.7329 19.0948 16.1861 18.0006 16.9929 17.1939C17.7996 16.3871 18.8938 15.9339 20.0347 15.9339H260.362C261.503 15.9354 262.596 16.3891 263.402 17.1955C264.209 18.002 264.662 19.0953 264.664 20.2357V282.359C264.662 283.499 264.209 284.593 263.402 285.399C262.596 286.206 261.503 286.659 260.362 286.661ZM20.0347 17.6546C19.3502 17.6546 18.6937 17.9266 18.2096 18.4106C17.7256 18.8946 17.4536 19.5512 17.4536 20.2357V282.359C17.4536 283.044 17.7256 283.7 18.2096 284.184C18.6937 284.668 19.3502 284.94 20.0347 284.94H260.362C261.046 284.939 261.702 284.666 262.186 284.182C262.669 283.699 262.942 283.043 262.943 282.359V20.2357C262.942 19.5516 262.669 18.896 262.186 18.4123C261.702 17.9286 261.046 17.6561 260.362 17.6546H20.0347Z" fill="#E6E6E6"/>
<path d="M69.6259 113.636C72.743 113.636 75.2699 111.11 75.2699 107.992C75.2699 104.875 72.743 102.349 69.6259 102.349C66.5088 102.349 63.9819 104.875 63.9819 107.992C63.9819 111.11 66.5088 113.636 69.6259 113.636Z" fill="#E6E6E6"/>
<path d="M93.1484 113.636C96.2654 113.636 98.7923 111.11 98.7923 107.992C98.7923 104.875 96.2654 102.349 93.1484 102.349C90.0313 102.349 87.5044 104.875 87.5044 107.992C87.5044 111.11 90.0313 113.636 93.1484 113.636Z" fill="#E6E6E6"/>
<path d="M116.67 113.636C119.787 113.636 122.314 111.11 122.314 107.992C122.314 104.875 119.787 102.349 116.67 102.349C113.553 102.349 111.026 104.875 111.026 107.992C111.026 111.11 113.553 113.636 116.67 113.636Z" fill="#7474B4"/>
<path d="M140.199 113.636C143.316 113.636 145.843 111.11 145.843 107.992C145.843 104.875 143.316 102.349 140.199 102.349C137.082 102.349 134.555 104.875 134.555 107.992C134.555 111.11 137.082 113.636 140.199 113.636Z" fill="#7474B4"/>
<path d="M163.721 113.636C166.838 113.636 169.365 111.11 169.365 107.992C169.365 104.875 166.838 102.349 163.721 102.349C160.604 102.349 158.077 104.875 158.077 107.992C158.077 111.11 160.604 113.636 163.721 113.636Z" fill="#7474B4"/>
<path d="M187.243 113.636C190.36 113.636 192.887 111.11 192.887 107.992C192.887 104.875 190.36 102.349 187.243 102.349C184.126 102.349 181.599 104.875 181.599 107.992C181.599 111.11 184.126 113.636 187.243 113.636Z" fill="#E6E6E6"/>
<path d="M210.765 113.636C213.882 113.636 216.409 111.11 216.409 107.992C216.409 104.875 213.882 102.349 210.765 102.349C207.648 102.349 205.121 104.875 205.121 107.992C205.121 111.11 207.648 113.636 210.765 113.636Z" fill="#E6E6E6"/>
<path d="M69.6259 131.515C72.743 131.515 75.2699 128.988 75.2699 125.871C75.2699 122.754 72.743 120.227 69.6259 120.227C66.5088 120.227 63.9819 122.754 63.9819 125.871C63.9819 128.988 66.5088 131.515 69.6259 131.515Z" fill="#E6E6E6"/>
<path d="M93.1484 131.515C96.2654 131.515 98.7923 128.988 98.7923 125.871C98.7923 122.754 96.2654 120.227 93.1484 120.227C90.0313 120.227 87.5044 122.754 87.5044 125.871C87.5044 128.988 90.0313 131.515 93.1484 131.515Z" fill="#E6E6E6"/>
<path d="M116.67 131.515C119.787 131.515 122.314 128.988 122.314 125.871C122.314 122.754 119.787 120.227 116.67 120.227C113.553 120.227 111.026 122.754 111.026 125.871C111.026 128.988 113.553 131.515 116.67 131.515Z" fill="#E6E6E6"/>
<path d="M140.199 131.515C143.316 131.515 145.843 128.988 145.843 125.871C145.843 122.754 143.316 120.227 140.199 120.227C137.082 120.227 134.555 122.754 134.555 125.871C134.555 128.988 137.082 131.515 140.199 131.515Z" fill="#E6E6E6"/>
<path d="M163.721 131.515C166.838 131.515 169.365 128.988 169.365 125.871C169.365 122.754 166.838 120.227 163.721 120.227C160.604 120.227 158.077 122.754 158.077 125.871C158.077 128.988 160.604 131.515 163.721 131.515Z" fill="#E6E6E6"/>
<path d="M187.243 131.515C190.36 131.515 192.887 128.988 192.887 125.871C192.887 122.754 190.36 120.227 187.243 120.227C184.126 120.227 181.599 122.754 181.599 125.871C181.599 128.988 184.126 131.515 187.243 131.515Z" fill="#E6E6E6"/>
<path d="M210.765 131.515C213.882 131.515 216.409 128.988 216.409 125.871C216.409 122.754 213.882 120.227 210.765 120.227C207.648 120.227 205.121 122.754 205.121 125.871C205.121 128.988 207.648 131.515 210.765 131.515Z" fill="#E6E6E6"/>
<path d="M69.6259 149.393C72.743 149.393 75.2699 146.866 75.2699 143.749C75.2699 140.632 72.743 138.105 69.6259 138.105C66.5088 138.105 63.9819 140.632 63.9819 143.749C63.9819 146.866 66.5088 149.393 69.6259 149.393Z" fill="#7474B4"/>
<path d="M93.1484 149.393C96.2654 149.393 98.7923 146.866 98.7923 143.749C98.7923 140.632 96.2654 138.105 93.1484 138.105C90.0313 138.105 87.5044 140.632 87.5044 143.749C87.5044 146.866 90.0313 149.393 93.1484 149.393Z" fill="#7474B4"/>
<path d="M116.67 149.393C119.787 149.393 122.314 146.866 122.314 143.749C122.314 140.632 119.787 138.105 116.67 138.105C113.553 138.105 111.026 140.632 111.026 143.749C111.026 146.866 113.553 149.393 116.67 149.393Z" fill="#7474B4"/>
<path d="M140.199 149.393C143.316 149.393 145.843 146.866 145.843 143.749C145.843 140.632 143.316 138.105 140.199 138.105C137.082 138.105 134.555 140.632 134.555 143.749C134.555 146.866 137.082 149.393 140.199 149.393Z" fill="#E6E6E6"/>
<path d="M163.721 149.393C166.838 149.393 169.365 146.866 169.365 143.749C169.365 140.632 166.838 138.105 163.721 138.105C160.604 138.105 158.077 140.632 158.077 143.749C158.077 146.866 160.604 149.393 163.721 149.393Z" fill="#E6E6E6"/>
<path d="M187.243 149.393C190.36 149.393 192.887 146.866 192.887 143.749C192.887 140.632 190.36 138.105 187.243 138.105C184.126 138.105 181.599 140.632 181.599 143.749C181.599 146.866 184.126 149.393 187.243 149.393Z" fill="#E6E6E6"/>
<path d="M210.765 149.393C213.882 149.393 216.409 146.866 216.409 143.749C216.409 140.632 213.882 138.105 210.765 138.105C207.648 138.105 205.121 140.632 205.121 143.749C205.121 146.866 207.648 149.393 210.765 149.393Z" fill="#E6E6E6"/>
<path d="M69.6259 167.271C72.743 167.271 75.2699 164.744 75.2699 161.627C75.2699 158.51 72.743 155.983 69.6259 155.983C66.5088 155.983 63.9819 158.51 63.9819 161.627C63.9819 164.744 66.5088 167.271 69.6259 167.271Z" fill="#E6E6E6"/>
<path d="M93.1484 167.271C96.2654 167.271 98.7923 164.744 98.7923 161.627C98.7923 158.51 96.2654 155.983 93.1484 155.983C90.0313 155.983 87.5044 158.51 87.5044 161.627C87.5044 164.744 90.0313 167.271 93.1484 167.271Z" fill="#E6E6E6"/>
<path d="M69.6259 185.15C72.743 185.15 75.2699 182.623 75.2699 179.506C75.2699 176.389 72.743 173.862 69.6259 173.862C66.5088 173.862 63.9819 176.389 63.9819 179.506C63.9819 182.623 66.5088 185.15 69.6259 185.15Z" fill="#E6E6E6"/>
<path d="M93.1484 185.15C96.2654 185.15 98.7923 182.623 98.7923 179.506C98.7923 176.389 96.2654 173.862 93.1484 173.862C90.0313 173.862 87.5044 176.389 87.5044 179.506C87.5044 182.623 90.0313 185.15 93.1484 185.15Z" fill="#E6E6E6"/>
<path d="M116.67 185.15C119.787 185.15 122.314 182.623 122.314 179.506C122.314 176.389 119.787 173.862 116.67 173.862C113.553 173.862 111.026 176.389 111.026 179.506C111.026 182.623 113.553 185.15 116.67 185.15Z" fill="#E6E6E6"/>
<path d="M116.67 167.271C119.787 167.271 122.314 164.744 122.314 161.627C122.314 158.51 119.787 155.983 116.67 155.983C113.553 155.983 111.026 158.51 111.026 161.627C111.026 164.744 113.553 167.271 116.67 167.271Z" fill="#E6E6E6"/>
<path d="M140.199 167.271C143.316 167.271 145.843 164.744 145.843 161.627C145.843 158.51 143.316 155.983 140.199 155.983C137.082 155.983 134.555 158.51 134.555 161.627C134.555 164.744 137.082 167.271 140.199 167.271Z" fill="#7474B4"/>
<path d="M163.721 167.271C166.838 167.271 169.365 164.744 169.365 161.627C169.365 158.51 166.838 155.983 163.721 155.983C160.604 155.983 158.077 158.51 158.077 161.627C158.077 164.744 160.604 167.271 163.721 167.271Z" fill="#7474B4"/>
<path d="M187.243 167.271C190.36 167.271 192.887 164.744 192.887 161.627C192.887 158.51 190.36 155.983 187.243 155.983C184.126 155.983 181.599 158.51 181.599 161.627C181.599 164.744 184.126 167.271 187.243 167.271Z" fill="#7474B4"/>
<path d="M210.765 167.271C213.882 167.271 216.409 164.744 216.409 161.627C216.409 158.51 213.882 155.983 210.765 155.983C207.648 155.983 205.121 158.51 205.121 161.627C205.121 164.744 207.648 167.271 210.765 167.271Z" fill="#E6E6E6"/>
<path d="M97.456 58.0916C96.5758 58.1277 95.7437 58.5027 95.1337 59.1382C94.5237 59.7738 94.1831 60.6206 94.1831 61.5015C94.1831 62.3824 94.5237 63.2292 95.1337 63.8647C95.7437 64.5002 96.5758 64.8753 97.456 64.9114H182.97C183.428 64.9364 183.887 64.8689 184.318 64.7127C184.75 64.5566 185.145 64.315 185.481 64.0025C185.817 63.6901 186.086 63.3131 186.273 62.8941C186.46 62.4751 186.561 62.0227 186.569 61.564C186.577 61.1052 186.492 60.6496 186.32 60.2242C186.148 59.7989 185.892 59.4126 185.568 59.0885C185.243 58.7643 184.856 58.509 184.431 58.3377C184.005 58.1664 183.549 58.0827 183.091 58.0916H97.456Z" fill="#3F3D56"/>
<path d="M202.362 57.1394C202.299 57.2018 202.249 57.276 202.215 57.3577C202.181 57.4394 202.164 57.527 202.164 57.6155C202.164 57.704 202.181 57.7916 202.215 57.8733C202.249 57.955 202.299 58.0292 202.362 58.0916L205.23 60.9594H198.14C197.962 60.9594 197.792 61.0301 197.666 61.156C197.54 61.2818 197.469 61.4525 197.469 61.6305C197.469 61.8085 197.54 61.9792 197.666 62.105C197.792 62.2309 197.962 62.3016 198.14 62.3016H205.241L202.373 65.1695C202.311 65.2318 202.261 65.306 202.227 65.3877C202.193 65.4694 202.175 65.557 202.175 65.6455C202.175 65.734 202.193 65.8216 202.227 65.9033C202.261 65.9851 202.311 66.0592 202.373 66.1216C202.435 66.1842 202.509 66.2339 202.59 66.2678C202.671 66.3017 202.758 66.3192 202.846 66.3192C202.935 66.3192 203.022 66.3017 203.103 66.2678C203.184 66.2339 203.258 66.1842 203.32 66.1216L207.335 62.1066C207.397 62.0442 207.447 61.97 207.481 61.8883C207.515 61.8066 207.533 61.719 207.533 61.6305C207.533 61.542 207.515 61.4544 207.481 61.3727C207.447 61.291 207.397 61.2168 207.335 61.1544L203.32 57.1394C203.193 57.0158 203.023 56.9465 202.846 56.9465C202.67 56.9465 202.5 57.0158 202.373 57.1394H202.362Z" fill="#E6E6E6"/>
<path d="M78.0057 57.1394C78.0685 57.2018 78.1183 57.276 78.1523 57.3577C78.1863 57.4394 78.2038 57.527 78.2038 57.6155C78.2038 57.704 78.1863 57.7916 78.1523 57.8733C78.1183 57.955 78.0685 58.0292 78.0057 58.0916L75.1378 60.9594H82.2444C82.4224 60.9594 82.5931 61.0301 82.7189 61.156C82.8448 61.2818 82.9155 61.4525 82.9155 61.6305C82.9155 61.8085 82.8448 61.9792 82.7189 62.105C82.5931 62.2309 82.4224 62.3016 82.2444 62.3016H75.1378L78.0057 65.1695C78.0685 65.2318 78.1183 65.306 78.1523 65.3877C78.1863 65.4694 78.2038 65.557 78.2038 65.6455C78.2038 65.734 78.1863 65.8216 78.1523 65.9033C78.1183 65.9851 78.0685 66.0592 78.0057 66.1216C77.9438 66.1842 77.8701 66.2339 77.7889 66.2678C77.7077 66.3017 77.6205 66.3192 77.5325 66.3192C77.4445 66.3192 77.3573 66.3017 77.2761 66.2678C77.1949 66.2339 77.1212 66.1842 77.0593 66.1216L73.0443 62.1066C72.9815 62.0442 72.9317 61.97 72.8977 61.8883C72.8637 61.8066 72.8462 61.719 72.8462 61.6305C72.8462 61.542 72.8637 61.4544 72.8977 61.3727C72.9317 61.291 72.9815 61.2168 73.0443 61.1544L77.0593 57.1394C77.1858 57.0158 77.3556 56.9465 77.5325 56.9465C77.7094 56.9465 77.8792 57.0158 78.0057 57.1394Z" fill="#E6E6E6"/>
<path d="M92.6774 221.187C91.0489 221.152 89.4297 221.442 87.9148 222.041C86.4 222.64 85.02 223.535 83.8557 224.675C82.6915 225.814 81.7665 227.174 81.135 228.676C80.5035 230.177 80.1782 231.79 80.1782 233.419C80.1782 235.048 80.5035 236.66 81.135 238.162C81.7665 239.663 82.6915 241.024 83.8557 242.163C85.02 243.302 86.4 244.197 87.9148 244.796C89.4297 245.395 91.0489 245.685 92.6774 245.65H187.713C189.341 245.687 190.961 245.399 192.476 244.802C193.992 244.205 195.373 243.311 196.538 242.173C197.704 241.035 198.631 239.676 199.264 238.175C199.897 236.674 200.224 235.062 200.226 233.433C200.228 231.805 199.905 230.192 199.275 228.689C198.645 227.187 197.722 225.826 196.559 224.685C195.396 223.544 194.017 222.648 192.503 222.047C190.989 221.446 189.37 221.154 187.742 221.187H92.6774Z" fill="#E6E6E6"/>
<path d="M19.6564 39.3127C15.7687 39.3127 11.9684 38.1599 8.73589 36C5.50341 33.8402 2.98401 30.7703 1.49626 27.1785C0.00851697 23.5868 -0.380745 19.6346 0.377701 15.8216C1.13615 12.0086 3.00823 8.50619 5.75723 5.7572C8.50622 3.0082 12.0087 1.13612 15.8216 0.37767C19.6346 -0.380776 23.5868 0.00848645 27.1786 1.49623C30.7703 2.98398 33.8402 5.50338 36.0001 8.73586C38.1599 11.9683 39.3128 15.7687 39.3128 19.6564C39.3128 24.8696 37.2418 29.8692 33.5555 33.5555C29.8693 37.2418 24.8696 39.3127 19.6564 39.3127Z" fill="#36357E"/>
<path d="M27.4167 17.7177H21.595V11.9017C21.595 11.3875 21.3907 10.8944 21.0271 10.5308C20.6636 10.1672 20.1705 9.96298 19.6563 9.96298C19.1421 9.96298 18.649 10.1672 18.2854 10.5308C17.9219 10.8944 17.7176 11.3875 17.7176 11.9017V17.7177H11.9016C11.3874 17.7177 10.8943 17.922 10.5307 18.2855C10.1671 18.6491 9.96289 19.1422 9.96289 19.6564C9.96289 20.1706 10.1671 20.6637 10.5307 21.0272C10.8943 21.3908 11.3874 21.5951 11.9016 21.5951H17.7176V27.4168C17.7176 27.931 17.9219 28.4241 18.2854 28.7877C18.649 29.1513 19.1421 29.3555 19.6563 29.3555C20.1705 29.3555 20.6636 29.1513 21.0271 28.7877C21.3907 28.4241 21.595 27.931 21.595 27.4168V21.5951H27.4167C27.9309 21.5951 28.424 21.3908 28.7876 21.0272C29.1512 20.6637 29.3554 20.1706 29.3554 19.6564C29.3554 19.1422 29.1512 18.6491 28.7876 18.2855C28.424 17.922 27.9309 17.7177 27.4167 17.7177Z" fill="white"/>
</g>
<defs>
<clipPath id="clip0">
<rect width="362.757" height="385" fill="white"/>
</clipPath>
</defs>
</svg>
