<svg width="612" height="387" viewBox="0 0 612 387" fill="none" xmlns="http://www.w3.org/2000/svg">
<path d="M46.0447 386.806L45.4006 385.47C54.0364 380.227 64.7841 373.703 70.3977 362.996C75.9315 352.441 76.0557 338.108 70.7217 325.59C66.1825 314.937 57.8441 305.393 46.6082 297.989C44.3919 296.529 42.0655 295.145 39.8155 293.806C34.3771 290.571 28.7535 287.225 24.1166 282.478C17.7301 275.941 12.8979 264.97 16.4995 255.197C17.684 252.078 19.6238 249.395 22.0988 247.451C24.5737 245.507 27.4846 244.381 30.501 244.201L30.5773 245.719C27.814 245.883 25.1471 246.914 22.8793 248.694C20.6114 250.474 18.8335 252.932 17.7471 255.789C14.4003 264.87 18.9921 275.175 25.0291 281.355C29.5393 285.972 35.0858 289.272 40.4497 292.463C42.7124 293.809 45.0523 295.201 47.2939 296.678C58.7636 304.236 67.2873 314.007 71.9435 324.934C77.4692 337.902 77.3242 352.782 71.5649 363.767C65.76 374.838 54.8284 381.475 46.0447 386.806Z" fill="#F1F1F1"/>
<path d="M39.0842 252.213C45.6287 252.213 50.9341 249.321 50.9341 245.753C50.9341 242.184 45.6287 239.292 39.0842 239.292C32.5397 239.292 27.2344 242.184 27.2344 245.753C27.2344 249.321 32.5397 252.213 39.0842 252.213Z" fill="#F1F1F1"/>
<path d="M48.5642 294.779C55.1087 294.779 60.4141 291.886 60.4141 288.318C60.4141 284.75 55.1087 281.857 48.5642 281.857C42.0197 281.857 36.7144 284.75 36.7144 288.318C36.7144 291.886 42.0197 294.779 48.5642 294.779Z" fill="#F1F1F1"/>
<path d="M26.8958 301.62C33.4403 301.62 38.7456 298.727 38.7456 295.159C38.7456 291.591 33.4403 288.698 26.8958 288.698C20.3513 288.698 15.0459 291.591 15.0459 295.159C15.0459 298.727 20.3513 301.62 26.8958 301.62Z" fill="#F1F1F1"/>
<path d="M60.7525 337.344C67.297 337.344 72.6023 334.452 72.6023 330.883C72.6023 327.315 67.297 324.423 60.7525 324.423C54.208 324.423 48.9026 327.315 48.9026 330.883C48.9026 334.452 54.208 337.344 60.7525 337.344Z" fill="#F1F1F1"/>
<path d="M84.4524 337.344C90.9969 337.344 96.3023 334.452 96.3023 330.883C96.3023 327.315 90.9969 324.423 84.4524 324.423C77.9079 324.423 72.6025 327.315 72.6025 330.883C72.6025 334.452 77.9079 337.344 84.4524 337.344Z" fill="#F1F1F1"/>
<path d="M612 11.7279H230.911V214.717H612V11.7279Z" fill="#E6E6E6"/>
<path d="M601.103 29.1345H241.808V198.495H601.103V29.1345Z" fill="white"/>
<path d="M611.837 0H230.748V18.1734H611.837V0Z" fill="#6C63FF"/>
<path d="M242.779 11.7743C244.437 11.7743 245.78 10.2663 245.78 8.40596C245.78 6.54567 244.437 5.0376 242.779 5.0376C241.122 5.0376 239.779 6.54567 239.779 8.40596C239.779 10.2663 241.122 11.7743 242.779 11.7743Z" fill="white"/>
<path d="M254.169 11.7743C255.826 11.7743 257.17 10.2663 257.17 8.40596C257.17 6.54567 255.826 5.0376 254.169 5.0376C252.512 5.0376 251.168 6.54567 251.168 8.40596C251.168 10.2663 252.512 11.7743 254.169 11.7743Z" fill="white"/>
<path d="M265.559 11.7743C267.217 11.7743 268.56 10.2663 268.56 8.40596C268.56 6.54567 267.217 5.0376 265.559 5.0376C263.902 5.0376 262.559 6.54567 262.559 8.40596C262.559 10.2663 263.902 11.7743 265.559 11.7743Z" fill="white"/>
<path d="M402.511 69.3269C402.126 69.3269 401.756 69.4988 401.483 69.8049C401.211 70.1109 401.058 70.526 401.058 70.9587C401.058 71.3915 401.211 71.8066 401.483 72.1126C401.756 72.4186 402.126 72.5906 402.511 72.5906H482.281C482.666 72.5906 483.036 72.4186 483.309 72.1126C483.581 71.8066 483.734 71.3915 483.734 70.9587C483.734 70.526 483.581 70.1109 483.309 69.8049C483.036 69.4988 482.666 69.3269 482.281 69.3269H402.511Z" fill="#E6E6E6"/>
<path d="M402.511 79.1189C402.126 79.1198 401.757 79.2922 401.485 79.5981C401.213 79.904 401.061 80.3186 401.061 80.7507C401.061 81.1829 401.213 81.5975 401.485 81.9034C401.757 82.2093 402.126 82.3816 402.511 82.3826H443.235C443.62 82.3816 443.989 82.2093 444.261 81.9034C444.533 81.5975 444.686 81.1829 444.686 80.7507C444.686 80.3186 444.533 79.904 444.261 79.5981C443.989 79.2922 443.62 79.1198 443.235 79.1189H402.511Z" fill="#E6E6E6"/>
<path d="M400.504 126.513C400.118 126.513 399.749 126.685 399.476 126.991C399.203 127.297 399.05 127.712 399.05 128.145C399.05 128.578 399.203 128.993 399.476 129.299C399.749 129.605 400.118 129.777 400.504 129.777H550.072C550.457 129.777 550.827 129.605 551.1 129.299C551.372 128.993 551.525 128.578 551.525 128.145C551.525 127.712 551.372 127.297 551.1 126.991C550.827 126.685 550.457 126.513 550.072 126.513H400.504Z" fill="#E6E6E6"/>
<path d="M400.504 136.305C400.119 136.306 399.75 136.479 399.478 136.785C399.206 137.091 399.054 137.505 399.054 137.937C399.054 138.369 399.206 138.784 399.478 139.09C399.75 139.396 400.119 139.568 400.504 139.569H511.027C511.412 139.568 511.781 139.396 512.052 139.09C512.324 138.784 512.477 138.369 512.477 137.937C512.477 137.505 512.324 137.091 512.052 136.785C511.781 136.479 511.412 136.306 511.027 136.305H400.504Z" fill="#E6E6E6"/>
<path d="M400.504 145.876C400.119 145.877 399.75 146.049 399.478 146.355C399.206 146.661 399.054 147.076 399.054 147.508C399.054 147.94 399.206 148.354 399.478 148.66C399.75 148.966 400.119 149.139 400.504 149.14H550.072C550.457 149.139 550.826 148.966 551.098 148.66C551.37 148.354 551.523 147.94 551.523 147.508C551.523 147.076 551.37 146.661 551.098 146.355C550.826 146.049 550.457 145.877 550.072 145.876H400.504Z" fill="#E6E6E6"/>
<path d="M400.504 155.668C400.119 155.669 399.75 155.841 399.478 156.147C399.206 156.453 399.054 156.867 399.054 157.3C399.054 157.732 399.206 158.146 399.478 158.452C399.75 158.758 400.119 158.93 400.504 158.931H511.027C511.412 158.93 511.781 158.758 512.052 158.452C512.324 158.146 512.477 157.732 512.477 157.3C512.477 156.867 512.324 156.453 512.052 156.147C511.781 155.841 511.412 155.669 511.027 155.668H400.504Z" fill="#E6E6E6"/>
<path d="M322.309 133.136C329.3 133.136 334.968 126.774 334.968 118.927C334.968 111.079 329.3 104.717 322.309 104.717C315.318 104.717 309.65 111.079 309.65 118.927C309.65 126.774 315.318 133.136 322.309 133.136Z" fill="#A0616A"/>
<path d="M318.301 107.559C318.301 107.559 324.208 109.335 327.267 110.046C330.326 110.756 330.01 108.743 330.01 108.743C330.01 108.743 334.018 109.335 333.807 108.862C333.596 108.388 335.495 105.901 333.28 103.059C331.065 100.217 331.698 98.0861 331.698 98.0861H329.799L329.271 97.2572H326.318C326.318 97.2572 323.052 94.0428 317.25 94.9901C311.448 95.9374 304.587 98.4413 303.954 102.349C303.868 102.879 303.755 103.468 303.624 104.09C302.038 111.608 305.408 118.643 308.905 125.298C309.764 126.934 313.92 130.501 313.814 128.054C313.707 125.607 310.072 120.111 312.604 119.756C315.136 119.4 319.461 112.177 318.301 107.559Z" fill="#2F2E41"/>
<path d="M315.128 164.863C312.684 164.644 310.261 164.197 307.883 163.527L308.017 160.693L309.125 138.163L309.135 137.99H331.433L334.933 158.735L335.405 161.534C334.481 161.937 333.547 162.318 332.593 162.652C332.583 162.652 332.583 162.663 332.573 162.663C331.249 163.124 329.905 163.527 328.55 163.861C326.748 164.297 324.926 164.613 323.091 164.806C321.672 164.964 320.248 165.041 318.822 165.036C317.591 165.036 316.349 164.979 315.128 164.863Z" fill="#6C63FF"/>
<path d="M300.792 160.855C299.869 160.406 298.976 159.922 298.094 159.415L297.714 159.196C297.457 159.046 297.191 158.885 296.934 158.724C296.585 158.505 296.246 158.286 295.918 158.067C295.6 157.86 295.272 157.641 294.954 157.422C294.933 157.411 294.923 157.399 294.902 157.399C293.794 156.604 292.706 155.787 291.66 154.9C291.485 154.75 291.311 154.6 291.136 154.45L290.952 151.133L291.218 150.949L309.125 138.163L309.371 137.99L309.391 137.978L311.916 137.99V148.541C313.342 150.856 314.307 155.706 314.902 162.053C314.984 162.963 315.056 163.896 315.128 164.863C312.684 164.644 310.261 164.197 307.883 163.527C307.627 163.47 307.38 163.4 307.124 163.32C305.628 162.881 304.155 162.35 302.711 161.73C302.27 161.546 301.839 161.35 301.408 161.154L301.367 161.131C301.182 161.039 300.977 160.947 300.792 160.855Z" fill="#2F2E41"/>
<path d="M296.934 158.724C296.585 158.505 296.246 158.286 295.918 158.067C295.6 157.86 295.272 157.641 294.954 157.422C294.933 157.411 294.923 157.399 294.903 157.399C293.794 156.604 292.706 155.786 291.66 154.899C291.485 154.75 291.311 154.6 291.136 154.45C291.055 154.37 290.972 154.301 290.88 154.22C290.223 153.655 289.587 153.068 288.971 152.446C288.941 152.423 288.92 152.388 288.889 152.365C289.511 151.829 290.208 151.412 290.952 151.133L291.68 151.375L296.873 153.126L296.903 155.487L296.934 158.724Z" fill="#2F2E41"/>
<path d="M340.659 158.758C340.351 158.943 340.043 159.127 339.735 159.3C339.663 159.346 339.602 159.38 339.54 159.415C339.129 159.645 338.73 159.876 338.319 160.095C338.309 160.106 338.288 160.106 338.288 160.118C338.268 160.129 338.237 160.141 338.217 160.152C337.293 160.648 336.359 161.108 335.405 161.534C334.481 161.938 333.547 162.318 332.593 162.652C332.583 162.652 332.583 162.663 332.573 162.663C331.249 163.124 329.905 163.527 328.55 163.861C328.535 162.915 328.645 161.972 328.878 161.062L328.888 160.901L329.771 144.867L328.591 137.99L331.977 137.425L350.602 148.679C350.602 148.679 348.55 150.983 340.125 155.89C339.38 156.324 340.474 157.768 340.659 158.758Z" fill="#2F2E41"/>
<path d="M322.865 162.041C321.531 162.179 320.177 162.249 318.822 162.249C317.509 162.249 316.205 162.191 314.902 162.053C314.984 162.963 315.056 163.896 315.128 164.863C316.349 164.979 317.591 165.036 318.822 165.036C320.248 165.041 321.673 164.964 323.091 164.806C324.926 164.613 326.749 164.297 328.55 163.861C328.535 162.915 328.646 161.972 328.879 161.062L328.889 160.901C326.908 161.442 324.895 161.823 322.865 162.041ZM361.644 97.3974C359.475 90.4054 355.974 84.0284 351.385 78.7112C346.795 73.394 341.228 69.2646 335.07 66.6108C328.913 63.9571 322.314 62.843 315.734 63.3461C309.154 63.8492 302.75 65.9575 296.97 69.5239C291.19 73.0903 286.173 78.0291 282.268 83.9957C278.364 89.9624 275.665 96.8134 274.361 104.071C273.058 111.328 273.18 118.818 274.72 126.017C276.259 133.216 279.179 139.951 283.276 145.754C283.686 146.33 284.107 146.905 284.538 147.458C284.579 147.504 284.6 147.539 284.631 147.574C285.69 148.945 286.817 150.249 288.007 151.478C288.294 151.778 288.591 152.077 288.889 152.365C288.92 152.388 288.941 152.423 288.971 152.446C289.587 153.068 290.223 153.655 290.88 154.22C290.972 154.301 291.055 154.37 291.136 154.45C291.311 154.6 291.486 154.75 291.66 154.9C292.706 155.786 293.794 156.604 294.903 157.399C294.923 157.399 294.933 157.411 294.954 157.422C295.272 157.641 295.6 157.86 295.918 158.067C296.247 158.286 296.586 158.505 296.934 158.724C297.191 158.885 297.457 159.046 297.714 159.196L298.094 159.415C298.976 159.922 299.869 160.406 300.792 160.855C300.977 160.947 301.182 161.039 301.367 161.131L301.408 161.154C301.839 161.35 302.27 161.546 302.712 161.73C304.155 162.35 305.628 162.88 307.124 163.32C307.38 163.4 307.627 163.47 307.883 163.527C310.261 164.197 312.684 164.644 315.128 164.863C316.349 164.979 317.591 165.036 318.822 165.036C320.248 165.041 321.673 164.964 323.091 164.806C324.926 164.613 326.749 164.297 328.55 163.861C329.905 163.527 331.249 163.124 332.573 162.663C332.583 162.663 332.583 162.652 332.593 162.652C333.547 162.318 334.481 161.938 335.405 161.534C336.359 161.108 337.293 160.647 338.217 160.152C338.237 160.141 338.268 160.129 338.288 160.118C338.288 160.106 338.309 160.106 338.319 160.095C338.73 159.876 339.13 159.645 339.541 159.415C339.602 159.38 339.663 159.346 339.735 159.3C340.043 159.127 340.351 158.943 340.659 158.758C340.679 158.747 340.689 158.735 340.71 158.724C341.521 158.217 342.321 157.687 343.112 157.123C343.327 156.973 343.542 156.823 343.758 156.65C344.076 156.432 344.384 156.19 344.681 155.948C345.082 155.637 345.482 155.314 345.872 154.98C346.002 154.887 346.125 154.783 346.241 154.669C347.196 153.863 348.119 153.01 349.001 152.112C355.694 145.418 360.467 136.647 362.717 126.908C364.968 117.168 364.594 106.898 361.644 97.3974L361.644 97.3974ZM348.232 149.14C347.121 150.313 345.957 151.421 344.743 152.458C344.476 152.688 344.199 152.918 343.922 153.126C343.655 153.356 343.389 153.575 343.112 153.782C342.876 153.967 342.64 154.151 342.393 154.324C342.373 154.347 342.342 154.358 342.321 154.381C342.147 154.519 341.962 154.646 341.788 154.773C341.244 155.153 340.68 155.533 340.125 155.89C339.992 155.971 339.869 156.063 339.736 156.144C339.663 156.19 339.592 156.236 339.51 156.282C339.202 156.478 338.894 156.65 338.586 156.835C338.545 156.869 338.494 156.881 338.453 156.915C338.437 156.918 338.423 156.926 338.412 156.938C338.196 157.065 337.981 157.18 337.765 157.295C337.58 157.399 337.406 157.503 337.221 157.595C336.472 157.998 335.703 158.378 334.933 158.735C334.122 159.104 333.301 159.438 332.47 159.749C332.265 159.83 332.049 159.922 331.834 159.991C330.859 160.336 329.884 160.647 328.889 160.901C326.908 161.442 324.895 161.823 322.866 162.041C321.531 162.179 320.177 162.249 318.823 162.249C317.509 162.249 316.205 162.191 314.902 162.053C312.578 161.814 310.275 161.359 308.017 160.693C307.935 160.67 307.842 160.647 307.76 160.624C305.908 160.082 304.094 159.389 302.332 158.551C302.24 158.505 302.137 158.47 302.055 158.424C301.952 158.378 301.86 158.344 301.778 158.298C301.675 158.251 301.583 158.205 301.491 158.159C300.721 157.779 299.972 157.364 299.223 156.938L298.874 156.731C298.207 156.339 297.55 155.936 296.903 155.487C296.678 155.349 296.442 155.187 296.216 155.026C295.959 154.853 295.703 154.669 295.456 154.485C295.395 154.439 295.334 154.393 295.272 154.347C294.697 153.909 294.113 153.471 293.558 152.999C293.169 152.676 292.789 152.365 292.409 152.031C292.162 151.824 291.916 151.605 291.68 151.375C291.527 151.248 291.373 151.098 291.218 150.949C291.014 150.753 290.808 150.557 290.603 150.35C290.285 150.062 289.987 149.739 289.7 149.44C288.544 148.244 287.451 146.975 286.426 145.638C286.078 145.201 285.749 144.763 285.431 144.302C285.357 144.211 285.289 144.115 285.226 144.014C280.06 136.694 276.903 127.843 276.142 118.543C275.38 109.243 277.046 99.8955 280.937 91.6403C284.827 83.3851 290.774 76.5794 298.052 72.0535C305.33 67.5275 313.623 65.477 321.922 66.1521C330.22 66.8272 338.163 70.1988 344.784 75.8553C351.404 81.5119 356.414 89.2091 359.204 98.0077C361.993 106.806 362.441 116.326 360.493 125.406C358.545 134.485 354.284 142.732 348.232 149.14L348.232 149.14Z" fill="#3F3D56"/>
<path d="M110.668 377.539L118.97 377.538L122.919 341.595L110.667 341.595L110.668 377.539Z" fill="#A0616A"/>
<path d="M108.551 374.496L124.9 374.496H124.9C127.664 374.496 130.314 375.728 132.267 377.921C134.221 380.114 135.319 383.089 135.319 386.191V386.571L108.552 386.572L108.551 374.496Z" fill="#2F2E41"/>
<path d="M141.817 377.539L150.118 377.538L154.067 341.595L141.815 341.595L141.817 377.539Z" fill="#A0616A"/>
<path d="M139.699 374.496L156.048 374.496H156.049C158.812 374.496 161.462 375.728 163.416 377.921C165.369 380.114 166.467 383.089 166.467 386.191V386.571L139.7 386.572L139.699 374.496Z" fill="#2F2E41"/>
<path d="M85.4792 235.509C86.1587 234.692 86.6703 233.718 86.9781 232.655C87.286 231.593 87.3825 230.467 87.2609 229.358C87.1393 228.249 86.8026 227.183 86.2744 226.236C85.7463 225.289 85.0395 224.483 84.204 223.876L89.972 197.497L78.1272 202.235L74.4658 226.558C73.6498 228.202 73.3992 230.124 73.7614 231.961C74.1236 233.797 75.0735 235.421 76.4311 236.525C77.7886 237.628 79.4595 238.134 81.1271 237.946C82.7948 237.759 84.3433 236.892 85.4792 235.509Z" fill="#9E616A"/>
<path d="M173.602 233.228C172.923 232.412 172.411 231.438 172.103 230.375C171.796 229.312 171.699 228.187 171.821 227.078C171.942 225.969 172.279 224.903 172.807 223.956C173.335 223.009 174.042 222.203 174.878 221.596L169.11 195.217L180.954 199.954L184.616 224.278C185.432 225.921 185.682 227.844 185.32 229.68C184.958 231.517 184.008 233.141 182.651 234.244C181.293 235.348 179.622 235.853 177.954 235.666C176.287 235.479 174.738 234.611 173.602 233.228Z" fill="#9E616A"/>
<path d="M96.4019 217.018L107.908 368.326L124.745 366.603L131.483 249.662L137.481 295.966L138.682 369.518L153.918 368.377L162.378 289.251L160.302 212.62L102.464 206.046L96.4019 217.018Z" fill="#2F2E41"/>
<path d="M128.054 79.33C137.698 79.33 145.515 70.5549 145.515 59.7303C145.515 48.9057 137.698 40.1306 128.054 40.1306C118.411 40.1306 110.594 48.9057 110.594 59.7303C110.594 70.5549 118.411 79.33 128.054 79.33Z" fill="#A0616A"/>
<path d="M122.525 44.0505C122.525 44.0505 130.674 46.5005 134.893 47.4805C139.113 48.4605 138.676 45.6838 138.676 45.6838C138.676 45.6838 144.205 46.5005 143.914 45.8472C143.623 45.1938 146.242 41.7639 143.187 37.844C140.131 33.924 141.004 30.9841 141.004 30.9841H138.385L137.658 29.8407H133.584C133.584 29.8407 129.079 25.4071 121.077 26.7137C113.074 28.0203 103.61 31.4741 102.737 36.864C102.618 37.5951 102.462 38.4073 102.281 39.2651C100.093 49.6356 104.743 59.3388 109.565 68.519C110.75 70.7752 116.483 75.6949 116.337 72.3195C116.19 68.9441 111.176 61.3636 114.668 60.8736C118.16 60.3836 124.126 50.4204 122.525 44.0505Z" fill="#2F2E41"/>
<path d="M109.885 86.0251H140.635L162.378 214.919C162.378 214.919 143.422 216.738 132.588 221.299C121.754 225.859 103.743 210.881 103.743 210.881L109.885 86.0251Z" fill="#6C63FF"/>
<path d="M113.724 100.581V86.0252L110.242 86.0013L84.8044 104.156L90.3242 203.625C90.3242 203.625 96.8572 236.809 106.766 236.465C116.675 236.121 124.316 117.821 113.724 100.581Z" fill="#2F2E41"/>
<path d="M92.9756 106.904L84.8047 104.156C84.8047 104.156 78.7557 106.144 78.7557 112.985C78.7557 119.826 73.5439 217.018 73.5439 217.018L90.1004 218.66L93.6527 169.232L92.9756 106.904Z" fill="#2F2E41"/>
<path d="M138.344 95.5025L136.715 86.0251L141.391 85.2412L158.319 92.8422C158.319 92.8422 173.555 217.878 166.783 221.679C160.012 225.479 155.44 222.535 155.44 222.535C155.44 222.535 133.168 130.315 137.11 117.849L138.344 95.5025Z" fill="#2F2E41"/>
<path d="M146.469 94.7424L149.358 93.3309C149.358 93.3309 157.838 88.614 162.649 98.139C167.46 107.664 184.389 214.078 184.389 214.078L170.46 217.018L160.047 178.721L146.469 94.7424Z" fill="#2F2E41"/>
<path d="M258.666 387H0.677136C0.497548 387 0.325316 386.92 0.198328 386.777C0.0713404 386.635 0 386.441 0 386.24C0 386.038 0.0713404 385.845 0.198328 385.702C0.325316 385.56 0.497548 385.48 0.677136 385.48H258.666C258.845 385.48 259.018 385.56 259.145 385.702C259.272 385.845 259.343 386.038 259.343 386.24C259.343 386.441 259.272 386.635 259.145 386.777C259.018 386.92 258.845 387 258.666 387Z" fill="#CACACA"/>
</svg>
