<svg width="106" height="42" viewBox="0 0 106 42" fill="none" xmlns="http://www.w3.org/2000/svg">
<path d="M13.623 39.192C16.311 39.192 17.895 37.8 17.895 35.704C17.895 33.672 16.327 32.968 13.959 32.44C12.263 32.056 11.607 31.8 11.607 31C11.607 30.344 12.215 29.816 13.223 29.816C14.279 29.816 15.383 30.248 16.359 31.032L17.591 29.336C16.471 28.376 15.079 27.816 13.287 27.816C10.887 27.816 9.223 29.208 9.223 31.24C9.223 33.368 10.871 34.024 13.191 34.552C14.871 34.936 15.511 35.176 15.511 35.96C15.511 36.648 14.903 37.192 13.719 37.192C12.327 37.192 11.143 36.648 10.103 35.752L8.743 37.368C10.023 38.552 11.719 39.192 13.623 39.192ZM30.836 33.496C30.836 30.408 28.18 27.816 24.996 27.816C21.844 27.816 19.156 30.408 19.156 33.496C19.156 36.584 21.844 39.192 24.996 39.192C26.308 39.192 27.524 38.76 28.5 38.024L29.62 39L30.82 37.608L29.796 36.712C30.452 35.784 30.836 34.68 30.836 33.496ZM24.996 37.048C23.156 37.048 21.588 35.416 21.588 33.496C21.588 31.592 23.156 29.96 24.996 29.96C26.852 29.96 28.42 31.592 28.42 33.496C28.42 34.088 28.276 34.664 28.004 35.16L26.676 34.008L25.476 35.4L26.756 36.52C26.244 36.856 25.636 37.048 24.996 37.048ZM37.5324 39.192C40.4444 39.192 42.5084 37.144 42.5084 34.248V28.008H40.1404V34.152C40.1404 35.848 39.0524 37.048 37.5324 37.048C35.9964 37.048 34.9084 35.848 34.9084 34.152V28.008H32.5564V34.248C32.5564 37.144 34.6044 39.192 37.5324 39.192ZM52.7145 39H55.3705L50.8905 28.008H48.2505L43.7705 39H46.4105L47.1145 37.272H52.0105L52.7145 39ZM47.9305 35.272L49.5625 31.256L51.1945 35.272H47.9305ZM56.7621 39H60.6981C64.3941 39 67.0181 36.712 67.0181 33.496C67.0181 30.28 64.3941 28.008 60.6981 28.008H56.7621V39ZM59.1141 36.856V30.152H61.0021C63.0981 30.152 64.5861 31.544 64.5861 33.496C64.5861 35.464 63.0981 36.856 61.0021 36.856H59.1141ZM77.638 32.264L78.054 30.584H76.502L77.158 28.008H75.43L74.774 30.584H72.934L73.59 28.008H71.878L71.222 30.584H69.67L69.254 32.264H70.806L70.182 34.76H68.662L68.246 36.44H69.75L69.11 39H70.822L71.462 36.44H73.302L72.662 39H74.39L75.03 36.44H76.598L76.998 34.76H75.462L76.086 32.264H77.638ZM73.734 34.76H71.894L72.518 32.264H74.358L73.734 34.76ZM83.3789 39.208C85.9389 39.208 87.6189 37.832 87.6189 35.928C87.6189 34.472 86.5149 33.624 85.3149 33.352C86.5149 33 87.3789 32.088 87.3789 30.824C87.3789 29.08 85.8269 27.816 83.3469 27.816C81.3949 27.816 80.0829 28.664 79.1709 29.768L80.5309 31.208C81.2669 30.44 82.0829 29.928 83.1229 29.928C84.2109 29.928 84.9629 30.44 84.9629 31.24C84.9629 32.024 84.2429 32.472 83.0429 32.472L81.7789 32.456V34.472H83.0429C84.5309 34.456 85.1869 34.888 85.1869 35.736C85.1869 36.52 84.4829 37.08 83.2669 37.08C82.1629 37.08 81.1229 36.616 80.3549 35.784L78.9629 37.352C79.8909 38.424 81.3949 39.208 83.3789 39.208ZM94.234 39H96.602V36.76H98.058V34.776H96.602V28.024H93.738L88.65 34.936L88.874 36.76H94.234V39ZM91.13 34.776L94.234 30.52V34.776H91.13Z" fill="#36357E"/>
<g clip-path="url(#clip0)">
<path d="M17.4114 5.26869H10.6662V10.9621H15.8171C16.107 10.9621 16.3851 11.0813 16.5901 11.2937C16.7952 11.506 16.9104 11.7939 16.9104 12.0942C16.9104 12.3945 16.7952 12.6824 16.5901 12.8948C16.3851 13.1071 16.107 13.2264 15.8171 13.2264H10.6662V19.758C10.6748 19.9205 10.6514 20.0832 10.5973 20.236C10.5432 20.3889 10.4595 20.5287 10.3515 20.647C10.2434 20.7652 10.1132 20.8594 9.96879 20.9237C9.82439 20.9881 9.66883 21.0213 9.51162 21.0213C9.35441 21.0213 9.19885 20.9881 9.05445 20.9237C8.91005 20.8594 8.77984 20.7652 8.67178 20.647C8.56372 20.5287 8.48007 20.3889 8.42596 20.236C8.37185 20.0832 8.3484 19.9205 8.35705 19.758V4.25266C8.35961 3.92741 8.48361 3.61579 8.70308 3.3831C8.92255 3.15041 9.22046 3.0147 9.5344 3.0044H17.4114C17.7014 3.0044 17.9794 3.12368 18.1845 3.336C18.3895 3.54832 18.5047 3.83628 18.5047 4.13655C18.5047 4.43681 18.3895 4.72477 18.1845 4.93709C17.9794 5.14941 17.7014 5.26869 17.4114 5.26869ZM11.5878 0.00349481C9.29561 0.00277714 7.05474 0.706047 5.14861 2.02435C3.24247 3.34265 1.75669 5.21676 0.879203 7.40962C0.00171703 9.60248 -0.228055 12.0156 0.21895 14.3437C0.665956 16.6718 1.76966 18.8103 3.39045 20.4888C5.01124 22.1672 7.07631 23.3102 9.32444 23.7731C11.5726 24.236 13.9028 23.9981 16.0203 23.0894C18.1379 22.1807 19.9476 20.642 21.2206 18.6681C22.4936 16.6941 23.1727 14.3736 23.172 11.9999V0.00349481H11.5878Z" fill="#FE4400"/>
<path d="M33.7788 3.04809C35.8452 3.01956 37.8464 3.79672 39.3852 5.22529C39.519 5.31776 39.6324 5.43853 39.7179 5.57966C39.8033 5.72079 39.859 5.87907 39.8811 6.04408C39.9032 6.20908 39.8913 6.37707 39.8462 6.53698C39.8011 6.69689 39.7238 6.84508 39.6194 6.9718C39.5149 7.09852 39.3858 7.2009 39.2404 7.27218C39.095 7.34346 38.9366 7.38203 38.7758 7.38535C38.615 7.38868 38.4553 7.35667 38.3073 7.29145C38.1592 7.22623 38.0262 7.12927 37.917 7.00697C36.7914 5.93466 35.3187 5.33785 33.7893 5.33415C30.2537 5.33415 27.5171 8.33869 27.5171 12.0436C27.5171 15.7484 30.2537 18.7312 33.7893 18.7312C35.318 18.7236 36.7894 18.1274 37.917 17.0584C38.0284 16.9482 38.1602 16.8626 38.3045 16.8067C38.4487 16.7508 38.6025 16.7258 38.7563 16.7332C38.9102 16.7406 39.061 16.7802 39.1997 16.8497C39.3383 16.9192 39.4619 17.0171 39.563 17.1375C39.664 17.2578 39.7405 17.3982 39.7876 17.55C39.8348 17.7019 39.8517 17.8621 39.8374 18.0209C39.8231 18.1797 39.7778 18.3339 39.7043 18.4741C39.6308 18.6142 39.5306 18.7375 39.4097 18.8364C37.8711 20.2653 35.8698 21.0425 33.8033 21.0136C32.6676 21.0137 31.5432 20.7804 30.4952 20.3273C29.4472 19.8742 28.4964 19.2102 27.6979 18.3739C26.8995 17.5376 26.2692 16.5455 25.8436 15.4551C25.4179 14.3648 25.2055 13.1978 25.2185 12.0218C25.2055 10.8488 25.4173 9.68474 25.8416 8.59705C26.2659 7.50936 26.8942 6.51961 27.6903 5.68506C28.4864 4.85052 29.4345 4.18775 30.4795 3.73512C31.5246 3.28249 32.646 3.04897 33.7788 3.04809Z" fill="#FE4400"/>
<path d="M49.2104 17.2471L49.1894 16.0859C48.0852 15.7159 46.9364 15.5083 45.7765 15.469C43.4253 15.469 42.9733 16.5286 42.9733 17.3342C42.9733 18.2232 43.6741 18.9634 45.2193 18.9634C46.4072 18.9634 48.3064 18.4953 49.2069 17.2471H49.2104ZM41.873 11.6154C41.726 11.3783 41.6697 11.0929 41.7151 10.8151C41.7605 10.5373 41.9042 10.287 42.1183 10.1131C43.263 9.14344 44.7044 8.62874 46.1829 8.66164C49.4522 8.66164 51.4144 10.3526 51.4144 13.6329V19.7291C51.4149 19.8817 51.3862 20.0329 51.33 20.174C51.2738 20.3151 51.1913 20.4433 51.0871 20.5512C50.9828 20.6591 50.859 20.7446 50.7228 20.8028C50.5865 20.861 50.4405 20.8907 50.2932 20.8902C50.1482 20.8884 50.0051 20.8568 49.872 20.7972C49.739 20.7377 49.6186 20.6515 49.5179 20.5435C49.4172 20.4355 49.3382 20.308 49.2854 20.1682C49.2327 20.0284 49.2072 19.8791 49.2104 19.7291V19.2356C48.3694 20.4621 46.6139 21.01 45.1843 21.01C42.5878 21.01 40.8708 19.6347 40.8708 17.3305C40.8708 15.2985 42.1989 13.6039 45.7765 13.6039C46.9456 13.6336 48.1036 13.8478 49.2104 14.2389V13.6293C49.2104 11.8948 48.0646 10.7264 46.0218 10.7264C45.0362 10.7532 44.0872 11.1183 43.3237 11.7642C43.1076 11.9359 42.8357 12.014 42.5651 11.9822C42.2945 11.9504 42.0464 11.8111 41.873 11.5936" fill="#FE4400"/>
<path d="M54.2352 9.94617C54.2352 9.64013 54.3526 9.34663 54.5616 9.13023C54.7705 8.91383 55.054 8.79226 55.3495 8.79226C55.645 8.79226 55.9284 8.91383 56.1374 9.13023C56.3464 9.34663 56.4638 9.64013 56.4638 9.94617V10.6719C57.077 9.36196 58.6923 8.72694 59.6174 8.64348C60.0349 8.61677 60.4541 8.64481 60.8648 8.72694C61.524 8.80648 62.1499 9.07042 62.6752 9.49043C63.2006 9.91043 63.6056 10.4707 63.8467 11.111C64.2068 10.3497 64.7735 9.71383 65.4775 9.28132C66.1815 8.84881 66.992 8.63848 67.8098 8.67614C70.6725 8.67614 72.2248 10.603 72.2248 13.9268V19.7327C72.2333 19.8894 72.2108 20.0463 72.1588 20.1937C72.1067 20.3412 72.0261 20.476 71.922 20.5901C71.8179 20.7042 71.6923 20.795 71.5531 20.8571C71.4139 20.9193 71.2639 20.9513 71.1123 20.9513C70.9607 20.9513 70.8107 20.9193 70.6715 20.8571C70.5323 20.795 70.4067 20.7042 70.3026 20.5901C70.1985 20.476 70.1179 20.3412 70.0658 20.1937C70.0138 20.0463 69.9913 19.8894 69.9998 19.7327V14.0538C69.9998 12.1052 69.0186 10.9005 67.3823 10.9005C65.5006 10.8787 64.3373 12.381 64.3373 14.3477V19.7037C64.3373 20.0097 64.2199 20.3032 64.0109 20.5196C63.802 20.736 63.5185 20.8576 63.223 20.8576C62.9275 20.8576 62.6441 20.736 62.4351 20.5196C62.2261 20.3032 62.1087 20.0097 62.1087 19.7037V14.032C62.1087 12.0835 61.1276 10.857 59.6384 10.857C58.0441 10.857 56.4497 11.873 56.4497 14.3695V19.7254C56.4497 20.0315 56.3324 20.325 56.1234 20.5414C55.9144 20.7578 55.631 20.8793 55.3355 20.8793C55.0399 20.8793 54.7565 20.7578 54.5476 20.5414C54.3386 20.325 54.2212 20.0315 54.2212 19.7254L54.2352 9.94617Z" fill="#FE4400"/>
<path d="M82.5792 17.247L82.5582 16.0859C81.4541 15.7156 80.3052 15.508 79.1453 15.469C76.7976 15.469 76.3421 16.5286 76.3421 17.3341C76.3421 18.2232 77.0604 18.9634 78.5916 18.9634C79.776 18.9634 81.6962 18.4953 82.5757 17.247H82.5792ZM75.2453 11.6154C75.0976 11.3785 75.0408 11.0929 75.0862 10.8149C75.1316 10.5368 75.2759 10.2865 75.4906 10.1131C76.635 9.14285 78.0766 8.62808 79.5553 8.66162C82.8245 8.66162 84.7867 10.3526 84.7867 13.6329V19.7291C84.7872 19.882 84.7584 20.0335 84.702 20.1748C84.6456 20.3162 84.5627 20.4445 84.4581 20.5525C84.3535 20.6605 84.2293 20.7459 84.0927 20.8039C83.956 20.8618 83.8096 20.8912 83.662 20.8902C83.517 20.8883 83.3739 20.8567 83.2408 20.7972C83.1078 20.7377 82.9874 20.6515 82.8867 20.5435C82.786 20.4355 82.707 20.3079 82.6543 20.1682C82.6015 20.0284 82.576 19.8791 82.5792 19.7291V19.2356C81.7418 20.462 79.9862 21.01 78.5531 21.01C75.9601 21.01 74.2432 19.6347 74.2432 17.3305C74.2432 15.2985 75.5712 13.6039 79.1488 13.6039C80.318 13.633 81.476 13.8471 82.5827 14.2389V13.6293C82.5827 11.8948 81.4404 10.7263 79.3941 10.7263C78.4096 10.7532 77.4617 11.1183 76.6995 11.7641C76.4834 11.9358 76.2115 12.014 75.9409 11.9822C75.6703 11.9504 75.4222 11.8111 75.2488 11.5936" fill="#FE4400"/>
<path d="M92.9826 10.857C90.7751 10.857 89.829 13.2918 89.829 16.4451V19.7109C89.829 20.017 89.7116 20.3105 89.5026 20.5269C89.2937 20.7433 89.0103 20.8648 88.7147 20.8648C88.4192 20.8648 88.1358 20.7433 87.9268 20.5269C87.7179 20.3105 87.6005 20.017 87.6005 19.7109V9.94618C87.6005 9.64014 87.7179 9.34664 87.9268 9.13024C88.1358 8.91384 88.4192 8.79226 88.7147 8.79226C89.0103 8.79226 89.2937 8.91384 89.5026 9.13024C89.7116 9.34664 89.829 9.64014 89.829 9.94618V11.5754C90.4212 9.50348 91.5249 8.67252 93.0142 8.67252C93.8551 8.67252 95.2217 8.83944 95.0184 10.0877C94.8958 10.8134 94.2616 10.9767 93.4662 10.8933C93.3032 10.8756 93.1394 10.8683 92.9756 10.8715" fill="#FE4400"/>
<path d="M103.771 17.2471L103.75 16.0859C102.646 15.7159 101.497 15.5083 100.338 15.469C97.9899 15.469 97.5343 16.5286 97.5343 17.3341C97.5343 18.2232 98.2351 18.9634 99.7839 18.9634C100.968 18.9634 102.867 18.4953 103.768 17.2471H103.771ZM96.4341 11.6154C96.2879 11.378 96.2321 11.0929 96.2774 10.8153C96.3227 10.5377 96.466 10.2875 96.6794 10.1131C97.8253 9.14317 99.2678 8.6285 100.748 8.66163C104.017 8.66163 105.979 10.3526 105.979 13.6329V19.7291C105.979 19.882 105.951 20.0335 105.894 20.1748C105.838 20.3162 105.755 20.4445 105.65 20.5525C105.546 20.6605 105.422 20.7459 105.285 20.8039C105.148 20.8618 105.002 20.8912 104.854 20.8902C104.709 20.8884 104.566 20.8567 104.433 20.7972C104.3 20.7377 104.18 20.6515 104.079 20.5435C103.978 20.4355 103.899 20.308 103.847 20.1682C103.794 20.0284 103.768 19.8791 103.771 19.7291V19.2356C102.934 20.4621 101.175 21.01 99.7454 21.01C97.1489 21.01 95.4354 19.6347 95.4354 17.3305C95.4354 15.2985 96.7634 13.6039 100.341 13.6039C101.51 13.633 102.668 13.8471 103.775 14.2389V13.6293C103.775 11.8948 102.629 10.7263 100.586 10.7263C99.6009 10.7538 98.652 11.1187 97.8882 11.7641C97.6745 11.9395 97.4034 12.022 97.1321 11.9942C96.8608 11.9664 96.6105 11.8306 96.4341 11.6154Z" fill="#FE4400"/>
<path d="M78.8824 5.56638C78.6756 5.79565 78.4255 5.9784 78.1476 6.10326C77.8697 6.22811 77.57 6.2924 77.2671 6.29212C76.8947 6.2912 76.5264 6.2122 76.1843 6.05988C75.8513 5.90475 75.5521 5.68133 75.3048 5.40309C75.0471 5.11931 74.8449 4.78663 74.7091 4.42335C74.5622 4.03986 74.4861 3.63121 74.4849 3.21864C74.4858 2.81896 74.5619 2.42331 74.7091 2.05383C74.851 1.69922 75.0527 1.37361 75.3048 1.09224C75.5616 0.816519 75.8674 0.59474 76.2053 0.439077C76.5573 0.274671 76.9407 0.195259 77.3266 0.206842C77.8165 0.197875 78.3 0.323051 78.7282 0.569708C79.107 0.791816 79.4151 1.12346 79.6147 1.52405L78.7738 2.15906C78.6443 1.87226 78.431 1.63488 78.1641 1.4805C77.9006 1.33144 77.6058 1.25169 77.3056 1.24827C77.0704 1.24968 76.8388 1.30809 76.6293 1.41882C76.4276 1.52588 76.2507 1.67691 76.1107 1.86151C75.965 2.05042 75.8545 2.26576 75.7849 2.49653C75.7137 2.74431 75.6725 3.00027 75.6622 3.25855C75.6602 3.5251 75.7016 3.7901 75.7849 4.04234C75.8585 4.28062 75.9844 4.49798 76.1528 4.67736C76.2993 4.86552 76.4899 5.01168 76.7064 5.10191C76.9163 5.20559 77.1467 5.25656 77.3792 5.25069C77.6753 5.23937 77.9651 5.15911 78.2272 5.01588C78.4893 4.87266 78.7168 4.67013 78.8929 4.42335V3.99517H77.7261V3.15332H79.8285V6.24494H78.8894L78.8824 5.56638Z" fill="#FE4400"/>
<path d="M82.7228 3.21863H84.1244C84.227 3.22396 84.3282 3.19327 84.4118 3.13154C84.5004 3.07914 84.577 3.00731 84.636 2.92108C84.7074 2.82601 84.7631 2.71933 84.8007 2.60539C84.8409 2.4827 84.861 2.35393 84.8603 2.22438C84.8646 2.09457 84.8443 1.96515 84.8007 1.84337C84.7595 1.7254 84.6964 1.61692 84.615 1.52404C84.5393 1.44668 84.4572 1.37626 84.3697 1.31358C84.2806 1.2715 84.1839 1.24925 84.0859 1.24827H82.7158L82.7228 3.21863ZM81.577 6.24494V0.232239H84.17C84.4243 0.233105 84.6754 0.291302 84.9058 0.402787C85.132 0.513766 85.3336 0.671887 85.498 0.867255C85.6581 1.05721 85.7893 1.27134 85.887 1.50227C85.9839 1.73092 86.0329 1.97829 86.0306 2.22801C86.0309 2.60071 85.9314 2.96621 85.7433 3.28395C85.5632 3.59761 85.294 3.84601 84.9724 3.99517L86.3004 6.25945H85.011L83.8196 4.23466H82.7158V6.24494H81.577Z" fill="#FE4400"/>
<path d="M90.2845 5.25068C90.5192 5.25477 90.7509 5.19603 90.9573 5.08014C91.1416 4.97283 91.297 4.81937 91.4093 4.63381C91.5234 4.44491 91.6062 4.23767 91.6546 4.02057C91.7054 3.78247 91.7255 3.53841 91.7141 3.29483V0.232239H92.8389V3.30209C92.8439 3.69541 92.7956 4.0875 92.6953 4.46689C92.604 4.80987 92.4519 5.13227 92.2467 5.4176C92.0372 5.69647 91.7621 5.91509 91.4478 6.05262C91.0866 6.21093 90.6977 6.29001 90.3055 6.28486C89.8958 6.29794 89.4889 6.21092 89.1177 6.03085C88.8076 5.87928 88.5354 5.65578 88.3223 5.37769C88.1155 5.09486 87.9698 4.76944 87.8948 4.42335C87.8043 4.05677 87.7561 3.6804 87.7511 3.30209V0.232239H88.8759V3.30209C88.8748 3.54536 88.8947 3.78824 88.9355 4.02782C88.9704 4.24911 89.0543 4.45902 89.1807 4.64107C89.3023 4.80989 89.4462 4.96014 89.6082 5.08739C89.8194 5.19072 90.051 5.24166 90.2845 5.23617" fill="#FE4400"/>
<path d="M95.926 3.21863H97.233C97.3315 3.22061 97.429 3.19867 97.5179 3.15456C97.6067 3.11045 97.6843 3.0454 97.7445 2.96462C97.8878 2.75258 97.9593 2.4974 97.9478 2.23889C97.9511 1.97819 97.8723 1.72345 97.7235 1.51316C97.6562 1.43234 97.5724 1.36792 97.4782 1.32447C97.3811 1.28024 97.276 1.25798 97.1699 1.25915H95.9049L95.926 3.21863ZM94.7802 6.24494V0.232239H97.233C97.4873 0.233105 97.7384 0.291302 97.9688 0.402787C98.1944 0.514643 98.3959 0.672638 98.561 0.867255C98.7211 1.05721 98.8522 1.27134 98.9499 1.50227C99.0469 1.73092 99.0959 1.97829 99.0936 2.228C99.0923 2.47533 99.0509 2.72067 98.9709 2.95374C98.8861 3.18657 98.7615 3.40168 98.603 3.58875C98.4435 3.77635 98.2477 3.92717 98.0284 4.03145C97.7979 4.14294 97.5469 4.20113 97.2925 4.202H95.926V6.21228L94.7802 6.24494Z" fill="#FE4400"/>
<path d="M101.483 3.23678C101.484 3.49596 101.526 3.75326 101.606 3.9988C101.675 4.22974 101.786 4.44515 101.932 4.63381C102.074 4.82339 102.257 4.9772 102.464 5.08377C102.687 5.19605 102.932 5.25441 103.179 5.25441C103.427 5.25441 103.671 5.19605 103.894 5.08377C104.102 4.9704 104.284 4.81198 104.427 4.6193C104.572 4.42177 104.682 4.19947 104.753 3.96251C104.826 3.72829 104.86 3.4829 104.854 3.23678C104.853 2.97762 104.811 2.72037 104.732 2.47476C104.662 2.24414 104.551 2.02887 104.406 1.83974C104.258 1.65665 104.077 1.50507 103.873 1.39341C103.655 1.28348 103.415 1.2264 103.172 1.2265C102.918 1.22623 102.667 1.28318 102.436 1.39341C102.228 1.50618 102.047 1.6662 101.907 1.86151C101.766 2.05368 101.654 2.26805 101.578 2.49653C101.533 2.74695 101.506 3.00042 101.497 3.25492L101.483 3.23678ZM103.193 6.303C102.791 6.3095 102.392 6.22271 102.026 6.04899C101.691 5.88131 101.387 5.65272 101.129 5.37406C100.878 5.09186 100.683 4.75985 100.558 4.39795C100.418 4.04205 100.348 3.66093 100.352 3.27669C100.355 2.88432 100.431 2.49628 100.576 2.13366C100.718 1.77618 100.92 1.44711 101.172 1.16118C101.415 0.874178 101.71 0.638813 102.041 0.468106C102.399 0.296274 102.791 0.209499 103.186 0.214099C103.583 0.20459 103.976 0.298154 104.329 0.486249C104.667 0.650752 104.968 0.889741 105.208 1.18658C105.45 1.47549 105.643 1.80419 105.779 2.15906C105.923 2.51057 105.998 2.88788 106 3.26943C106.005 3.66088 105.935 4.04943 105.793 4.41247C105.648 4.77261 105.445 5.105 105.194 5.39583C104.94 5.67933 104.635 5.90968 104.297 6.07439C103.937 6.21125 103.556 6.28246 103.172 6.28486" fill="#FE4400"/>
</g>
<defs>
<clipPath id="clip0">
<rect width="106" height="24" fill="white"/>
</clipPath>
</defs>
</svg>
