<svg width="546" height="173" viewBox="0 0 546 173" fill="none" xmlns="http://www.w3.org/2000/svg">
<g clip-path="url(#clip0)">
<path d="M147.518 78.3026V63.6136H125.178V142.72H147.518V104.926C147.518 90.0844 158.076 80.5978 174.601 80.5978V61.7775C162.513 61.7775 152.72 68.0509 147.518 78.3026ZM222.834 61.7775C211.817 61.7775 200.953 64.8377 189.784 70.4991L197.281 85.3411C203.555 82.1279 210.44 79.6797 217.785 79.6797C230.79 79.6797 235.993 87.0242 235.993 95.4398V96.9699C229.26 94.3687 222.222 92.9916 215.795 92.9916C197.434 92.9916 182.898 103.702 182.898 119.309C182.898 134.457 195.904 144.556 212.735 144.556C221.304 144.556 230.331 141.19 235.993 134.764V142.72H257.567V95.4398C257.567 74.7834 243.49 61.7775 222.834 61.7775ZM217.785 129.102C210.134 129.102 204.473 125.124 204.473 118.697C204.473 112.271 210.899 107.528 219.009 107.528C225.129 107.528 230.943 108.599 235.993 110.435V117.779C234.463 125.124 226.353 129.102 217.785 129.102ZM322.146 61.7775C311.894 61.7775 303.02 66.3678 298.277 73.5593V63.6136H275.937V142.72H298.277V95.4398L298.43 95.8988C298.43 87.3302 305.621 80.5978 314.955 80.5978C323.829 80.5978 329.95 87.3302 329.95 97.1229V142.72H351.524V92.3796C351.524 74.4773 339.283 61.7775 322.146 61.7775ZM427.61 63.6136V74.3243C422.255 66.8268 412.156 61.7775 401.445 61.7775C381.554 61.7775 366.406 77.2315 366.406 99.2651C366.406 121.299 381.554 136.906 401.445 136.906C411.85 136.906 421.336 132.315 427.61 124.665V133.386C427.61 143.638 418.429 150.218 404.046 150.218C394.866 150.218 385.685 147.31 380.483 142.72L372.679 158.48C380.483 164.601 393.642 169.038 407.566 169.038C432.506 169.038 450.102 154.655 450.102 134.304V63.6136H427.61ZM408.484 118.085C397.314 118.085 389.357 110.282 389.357 99.2651C389.357 88.2483 397.314 80.5978 408.484 80.5978C419.653 80.5978 427.61 88.2483 427.61 99.2651C427.61 110.282 419.653 118.085 408.484 118.085ZM507.086 124.818C497.752 124.818 490.867 119.003 488.265 110.435H545.338C545.338 80.5978 530.802 61.7775 506.015 61.7775C482.91 61.7775 465.314 79.0677 465.314 102.937C465.314 127.266 483.675 144.556 507.239 144.556C518.868 144.556 532.486 139.66 539.524 132.315L525.294 117.779C521.01 121.911 513.359 124.818 507.086 124.818ZM506.933 81.5158C515.96 81.5158 521.775 86.5652 523.917 94.3687H488.571C491.479 86.4122 498.517 81.5158 506.933 81.5158Z" fill="#FE4400"/>
<path d="M157.687 45H165.606L149.138 5.58065H141.162L124.694 45H132.67L135.654 37.885H154.704L157.687 45ZM138.236 31.6881L145.179 15.1056L152.122 31.6881H138.236ZM206.296 45.6885C212.092 45.6885 217.37 43.2213 221.157 39.2621L216.108 34.557C213.641 37.3686 210.141 39.1473 206.296 39.1473C199.009 39.1473 192.87 32.8357 192.87 25.2616C192.87 17.745 199.009 11.4333 206.296 11.4333C210.083 11.4333 213.641 13.2121 216.051 16.0236L221.157 11.2612C217.37 7.3594 212.092 4.8921 206.296 4.8921C195.05 4.8921 185.582 14.1875 185.582 25.2616C185.582 36.3358 195.05 45.6885 206.296 45.6885ZM226.461 45H233.461V4.8921H226.461V45ZM255.543 45.6885C264.149 45.6885 271.437 38.5736 271.437 30.1388C271.437 21.7041 264.149 14.6465 255.543 14.6465C246.936 14.6465 239.649 21.7041 239.649 30.1388C239.649 38.5736 246.936 45.6885 255.543 45.6885ZM255.543 39.7211C250.608 39.7211 246.477 35.3603 246.477 30.1388C246.477 24.9747 250.608 20.6139 255.543 20.6139C260.42 20.6139 264.551 24.9747 264.551 30.1388C264.551 35.3603 260.42 39.7211 255.543 39.7211ZM291.795 45.6885C296.5 45.6885 300.46 43.7377 303.329 40.6966L298.623 36.6227C296.959 38.5162 294.435 39.7211 291.853 39.7211C286.976 39.7211 282.902 35.3603 282.902 30.1388C282.902 24.9747 286.976 20.6139 291.853 20.6139C294.377 20.6139 296.845 21.8189 298.451 23.5976L303.156 19.4664C300.345 16.54 296.386 14.6465 291.91 14.6465C283.246 14.6465 275.959 21.7041 275.959 30.1388C275.959 38.5736 283.246 45.6885 291.795 45.6885ZM336.832 15.3351H328.569L315.717 29.3929V4.8921H308.716V45H315.717V37.5981L319.905 33.1799L328.283 45H336.43L324.61 28.5896L336.832 15.3351ZM348.625 45H354.994L361.305 24.6878L367.675 45H374.044L384.028 15.3351H377.027L370.888 35.5898L364.232 15.3351H358.379L351.781 35.5898L345.584 15.3351H338.583L348.625 45ZM402.184 45.6885C410.791 45.6885 418.078 38.5736 418.078 30.1388C418.078 21.7041 410.791 14.6465 402.184 14.6465C393.577 14.6465 386.29 21.7041 386.29 30.1388C386.29 38.5736 393.577 45.6885 402.184 45.6885ZM402.184 39.7211C397.249 39.7211 393.118 35.3603 393.118 30.1388C393.118 24.9747 397.249 20.6139 402.184 20.6139C407.061 20.6139 411.192 24.9747 411.192 30.1388C411.192 35.3603 407.061 39.7211 402.184 39.7211ZM431.322 21.073V15.3351H424.321V45H431.322V30.0241C431.322 24.401 435.568 20.6139 441.937 20.6139V14.6465C437.06 14.6465 433.215 17.1138 431.322 21.073ZM475.124 15.3351H466.862L454.009 29.3929V4.8921H447.009V45H454.009V37.5981L458.197 33.1799L466.575 45H474.723L462.903 28.5896L475.124 15.3351Z" fill="#36357E"/>
<circle cx="55.6908" cy="86.8653" r="54.9882" fill="#FE4400"/>
<circle cx="56.4879" cy="86.0683" r="7.9693" fill="white"/>
<line x1="57.7263" y1="86.5153" x2="80.8426" y2="73.6728" stroke="white" stroke-width="6.37544" stroke-linecap="round"/>
<line x1="55.3507" y1="86.3901" x2="39.2773" y2="56.9221" stroke="white" stroke-width="6.37544" stroke-linecap="round"/>
<path d="M56.6436 29.3503C58.3067 10.3366 64.841 5.42342 85.2188 5.61167C81.4937 22.4002 75.0836 27.4442 56.6436 29.3503Z" fill="#55F81C" stroke="#55F81C" stroke-width="1.59386"/>
<path d="M54.0652 29.7741C45.1707 1.96236 34.0269 -3.03866 4.56425 4.53856C15.6876 28.2876 26.696 33.5286 54.0652 29.7741Z" fill="#55F81C" stroke="#55F81C" stroke-width="1.59386"/>
</g>
<defs>
<clipPath id="clip0">
<rect width="544.716" height="173" fill="white" transform="translate(0.702637)"/>
</clipPath>
</defs>
</svg>
