<svg width="259" height="82" viewBox="0 0 259 82" fill="none" xmlns="http://www.w3.org/2000/svg">
<g clip-path="url(#clip0)">
<path d="M69.7765 37.2321V30.2509H59.1592V67.8476H69.7765V49.8855C69.7765 42.8316 74.7942 38.3229 82.6481 38.3229V29.3782C76.9031 29.3782 72.249 32.3598 69.7765 37.2321ZM105.572 29.3782C100.336 29.3782 95.1725 30.8326 89.8639 33.5233L93.4272 40.5772C96.4088 39.0501 99.6812 37.8865 103.172 37.8865C109.353 37.8865 111.826 41.3772 111.826 45.3768V46.104C108.626 44.8678 105.281 44.2133 102.226 44.2133C93.5 44.2133 86.5915 49.3037 86.5915 56.7213C86.5915 63.9206 92.7728 68.7202 100.772 68.7202C104.844 68.7202 109.135 67.1204 111.826 64.0661V67.8476H122.079V45.3768C122.079 35.5595 115.389 29.3782 105.572 29.3782ZM103.172 61.3754C99.5358 61.3754 96.8451 59.4847 96.8451 56.4304C96.8451 53.3761 99.8994 51.1218 103.754 51.1218C106.662 51.1218 109.426 51.6308 111.826 52.5035V55.9941C111.098 59.4847 107.244 61.3754 103.172 61.3754ZM152.771 29.3782C147.899 29.3782 143.681 31.5598 141.427 34.9777V30.2509H130.81V67.8476H141.427V45.3768L141.5 45.595C141.5 41.5226 144.918 38.3229 149.354 38.3229C153.571 38.3229 156.48 41.5226 156.48 46.1767V67.8476H166.734V43.9224C166.734 35.414 160.916 29.3782 152.771 29.3782ZM202.895 30.2509V35.3413C200.35 31.778 195.55 29.3782 190.46 29.3782C181.006 29.3782 173.807 36.723 173.807 47.1948C173.807 57.6666 181.006 65.0842 190.46 65.0842C195.405 65.0842 199.913 62.9025 202.895 59.2665V63.4116C202.895 68.2839 198.532 71.4109 191.696 71.4109C187.333 71.4109 182.969 70.0292 180.497 67.8476L176.788 75.3378C180.497 78.2467 186.751 80.3556 193.369 80.3556C205.222 80.3556 213.585 73.5198 213.585 63.8479V30.2509H202.895ZM193.805 56.1395C188.496 56.1395 184.715 52.4307 184.715 47.1948C184.715 41.9589 188.496 38.3229 193.805 38.3229C199.113 38.3229 202.895 41.9589 202.895 47.1948C202.895 52.4307 199.113 56.1395 193.805 56.1395ZM240.667 59.3392C236.231 59.3392 232.959 56.5758 231.723 52.5035H258.847C258.847 38.3229 251.939 29.3782 240.158 29.3782C229.177 29.3782 220.814 37.5957 220.814 48.9401C220.814 60.5028 229.541 68.7202 240.74 68.7202C246.267 68.7202 252.739 66.3931 256.084 62.9025L249.321 55.9941C247.285 57.9575 243.649 59.3392 240.667 59.3392ZM240.594 38.7592C244.885 38.7592 247.648 41.159 248.667 44.8678H231.868C233.25 41.0863 236.595 38.7592 240.594 38.7592Z" fill="#FE4400"/>
<path d="M74.6097 22H78.373L70.5464 3.26528H66.7558L58.9293 22H62.7198L64.1379 18.6185H73.1916L74.6097 22ZM65.3651 15.6733L68.6648 7.79215L71.9645 15.6733H65.3651ZM97.7119 22.3272C100.466 22.3272 102.975 21.1546 104.775 19.273L102.375 17.0368C101.203 18.373 99.5391 19.2184 97.7119 19.2184C94.2486 19.2184 91.3307 16.2187 91.3307 12.619C91.3307 9.04659 94.2486 6.04685 97.7119 6.04685C99.5118 6.04685 101.203 6.89223 102.348 8.22848L104.775 5.96504C102.975 4.11066 100.466 2.93803 97.7119 2.93803C92.367 2.93803 87.8674 7.35583 87.8674 12.619C87.8674 17.8822 92.367 22.3272 97.7119 22.3272ZM107.296 22H110.623V2.93803H107.296V22ZM121.117 22.3272C125.208 22.3272 128.671 18.9457 128.671 14.937C128.671 10.9282 125.208 7.57399 121.117 7.57399C117.027 7.57399 113.563 10.9282 113.563 14.937C113.563 18.9457 117.027 22.3272 121.117 22.3272ZM121.117 19.4911C118.772 19.4911 116.808 17.4186 116.808 14.937C116.808 12.4827 118.772 10.4101 121.117 10.4101C123.435 10.4101 125.399 12.4827 125.399 14.937C125.399 17.4186 123.435 19.4911 121.117 19.4911ZM138.347 22.3272C140.583 22.3272 142.465 21.4001 143.828 19.9547L141.592 18.0185C140.801 18.9185 139.601 19.4911 138.374 19.4911C136.056 19.4911 134.12 17.4186 134.12 14.937C134.12 12.4827 136.056 10.4101 138.374 10.4101C139.574 10.4101 140.747 10.9828 141.51 11.8282L143.746 9.8647C142.41 8.47391 140.529 7.57399 138.401 7.57399C134.284 7.57399 130.82 10.9282 130.82 14.937C130.82 18.9457 134.284 22.3272 138.347 22.3272ZM159.751 7.90123H155.824L149.716 14.5825V2.93803H146.389V22H149.716V18.4821L151.707 16.3823L155.688 22H159.56L153.943 14.2007L159.751 7.90123ZM165.356 22H168.383L171.383 12.3463L174.41 22H177.437L182.182 7.90123H178.855L175.937 17.5277L172.774 7.90123H169.992L166.856 17.5277L163.911 7.90123H160.584L165.356 22ZM190.811 22.3272C194.902 22.3272 198.365 18.9457 198.365 14.937C198.365 10.9282 194.902 7.57399 190.811 7.57399C186.72 7.57399 183.257 10.9282 183.257 14.937C183.257 18.9457 186.72 22.3272 190.811 22.3272ZM190.811 19.4911C188.466 19.4911 186.502 17.4186 186.502 14.937C186.502 12.4827 188.466 10.4101 190.811 10.4101C193.129 10.4101 195.092 12.4827 195.092 14.937C195.092 17.4186 193.129 19.4911 190.811 19.4911ZM204.659 10.6283V7.90123H201.332V22H204.659V14.8824C204.659 12.2099 206.677 10.4101 209.704 10.4101V7.57399C207.386 7.57399 205.559 8.74661 204.659 10.6283ZM225.477 7.90123H221.55L215.442 14.5825V2.93803H212.115V22H215.442V18.4821L217.432 16.3823L221.414 22H225.286L219.669 14.2007L225.477 7.90123Z" fill="#36357E"/>
<circle cx="26.1341" cy="41.2842" r="26.1341" fill="#FE4400"/>
<circle cx="26.5129" cy="40.9054" r="3.78755" fill="white"/>
<line x1="27.1013" y1="41.1179" x2="38.0877" y2="35.0143" stroke="white" stroke-width="3.03004" stroke-linecap="round"/>
<line x1="25.9723" y1="41.0584" x2="18.3332" y2="27.0532" stroke="white" stroke-width="3.03004" stroke-linecap="round"/>
<path d="M26.5868 13.9492C27.3773 4.91267 30.4828 2.57758 40.1677 2.66705C38.3973 10.6461 35.3508 13.0433 26.5868 13.9492Z" fill="#55F81C" stroke="#55F81C" stroke-width="0.757509"/>
<path d="M25.3614 14.1507C21.1342 0.932645 15.8379 -1.44418 1.83529 2.15703C7.12187 13.4442 12.3538 15.935 25.3614 14.1507Z" fill="#55F81C" stroke="#55F81C" stroke-width="0.757509"/>
</g>
<defs>
<clipPath id="clip0">
<rect width="258.886" height="82" fill="white"/>
</clipPath>
</defs>
</svg>
