<svg width="221" height="70" viewBox="0 0 221 70" fill="none" xmlns="http://www.w3.org/2000/svg">
<g clip-path="url(#clip0)">
<path d="M59.5653 31.2713V25.3117H50.5018V57.4065H59.5653V42.073C59.5653 36.0513 63.8488 32.2025 70.5533 32.2025V24.5668C65.6491 24.5668 61.676 27.112 59.5653 31.2713ZM90.1222 24.5668C85.6525 24.5668 81.2449 25.8083 76.7132 28.1053L79.755 34.1269C82.3003 32.8232 85.0938 31.83 88.0736 31.83C93.3503 31.83 95.461 34.8098 95.461 38.2241V38.8449C92.7295 37.7896 89.8739 37.2308 87.2666 37.2308C79.8171 37.2308 73.9196 41.5764 73.9196 47.9084C73.9196 54.0542 79.1963 58.1514 86.025 58.1514C89.5014 58.1514 93.1641 56.7857 95.461 54.1784V57.4065H104.214V38.2241C104.214 29.8435 98.5028 24.5668 90.1222 24.5668ZM88.0736 51.8814C84.9697 51.8814 82.6727 50.2674 82.6727 47.6601C82.6727 45.0528 85.28 43.1283 88.5702 43.1283C91.0534 43.1283 93.4124 43.5629 95.461 44.3078V47.2876C94.8402 50.2674 91.55 51.8814 88.0736 51.8814ZM130.415 24.5668C126.255 24.5668 122.655 26.4291 120.73 29.3468V25.3117H111.667V57.4065H120.73V38.2241L120.793 38.4103C120.793 34.9339 123.71 32.2025 127.497 32.2025C131.098 32.2025 133.581 34.9339 133.581 38.907V57.4065H142.334V36.9825C142.334 29.7193 137.368 24.5668 130.415 24.5668ZM173.203 25.3117V29.6572C171.03 26.6154 166.933 24.5668 162.588 24.5668C154.517 24.5668 148.372 30.8367 148.372 39.7761C148.372 48.7154 154.517 55.0475 162.588 55.0475C166.809 55.0475 170.658 53.1851 173.203 50.0812V53.6197C173.203 57.7789 169.478 60.4483 163.643 60.4483C159.918 60.4483 156.193 59.2688 154.083 57.4065L150.917 63.8006C154.083 66.2837 159.422 68.084 165.071 68.084C175.19 68.084 182.329 62.2486 182.329 53.9921V25.3117H173.203ZM165.443 47.4118C160.911 47.4118 157.683 44.2458 157.683 39.7761C157.683 35.3064 160.911 32.2025 165.443 32.2025C169.975 32.2025 173.203 35.3064 173.203 39.7761C173.203 44.2458 169.975 47.4118 165.443 47.4118ZM205.448 50.1432C201.661 50.1432 198.867 47.7842 197.812 44.3078H220.967C220.967 32.2025 215.07 24.5668 205.013 24.5668C195.639 24.5668 188.5 31.5817 188.5 41.266C188.5 51.1365 195.95 58.1514 205.51 58.1514C210.228 58.1514 215.753 56.1649 218.608 53.1851L212.835 47.2876C211.097 48.9637 207.993 50.1432 205.448 50.1432ZM205.386 32.5749C209.048 32.5749 211.407 34.6235 212.276 37.7896H197.936C199.116 34.5615 201.971 32.5749 205.386 32.5749Z" fill="#FE4400"/>
<path d="M63.6911 18H66.9036L60.2224 2.00694H56.9866L50.3053 18H53.5412L54.7517 15.1133H62.4805L63.6911 18ZM55.7993 12.5991L58.6161 5.87135L61.4329 12.5991H55.7993ZM83.4125 18.2794C85.7637 18.2794 87.9054 17.2783 89.4419 15.672L87.3933 13.7631C86.3923 14.9038 84.9722 15.6255 83.4125 15.6255C80.456 15.6255 77.9651 13.0647 77.9651 9.99183C77.9651 6.94221 80.456 4.38146 83.4125 4.38146C84.9489 4.38146 86.3923 5.10313 87.37 6.24382L89.4419 4.31162C87.9054 2.72861 85.7637 1.72759 83.4125 1.72759C78.8497 1.72759 75.0086 5.49888 75.0086 9.99183C75.0086 14.4848 78.8497 18.2794 83.4125 18.2794ZM91.5936 18H94.4337V1.72759H91.5936V18ZM103.393 18.2794C106.884 18.2794 109.841 15.3927 109.841 11.9706C109.841 8.5485 106.884 5.68511 103.393 5.68511C99.9006 5.68511 96.9441 8.5485 96.9441 11.9706C96.9441 15.3927 99.9006 18.2794 103.393 18.2794ZM103.393 15.8583C101.39 15.8583 99.7144 14.089 99.7144 11.9706C99.7144 9.87543 101.39 8.10619 103.393 8.10619C105.371 8.10619 107.047 9.87543 107.047 11.9706C107.047 14.089 105.371 15.8583 103.393 15.8583ZM118.101 18.2794C120.01 18.2794 121.616 17.4878 122.78 16.254L120.871 14.6012C120.196 15.3694 119.172 15.8583 118.124 15.8583C116.145 15.8583 114.493 14.089 114.493 11.9706C114.493 9.87543 116.145 8.10619 118.124 8.10619C119.148 8.10619 120.149 8.59506 120.801 9.31672L122.71 7.6406C121.57 6.45334 119.963 5.68511 118.147 5.68511C114.632 5.68511 111.676 8.5485 111.676 11.9706C111.676 15.3927 114.632 18.2794 118.101 18.2794ZM136.373 5.96447H133.021L127.806 11.668V1.72759H124.966V18H127.806V14.9969L129.505 13.2044L132.904 18H136.21L131.414 11.342L136.373 5.96447ZM141.157 18H143.741L146.302 9.75904L148.886 18H151.47L155.521 5.96447H152.681L150.19 14.1822L147.489 5.96447H145.115L142.438 14.1822L139.924 5.96447H137.084L141.157 18ZM162.887 18.2794C166.379 18.2794 169.336 15.3927 169.336 11.9706C169.336 8.5485 166.379 5.68511 162.887 5.68511C159.395 5.68511 156.439 8.5485 156.439 11.9706C156.439 15.3927 159.395 18.2794 162.887 18.2794ZM162.887 15.8583C160.885 15.8583 159.209 14.089 159.209 11.9706C159.209 9.87543 160.885 8.10619 162.887 8.10619C164.866 8.10619 166.542 9.87543 166.542 11.9706C166.542 14.089 164.866 15.8583 162.887 15.8583ZM174.709 8.29242V5.96447H171.869V18H174.709V11.924C174.709 9.64264 176.432 8.10619 179.016 8.10619V5.68511C177.037 5.68511 175.477 6.68613 174.709 8.29242ZM192.48 5.96447H189.128L183.913 11.668V1.72759H181.073V18H183.913V14.9969L185.613 13.2044L189.012 18H192.317L187.522 11.342L192.48 5.96447Z" fill="#36357E"/>
<circle cx="22.3096" cy="35.2426" r="22.3096" fill="#FE4400"/>
<circle cx="22.6327" cy="34.9193" r="3.23327" fill="white"/>
<line x1="23.1353" y1="35.1006" x2="32.514" y2="29.8902" stroke="white" stroke-width="2.58662" stroke-linecap="round"/>
<line x1="22.1716" y1="35.0498" x2="15.6503" y2="23.0942" stroke="white" stroke-width="2.58662" stroke-linecap="round"/>
<path d="M22.6959 11.9079C23.3706 4.19373 26.0217 2.20036 34.2893 2.27674C32.778 9.08809 30.1773 11.1345 22.6959 11.9079Z" fill="#55F81C" stroke="#55F81C" stroke-width="0.646654"/>
<path d="M21.65 12.0798C18.0414 0.796158 13.5202 -1.23283 1.5667 1.84137C6.07964 11.4767 10.5459 13.6031 21.65 12.0798Z" fill="#55F81C" stroke="#55F81C" stroke-width="0.646654"/>
</g>
<defs>
<clipPath id="clip0">
<rect width="221" height="70" fill="white"/>
</clipPath>
</defs>
</svg>
