<svg width="354" height="356" viewBox="0 0 354 356" fill="none" xmlns="http://www.w3.org/2000/svg">
<g clip-path="url(#clip0)">
<path d="M262.691 339.732H251.113V227.088L277.432 226.561L262.691 339.732Z" fill="#FFB8B8"/>
<path d="M318.487 339.732H330.071V227.088L303.751 226.561L318.487 339.732Z" fill="#FFB8B8"/>
<path d="M257.279 355.396L232.591 355.168C231.41 355.459 230.178 355.478 228.988 355.221C227.799 354.965 226.683 354.442 225.727 353.69C224.77 352.939 223.997 351.979 223.466 350.885C222.935 349.79 222.661 348.589 222.664 347.372C222.664 345.862 223.091 344.384 223.896 343.106C224.7 341.829 225.85 340.806 227.211 340.154L232.831 337.451L251.101 324.964L264.257 328.648L266.778 339.991C267.522 343.291 266.944 346.751 265.169 349.63C263.393 352.509 260.562 354.579 257.279 355.396Z" fill="#2F2E41"/>
<path d="M323.581 355.259L298.944 355.032C297.762 355.324 296.53 355.343 295.339 355.088C294.149 354.832 293.033 354.309 292.075 353.557C291.118 352.806 290.344 351.846 289.813 350.75C289.282 349.655 289.007 348.453 289.01 347.236C289.012 345.726 289.44 344.248 290.244 342.971C291.049 341.694 292.198 340.671 293.558 340.017L299.178 337.315L317.441 324.834L330.604 328.518L333.118 339.849C333.849 343.153 333.261 346.613 331.479 349.491C329.698 352.369 326.864 354.439 323.581 355.259Z" fill="#2F2E41"/>
<path d="M333.215 245.545L296.936 242.297L292.154 199.742L281.46 240.913L244.785 237.665C246.137 212.456 249.047 191.426 255.83 180.816L332.682 167.134L333.215 245.545Z" fill="#2F2E41"/>
<path d="M296.547 48.4737C307.372 48.4737 316.148 39.6979 316.148 28.8724C316.148 18.0469 307.372 9.27112 296.547 9.27112C285.721 9.27112 276.945 18.0469 276.945 28.8724C276.945 39.6979 285.721 48.4737 296.547 48.4737Z" fill="#FFB8B8"/>
<path d="M312.159 69.7447L277.946 65.5282C282.299 56.2635 284.261 47.6031 281.103 40.2681H307.422C303.355 47.5252 306.994 58.2841 312.159 69.7447Z" fill="#FFB8B8"/>
<path d="M332.689 168.173C308.612 185.826 282.338 191.848 253.732 185.54C271.092 145.908 268.61 106.862 253.732 68.1594L281.104 56.5818C288.776 64.0663 297.58 64.2288 307.423 57.6344L334.268 63.4231C329.356 102.06 327.713 137.891 332.689 168.173Z" fill="#36357E"/>
<path d="M282.085 11.753L278.778 10.4536C278.778 10.4536 285.697 2.8132 295.325 3.47589L292.616 0.493793C292.616 0.493793 299.237 -2.15696 305.259 4.80127C308.423 8.45904 312.081 12.7535 314.355 17.6002H317.902L316.402 20.8487L321.599 24.0972L316.285 23.5125C316.792 26.3275 316.62 29.2229 315.784 31.9585L315.927 34.5573C315.927 34.5573 309.775 25.0068 309.775 23.6814V26.9948C309.775 26.9948 306.461 24.0127 306.461 22.0312L304.655 24.3441L303.752 20.7058L292.616 24.3441L294.422 21.3685L287.503 22.3625L290.212 18.7177C290.212 18.7177 282.416 23.0252 282.085 26.6635C281.753 30.3018 277.875 34.9471 277.875 34.9471L276.069 31.6336C276.069 31.6336 273.359 16.7297 282.085 11.753Z" fill="#2F2E41"/>
<path d="M337.49 209.851H218.596C217.39 209.851 216.233 209.372 215.38 208.519C214.527 207.666 214.048 206.51 214.048 205.304V187.112C214.048 185.906 214.527 184.749 215.38 183.896C216.233 183.043 217.39 182.564 218.596 182.564H337.49C338.696 182.564 339.853 183.043 340.706 183.896C341.559 184.749 342.038 185.906 342.038 187.112V205.304C342.038 206.51 341.559 207.666 340.706 208.519C339.853 209.372 338.696 209.851 337.49 209.851Z" fill="#7474B4"/>
<path d="M236.372 192.368C235.375 192.409 234.432 192.834 233.741 193.554C233.05 194.273 232.665 195.233 232.665 196.23C232.665 197.228 233.05 198.187 233.741 198.907C234.432 199.627 235.375 200.052 236.372 200.093H319.585C320.585 200.072 321.538 199.665 322.244 198.956C322.95 198.248 323.353 197.293 323.37 196.293C323.387 195.293 323.016 194.325 322.334 193.593C321.652 192.861 320.713 192.422 319.715 192.368H236.372Z" fill="white"/>
<path d="M265.842 178.172L271.884 188.944C272.602 190.22 273.017 191.643 273.097 193.104C273.177 194.565 272.921 196.025 272.348 197.372C271.775 198.718 270.9 199.915 269.791 200.87C268.683 201.825 267.369 202.513 265.953 202.88C264.736 203.202 263.467 203.28 262.219 203.11C260.972 202.94 259.77 202.525 258.684 201.89C257.597 201.254 256.647 200.41 255.887 199.406C255.128 198.402 254.574 197.257 254.258 196.039C254.036 195.191 253.934 194.316 253.953 193.44L254.232 178.698C249.684 152.496 246.007 127.678 246.865 110.273H267.921L263.705 130.277L265.842 178.172Z" fill="#FFB8B8"/>
<path d="M335.32 180.803L330.896 188.184C329.731 190.121 327.846 191.517 325.653 192.065C323.46 192.613 321.14 192.269 319.201 191.108C318.221 190.517 317.369 189.737 316.693 188.814C316.035 187.909 315.561 186.882 315.3 185.793C315.038 184.705 314.993 183.575 315.168 182.469C315.343 181.363 315.734 180.303 316.319 179.348C316.904 178.393 317.671 177.563 318.577 176.905L318.636 176.86L326.38 171.331L337.425 125.534L330.584 106.608L349.535 103.431C358.43 123.994 349.464 151.437 335.32 180.803Z" fill="#FFB8B8"/>
<path d="M272.683 114.483L244.785 112.904L246.734 83.018C246.637 78.7923 247.964 74.6567 250.501 71.276C253.038 67.8953 256.638 65.4659 260.722 64.3782L264.263 63.4427L272.683 114.483Z" fill="#36357E"/>
<path d="M351.634 105.01L325.848 111.325V61.8444L326.907 61.7794C331.147 61.5045 335.344 62.7636 338.733 65.3268C342.121 67.8901 344.475 71.5865 345.364 75.7414L351.634 105.01Z" fill="#36357E"/>
<path d="M205.434 145.148H5.97755C4.77138 145.148 3.61461 144.669 2.76173 143.816C1.90884 142.963 1.42969 141.806 1.42969 140.6V29.5026C1.42969 28.2964 1.90884 27.1396 2.76173 26.2867C3.61461 25.4339 4.77138 24.9547 5.97755 24.9547H205.434C206.64 24.9547 207.797 25.4339 208.65 26.2867C209.502 27.1396 209.982 28.2964 209.982 29.5026V140.6C209.982 141.806 209.502 142.963 208.65 143.816C207.797 144.669 206.64 145.148 205.434 145.148Z" fill="#7474B4"/>
<path d="M207.902 355.993H3.24847C2.38692 355.993 1.56066 355.651 0.951455 355.042C0.342249 354.433 0 353.607 0 352.745L0 27.8979C0 27.0363 0.342249 26.2101 0.951455 25.6009C1.56066 24.9917 2.38692 24.6494 3.24847 24.6494H207.902C208.764 24.6494 209.59 24.9917 210.199 25.6009C210.808 26.2101 211.151 27.0363 211.151 27.8979V352.745C211.151 353.607 210.808 354.433 210.199 355.042C209.59 355.651 208.764 355.993 207.902 355.993ZM3.24847 25.9683C2.73154 25.9683 2.23579 26.1736 1.87026 26.5392C1.50474 26.9047 1.29939 27.4004 1.29939 27.9174V352.764C1.29939 353.281 1.50474 353.777 1.87026 354.143C2.23579 354.508 2.73154 354.714 3.24847 354.714H207.902C208.419 354.714 208.915 354.508 209.28 354.143C209.646 353.777 209.851 353.281 209.851 352.764V27.9174C209.851 27.4004 209.646 26.9047 209.28 26.5392C208.915 26.1736 208.419 25.9683 207.902 25.9683H3.24847Z" fill="#E6E6E6"/>
<path d="M27.4171 205.57C31.3641 205.57 34.5638 202.37 34.5638 198.423C34.5638 194.476 31.3641 191.276 27.4171 191.276C23.4702 191.276 20.2705 194.476 20.2705 198.423C20.2705 202.37 23.4702 205.57 27.4171 205.57Z" fill="#E6E6E6"/>
<path d="M178.147 212.067H59.2524C58.0463 212.067 56.8895 211.588 56.0366 210.735C55.1837 209.882 54.7046 208.725 54.7046 207.519V189.327C54.7046 188.121 55.1837 186.964 56.0366 186.112C56.8895 185.259 58.0463 184.78 59.2524 184.78H178.147C179.353 184.78 180.509 185.259 181.362 186.112C182.215 186.964 182.694 188.121 182.694 189.327V207.519C182.694 208.725 182.215 209.882 181.362 210.735C180.509 211.588 179.353 212.067 178.147 212.067Z" fill="#E6E6E6"/>
<path d="M182.695 212.716H54.7049C54.5326 212.716 54.3673 212.648 54.2455 212.526C54.1236 212.404 54.0552 212.239 54.0552 212.067C54.0552 211.894 54.1236 211.729 54.2455 211.607C54.3673 211.485 54.5326 211.417 54.7049 211.417H182.695C182.867 211.417 183.032 211.485 183.154 211.607C183.276 211.729 183.344 211.894 183.344 212.067C183.344 212.239 183.276 212.404 183.154 212.526C183.032 212.648 182.867 212.716 182.695 212.716Z" fill="#3F3D56"/>
<path d="M27.4171 248.45C31.3641 248.45 34.5638 245.25 34.5638 241.303C34.5638 237.356 31.3641 234.156 27.4171 234.156C23.4702 234.156 20.2705 237.356 20.2705 241.303C20.2705 245.25 23.4702 248.45 27.4171 248.45Z" fill="#E6E6E6"/>
<path d="M178.147 254.947H59.2524C58.0463 254.947 56.8895 254.467 56.0366 253.615C55.1837 252.762 54.7046 251.605 54.7046 250.399V232.207C54.7046 231.001 55.1837 229.844 56.0366 228.991C56.8895 228.139 58.0463 227.659 59.2524 227.659H178.147C179.353 227.659 180.509 228.139 181.362 228.991C182.215 229.844 182.694 231.001 182.694 232.207V250.399C182.694 251.605 182.215 252.762 181.362 253.615C180.509 254.467 179.353 254.947 178.147 254.947Z" fill="#E6E6E6"/>
<path d="M182.695 255.596H54.7049C54.5326 255.596 54.3673 255.528 54.2455 255.406C54.1236 255.284 54.0552 255.119 54.0552 254.947C54.0552 254.774 54.1236 254.609 54.2455 254.487C54.3673 254.365 54.5326 254.297 54.7049 254.297H182.695C182.867 254.297 183.032 254.365 183.154 254.487C183.276 254.609 183.344 254.774 183.344 254.947C183.344 255.119 183.276 255.284 183.154 255.406C183.032 255.528 182.867 255.596 182.695 255.596Z" fill="#3F3D56"/>
<path d="M27.4171 291.329C31.3641 291.329 34.5638 288.13 34.5638 284.183C34.5638 280.236 31.3641 277.036 27.4171 277.036C23.4702 277.036 20.2705 280.236 20.2705 284.183C20.2705 288.13 23.4702 291.329 27.4171 291.329Z" fill="#E6E6E6"/>
<path d="M108.629 297.826H59.2524C58.0463 297.826 56.8895 297.347 56.0366 296.494C55.1837 295.642 54.7046 294.485 54.7046 293.279V275.087C54.7046 273.881 55.1837 272.724 56.0366 271.871C56.8895 271.018 58.0463 270.539 59.2524 270.539H108.629C109.835 270.539 110.992 271.018 111.845 271.871C112.698 272.724 113.177 273.881 113.177 275.087V293.279C113.177 294.485 112.698 295.642 111.845 296.494C110.992 297.347 109.835 297.826 108.629 297.826Z" fill="#E6E6E6"/>
<path d="M113.177 298.476H54.7049C54.5326 298.476 54.3673 298.408 54.2455 298.286C54.1236 298.164 54.0552 297.999 54.0552 297.826C54.0552 297.654 54.1236 297.489 54.2455 297.367C54.3673 297.245 54.5326 297.177 54.7049 297.177H113.177C113.35 297.177 113.515 297.245 113.637 297.367C113.759 297.489 113.827 297.654 113.827 297.826C113.827 297.999 113.759 298.164 113.637 298.286C113.515 298.408 113.35 298.476 113.177 298.476Z" fill="#3F3D56"/>
<path d="M178.146 297.826H128.77C127.563 297.826 126.407 297.347 125.554 296.494C124.701 295.642 124.222 294.485 124.222 293.279V275.087C124.222 273.881 124.701 272.724 125.554 271.871C126.407 271.018 127.563 270.539 128.77 270.539H178.146C179.352 270.539 180.509 271.018 181.362 271.871C182.215 272.724 182.694 273.881 182.694 275.087V293.279C182.694 294.485 182.215 295.642 181.362 296.494C180.509 297.347 179.352 297.826 178.146 297.826Z" fill="#E6E6E6"/>
<path d="M182.694 298.476H124.222C124.05 298.476 123.884 298.408 123.763 298.286C123.641 298.164 123.572 297.999 123.572 297.826C123.572 297.654 123.641 297.489 123.763 297.367C123.884 297.245 124.05 297.177 124.222 297.177H182.694C182.867 297.177 183.032 297.245 183.154 297.367C183.276 297.489 183.344 297.654 183.344 297.826C183.344 297.999 183.276 298.164 183.154 298.286C183.032 298.408 182.867 298.476 182.694 298.476Z" fill="#3F3D56"/>
<path d="M27.6511 59.7459C26.6541 59.7868 25.7116 60.2116 25.0206 60.9315C24.3297 61.6514 23.9438 62.6105 23.9438 63.6083C23.9438 64.6062 24.3297 65.5653 25.0206 66.2852C25.7116 67.0051 26.6541 67.4299 27.6511 67.4708H183.636C184.155 67.4987 184.675 67.4216 185.164 67.2441C185.652 67.0666 186.1 66.7923 186.48 66.4377C186.861 66.0831 187.165 65.6554 187.376 65.1803C187.588 64.7052 187.701 64.1923 187.709 63.6724C187.717 63.1526 187.621 62.6364 187.425 62.1547C187.229 61.6731 186.938 61.2359 186.569 60.8693C186.201 60.5027 185.762 60.2143 185.279 60.0213C184.796 59.8282 184.279 59.7346 183.76 59.7459H27.6511Z" fill="white"/>
<path d="M27.6511 81.1859C26.6541 81.2268 25.7116 81.6516 25.0206 82.3714C24.3297 83.0913 23.9438 84.0505 23.9438 85.0483C23.9438 86.0461 24.3297 87.0053 25.0206 87.7251C25.7116 88.445 26.6541 88.8698 27.6511 88.9107H183.636C184.155 88.9386 184.675 88.8616 185.164 88.6841C185.652 88.5065 186.1 88.2323 186.48 87.8777C186.861 87.5231 187.165 87.0954 187.376 86.6202C187.588 86.1451 187.701 85.6322 187.709 85.1124C187.717 84.5925 187.621 84.0763 187.425 83.5947C187.229 83.113 186.938 82.6758 186.569 82.3092C186.201 81.9427 185.762 81.6542 185.279 81.4612C184.796 81.2682 184.279 81.1745 183.76 81.1859H27.6511Z" fill="white"/>
<path d="M27.6511 102.626C26.6541 102.667 25.7116 103.092 25.0206 103.811C24.3297 104.531 23.9438 105.49 23.9438 106.488C23.9438 107.486 24.3297 108.445 25.0206 109.165C25.7116 109.885 26.6541 110.31 27.6511 110.351H183.636C184.155 110.379 184.675 110.301 185.164 110.124C185.652 109.946 186.1 109.672 186.48 109.318C186.861 108.963 187.165 108.535 187.376 108.06C187.588 107.585 187.701 107.072 187.709 106.552C187.717 106.032 187.621 105.516 187.425 105.035C187.229 104.553 186.938 104.116 186.569 103.749C186.201 103.383 185.762 103.094 185.279 102.901C184.796 102.708 184.279 102.614 183.76 102.626H27.6511Z" fill="white"/>
<path d="M176.717 329.856L175.08 328.219C175.009 328.148 174.913 328.109 174.814 328.109H174.021C173.971 328.108 173.921 328.117 173.875 328.135C173.828 328.154 173.786 328.182 173.75 328.217C173.715 328.252 173.686 328.294 173.667 328.34C173.648 328.386 173.638 328.435 173.638 328.485C173.637 328.536 173.647 328.586 173.666 328.633C173.685 328.68 173.713 328.722 173.748 328.758L174.651 329.661H167.427C167.254 329.661 167.089 329.73 166.967 329.852C166.845 329.973 166.777 330.139 166.777 330.311C166.777 330.483 166.845 330.649 166.967 330.77C167.089 330.892 167.254 330.961 167.427 330.961H174.651L173.839 331.773C173.799 331.813 173.766 331.86 173.744 331.913C173.723 331.965 173.711 332.021 173.711 332.078C173.711 332.135 173.723 332.191 173.744 332.244C173.766 332.296 173.799 332.344 173.839 332.384C173.88 332.425 173.928 332.458 173.982 332.48C174.035 332.502 174.093 332.514 174.151 332.514H174.801C174.916 332.512 175.025 332.466 175.106 332.384L176.717 330.753C176.836 330.631 176.903 330.468 176.903 330.298C176.903 330.128 176.836 329.965 176.717 329.843V329.856Z" fill="#6C63FF"/>
<path d="M172.299 340.706C170.243 340.706 168.234 340.097 166.524 338.954C164.815 337.812 163.482 336.189 162.696 334.289C161.909 332.39 161.703 330.3 162.104 328.283C162.505 326.267 163.495 324.414 164.949 322.961C166.403 321.507 168.255 320.517 170.271 320.116C172.288 319.715 174.378 319.921 176.277 320.707C178.177 321.494 179.8 322.826 180.943 324.536C182.085 326.245 182.695 328.255 182.695 330.311C182.695 333.068 181.599 335.712 179.65 337.662C177.7 339.611 175.056 340.706 172.299 340.706ZM172.299 321.215C170.5 321.215 168.742 321.749 167.246 322.748C165.75 323.748 164.584 325.168 163.896 326.83C163.208 328.492 163.028 330.321 163.378 332.086C163.729 333.85 164.596 335.471 165.868 336.743C167.14 338.015 168.761 338.881 170.525 339.232C172.289 339.583 174.118 339.403 175.78 338.714C177.442 338.026 178.863 336.86 179.862 335.364C180.862 333.869 181.395 332.11 181.395 330.311C181.395 329.117 181.16 327.934 180.703 326.83C180.246 325.727 179.576 324.724 178.731 323.879C177.886 323.035 176.884 322.365 175.78 321.908C174.677 321.451 173.494 321.215 172.299 321.215Z" fill="#3F3D56"/>
</g>
<defs>
<clipPath id="clip0">
<rect width="353.083" height="356" fill="white"/>
</clipPath>
</defs>
</svg>
