<svg width="357" height="469" viewBox="0 0 357 469" fill="none" xmlns="http://www.w3.org/2000/svg">
<g clip-path="url(#clip0)">
<path d="M243.068 111.063H240.388V40.7139C240.388 35.3673 239.29 30.073 237.156 25.1334C235.022 20.1937 231.894 15.7055 227.95 11.9248C224.007 8.14419 219.326 5.14523 214.174 3.09916C209.022 1.0531 203.5 0 197.923 0L42.465 0C31.2026 0 20.4014 4.28949 12.4377 11.9248C4.47398 19.5602 0 29.9159 0 40.7139L0 426.656C0 437.454 4.47398 447.81 12.4377 455.445C20.4014 463.081 31.2026 467.37 42.465 467.37H197.923C209.186 467.37 219.987 463.081 227.95 455.445C235.914 447.81 240.388 437.454 240.388 426.656V161.136H243.068V111.063Z" fill="#E6E6E6"/>
<path d="M199.633 10.5884H179.371C180.305 12.784 180.662 15.1664 180.409 17.5253C180.156 19.8843 179.301 22.1473 177.92 24.1146C176.539 26.0819 174.674 27.693 172.49 28.8059C170.306 29.9187 167.87 30.499 165.397 30.4955H76.3369C73.8653 30.4957 71.4316 29.913 69.2502 28.7988C67.0689 27.6846 65.2068 26.0731 63.8282 24.1063C62.4496 22.1394 61.5968 19.8777 61.3448 17.5204C61.0929 15.163 61.4496 12.7824 62.3835 10.5884H43.4349C35.024 10.5884 26.9576 13.7919 21.0103 19.494C15.0629 25.1961 11.7217 32.9299 11.7217 40.9939V426.366C11.7203 430.36 12.5397 434.314 14.1329 438.004C15.7262 441.693 18.0621 445.046 21.0072 447.869C23.9523 450.693 27.4489 452.933 31.2971 454.46C35.1454 455.988 39.2698 456.773 43.4349 456.772H199.633C203.798 456.773 207.923 455.988 211.771 454.46C215.619 452.933 219.116 450.693 222.061 447.869C225.006 445.046 227.342 441.693 228.935 438.004C230.529 434.314 231.348 430.36 231.347 426.366V40.9939C231.347 32.9299 228.005 25.1961 222.058 19.494C216.111 13.7919 208.044 10.5884 199.633 10.5884Z" fill="white"/>
<path d="M101.626 164.106C101.626 161.411 102.366 158.765 103.772 156.432C105.178 154.099 107.201 152.163 109.635 150.818C107.203 149.471 104.445 148.763 101.637 148.763C98.8284 148.763 96.0698 149.472 93.6379 150.818C91.2061 152.164 89.1866 154.1 87.7826 156.432C86.3786 158.763 85.6394 161.408 85.6394 164.101C85.6394 166.793 86.3786 169.438 87.7826 171.769C89.1866 174.101 91.2061 176.037 93.6379 177.383C96.0698 178.729 98.8284 179.438 101.637 179.438C104.445 179.438 107.203 178.73 109.635 177.384C107.201 176.041 105.178 174.106 103.772 171.775C102.366 169.444 101.626 166.798 101.626 164.106Z" fill="#CCCCCC"/>
<path d="M121.743 164.106C121.743 161.411 122.483 158.765 123.889 156.432C125.295 154.099 127.317 152.163 129.752 150.818C127.32 149.471 124.561 148.763 121.753 148.763C118.945 148.763 116.187 149.472 113.755 150.818C111.323 152.164 109.303 154.1 107.899 156.432C106.495 158.763 105.756 161.408 105.756 164.101C105.756 166.793 106.495 169.438 107.899 171.769C109.303 174.101 111.323 176.037 113.755 177.383C116.187 178.729 118.945 179.438 121.753 179.438C124.561 179.438 127.32 178.73 129.752 177.384C127.317 176.041 125.295 174.106 123.889 171.775C122.483 169.444 121.743 166.798 121.743 164.106Z" fill="#CCCCCC"/>
<path d="M141.411 179.453C150.252 179.453 157.419 172.582 157.419 164.106C157.419 155.629 150.252 148.758 141.411 148.758C132.57 148.758 125.403 155.629 125.403 164.106C125.403 172.582 132.57 179.453 141.411 179.453Z" fill="#FE4400"/>
<path d="M168.15 212.028H74.8874C73.9986 212.026 73.1471 211.685 72.5197 211.082C71.8922 210.478 71.5398 209.661 71.5398 208.809V119.392C71.5384 118.97 71.6241 118.552 71.7918 118.162C71.9596 117.772 72.2061 117.418 72.5172 117.12C72.8283 116.821 73.1979 116.585 73.6047 116.424C74.0115 116.263 74.4474 116.181 74.8874 116.183H168.15C169.039 116.183 169.891 116.52 170.521 117.122C171.15 117.724 171.505 118.54 171.508 119.392V208.809C171.505 209.662 171.15 210.479 170.521 211.082C169.892 211.686 169.04 212.026 168.15 212.028ZM74.8874 117.462C74.6227 117.461 74.3603 117.51 74.1155 117.607C73.8707 117.703 73.6483 117.845 73.4611 118.025C73.2739 118.204 73.1257 118.417 73.0251 118.652C72.9244 118.887 72.8733 119.138 72.8747 119.392V208.809C72.8733 209.063 72.9244 209.314 73.0251 209.549C73.1257 209.784 73.2739 209.997 73.4611 210.176C73.6483 210.356 73.8707 210.498 74.1155 210.594C74.3603 210.691 74.6227 210.74 74.8874 210.739H168.15C168.414 210.74 168.677 210.691 168.922 210.594C169.166 210.498 169.389 210.356 169.576 210.176C169.763 209.997 169.911 209.784 170.012 209.549C170.113 209.314 170.164 209.063 170.162 208.809V119.392C170.164 119.138 170.113 118.887 170.012 118.652C169.911 118.417 169.763 118.204 169.576 118.025C169.389 117.845 169.166 117.703 168.922 117.607C168.677 117.51 168.414 117.461 168.15 117.462H74.8874Z" fill="#CCCCCC"/>
<path d="M188.975 280.568H45.9272V281.848H188.975V280.568Z" fill="#CCCCCC"/>
<path d="M50.4533 272.549C52.9472 272.549 54.9689 270.611 54.9689 268.22C54.9689 265.829 52.9472 263.891 50.4533 263.891C47.9594 263.891 45.9377 265.829 45.9377 268.22C45.9377 270.611 47.9594 272.549 50.4533 272.549Z" fill="#36357E"/>
<path d="M188.975 323.882H45.9272V325.161H188.975V323.882Z" fill="#CCCCCC"/>
<path d="M50.4533 315.863C52.9472 315.863 54.9689 313.924 54.9689 311.533C54.9689 309.142 52.9472 307.204 50.4533 307.204C47.9594 307.204 45.9377 309.142 45.9377 311.533C45.9377 313.924 47.9594 315.863 50.4533 315.863Z" fill="#36357E"/>
<path d="M186.358 373.204H141.15C140.369 373.202 139.621 372.902 139.07 372.372C138.519 371.842 138.209 371.123 138.209 370.375V355.187C138.209 354.438 138.519 353.72 139.07 353.19C139.621 352.659 140.369 352.36 141.15 352.357H186.358C187.14 352.36 187.889 352.659 188.442 353.189C188.995 353.719 189.307 354.437 189.309 355.187V370.375C189.307 371.124 188.995 371.843 188.442 372.373C187.889 372.903 187.14 373.202 186.358 373.204Z" fill="#7474B4"/>
<path d="M65.1886 272.549C67.6825 272.549 69.7042 270.611 69.7042 268.22C69.7042 265.829 67.6825 263.891 65.1886 263.891C62.6948 263.891 60.6731 265.829 60.6731 268.22C60.6731 270.611 62.6948 272.549 65.1886 272.549Z" fill="#36357E"/>
<path d="M79.9243 272.549C82.4181 272.549 84.4398 270.611 84.4398 268.22C84.4398 265.829 82.4181 263.891 79.9243 263.891C77.4304 263.891 75.4087 265.829 75.4087 268.22C75.4087 270.611 77.4304 272.549 79.9243 272.549Z" fill="#36357E"/>
<path d="M65.1886 315.863C67.6825 315.863 69.7042 313.924 69.7042 311.533C69.7042 309.142 67.6825 307.204 65.1886 307.204C62.6948 307.204 60.6731 309.142 60.6731 311.533C60.6731 313.924 62.6948 315.863 65.1886 315.863Z" fill="#36357E"/>
<path d="M79.9243 315.863C82.4181 315.863 84.4398 313.924 84.4398 311.533C84.4398 309.142 82.4181 307.204 79.9243 307.204C77.4304 307.204 75.4087 309.142 75.4087 311.533C75.4087 313.924 77.4304 315.863 79.9243 315.863Z" fill="#36357E"/>
<path d="M256.365 268.62C256.763 268.794 257.147 268.998 257.512 269.23L294.012 254.302L295.305 245.083L309.905 245.003L309.05 266.14L260.891 278.348C260.789 278.669 260.667 278.982 260.526 279.288C259.834 280.719 258.717 281.922 257.314 282.746C255.911 283.57 254.286 283.978 252.642 283.918C250.998 283.859 249.41 283.335 248.076 282.412C246.741 281.49 245.722 280.21 245.144 278.733C244.567 277.256 244.458 275.649 244.83 274.113C245.203 272.577 246.041 271.18 247.239 270.1C248.437 269.019 249.941 268.302 251.563 268.039C253.185 267.775 254.852 267.978 256.354 268.62H256.365Z" fill="#FFB8B8"/>
<path d="M315.181 460.121H305.201L300.467 423.247H315.181V460.121Z" fill="#FFB8B8"/>
<path d="M298.079 457.392H317.319V469H285.971C285.971 467.476 286.284 465.966 286.893 464.558C287.501 463.149 288.393 461.87 289.517 460.792C290.642 459.714 291.976 458.859 293.445 458.275C294.914 457.692 296.489 457.392 298.079 457.392Z" fill="#2F2E41"/>
<path d="M353.965 457.422L344.037 458.362L335.549 422.107L350.19 420.727L353.965 457.422Z" fill="#FFB8B8"/>
<path d="M336.675 456.312L355.811 454.502L357 466.06L325.808 469C325.653 467.483 325.81 465.951 326.272 464.492C326.734 463.034 327.491 461.676 328.501 460.498C329.51 459.32 330.751 458.344 332.153 457.625C333.556 456.907 335.092 456.461 336.675 456.312Z" fill="#2F2E41"/>
<path d="M317.956 205.979C328.991 205.979 337.937 197.402 337.937 186.822C337.937 176.242 328.991 167.665 317.956 167.665C306.92 167.665 297.975 176.242 297.975 186.822C297.975 197.402 306.92 205.979 317.956 205.979Z" fill="#FFB8B8"/>
<path d="M302.98 452.672C302.122 452.671 301.292 452.381 300.635 451.853C299.977 451.325 299.534 450.592 299.382 449.783C294.22 422.317 277.357 332.49 276.951 330.001C276.945 329.941 276.945 329.881 276.951 329.821V323.132C276.948 322.886 277.025 322.645 277.17 322.442L279.401 319.442C279.509 319.3 279.648 319.182 279.808 319.098C279.969 319.013 280.147 318.963 280.329 318.952C293.042 318.382 334.662 316.713 336.644 319.122C338.667 321.542 337.958 328.871 337.791 330.321V330.471L356.479 445.113C356.629 446.027 356.397 446.96 355.832 447.709C355.267 448.458 354.416 448.963 353.465 449.113L341.806 450.933C340.935 451.063 340.045 450.891 339.295 450.448C338.545 450.004 337.986 449.318 337.718 448.513C334.109 437.455 321.991 400.23 317.799 385.822C317.77 385.723 317.701 385.639 317.607 385.588C317.513 385.538 317.402 385.525 317.299 385.552C317.212 385.576 317.136 385.626 317.082 385.694C317.027 385.763 316.997 385.846 316.996 385.932C317.205 399.66 317.716 434.695 317.893 446.793V448.093C317.897 448.976 317.557 449.828 316.94 450.483C316.323 451.138 315.472 451.548 314.556 451.633L303.304 452.632L302.98 452.672Z" fill="#2F2E41"/>
<path d="M305.274 213.508C301.791 215.508 299.706 219.147 298.506 222.857C296.285 229.737 294.951 236.852 294.533 244.044L293.271 265.56L277.628 322.632C291.186 333.63 299.028 331.141 317.309 322.132C335.59 313.123 337.665 325.131 337.665 325.131L341.315 276.579L346.53 223.527C345.362 222.169 344.036 220.945 342.577 219.877C337.749 216.283 332.133 213.785 326.152 212.573C320.171 211.36 313.981 211.465 308.048 212.878L305.274 213.508Z" fill="#36357E"/>
<path d="M300.185 280.138C300.605 280.293 301.013 280.477 301.405 280.688L337.478 263.381L338.083 254.002L352.964 253.002L353.757 274.379L305.556 289.687C305.172 291.264 304.309 292.696 303.076 293.802C301.843 294.909 300.295 295.64 298.629 295.904C296.963 296.167 295.252 295.951 293.714 295.283C292.175 294.614 290.878 293.524 289.986 292.149C289.094 290.774 288.648 289.176 288.703 287.558C288.757 285.939 289.312 284.373 290.295 283.056C291.278 281.74 292.647 280.732 294.227 280.161C295.807 279.59 297.529 279.481 299.174 279.848C299.518 279.928 299.852 280.028 300.217 280.138H300.185Z" fill="#FFB8B8"/>
<path d="M346.227 223.767C355.102 226.766 356.656 259.311 356.656 259.311C346.227 253.802 333.713 262.811 333.713 262.811C333.713 262.811 331.106 254.302 327.977 243.294C327.034 240.2 326.922 236.928 327.651 233.781C328.38 230.634 329.927 227.716 332.149 225.296C332.149 225.296 337.384 220.757 346.227 223.767Z" fill="#36357E"/>
<path d="M335.872 191.881C333.379 189.972 329.98 193.441 329.98 193.441L327.988 176.264C327.988 176.264 315.546 177.693 307.579 175.784C299.612 173.874 298.371 182.703 298.371 182.703C297.964 179.137 297.88 175.544 298.12 171.964C298.621 167.665 305.087 163.376 316.537 160.506C327.988 157.636 333.963 170.055 333.963 170.055C341.931 173.874 338.354 193.791 335.872 191.881Z" fill="#2F2E41"/>
</g>
<defs>
<clipPath id="clip0">
<rect width="357" height="469" fill="white"/>
</clipPath>
</defs>
</svg>
