<svg width="555" height="421" viewBox="0 0 555 421" fill="none" xmlns="http://www.w3.org/2000/svg">
<g clip-path="url(#clip0)">
<path opacity="0.1" d="M519.992 238.325C499.544 268.641 504.719 310.78 515.039 344.157C518.506 355.329 522.423 367.137 520.096 379.486C517.248 394.588 505.64 406.22 493.74 412.731C472.054 424.607 446.882 423.631 428.207 410.198C412.067 398.586 401.098 378.773 384.627 367.732C357.063 349.321 320.312 359.171 288.568 374.995C266.109 386.178 241.452 400.441 220.167 391.494C205.192 385.197 195.485 368.24 190.662 349.931C188.334 341.091 186.809 331.461 181.847 324.642C178.876 320.591 174.914 317.808 170.808 315.548C133.315 294.687 83.8467 310.106 47.5714 286.647C23.0924 270.833 8.52786 239.037 3.09028 205.284C-2.34729 171.532 0.331878 135.631 3.96683 100.302C6.54696 75.1981 10.2463 48.3227 24.4543 28.2175C39.4844 6.93099 63.8891 -2.13322 85.367 0.419597C106.845 2.97241 125.792 15.6194 142.234 30.8777C162.8 49.914 181.54 74.0559 207.653 80.6649C225.437 85.18 244.602 80.9432 263.292 78.7125C294.54 75.0273 325.507 77.0773 356.265 79.513C385.716 81.8462 415.356 84.5845 443.014 94.5322C462.585 101.571 477.848 115.589 496.196 124.912C508.156 130.989 521.453 132.053 532.684 140.044C546.491 149.879 558.694 167.715 553.895 189.753C549.334 210.737 530.842 222.217 519.992 238.325Z" fill="#7474B4"/>
<path opacity="0.1" d="M456.449 125.161H436.2V155.375H456.449V125.161Z" fill="#6C63FF"/>
<path opacity="0.1" d="M454.478 128.1H438.166V152.437H454.478V128.1Z" fill="#6C63FF"/>
<path opacity="0.1" d="M426.196 104.173H395.096V134.387H426.196V104.173Z" fill="#6C63FF"/>
<path opacity="0.1" d="M423.17 107.111H398.117V131.448H423.17V107.111Z" fill="#6C63FF"/>
<path opacity="0.1" d="M127.065 59.2176H32.0064V61.7118H127.065V59.2176Z" fill="#6C63FF"/>
<path opacity="0.1" d="M127.065 71.4155H32.0064V73.9097H127.065V71.4155Z" fill="#6C63FF"/>
<path d="M202.077 220.933H192.365V327.898H202.077V220.933Z" fill="#D6D6E3"/>
<path d="M485.742 232.165V133.498C485.744 130.748 486.854 128.112 488.827 126.168C490.8 124.225 493.476 123.132 496.265 123.131C499.052 123.136 501.723 124.23 503.692 126.174C505.661 128.117 506.768 130.751 506.769 133.498V252.909C506.77 254.272 506.498 255.621 505.969 256.88C505.441 258.138 504.666 259.282 503.688 260.245C502.711 261.209 501.551 261.973 500.274 262.494C498.996 263.015 497.628 263.282 496.246 263.282H431.069C429.687 263.282 428.318 263.015 427.041 262.494C425.764 261.973 424.604 261.209 423.626 260.245C422.649 259.282 421.874 258.138 421.345 256.88C420.817 255.621 420.545 254.272 420.545 252.909C420.545 251.547 420.817 250.198 421.345 248.939C421.874 247.681 422.649 246.537 423.626 245.574C424.604 244.61 425.764 243.846 427.041 243.325C428.318 242.804 429.687 242.536 431.069 242.537H475.218C476.6 242.538 477.969 242.27 479.246 241.749C480.523 241.228 481.684 240.464 482.661 239.501C483.638 238.537 484.413 237.394 484.942 236.135C485.471 234.876 485.743 233.527 485.742 232.165Z" fill="#AEBEE1"/>
<path d="M485.742 232.165V133.498C485.744 130.748 486.854 128.112 488.827 126.168C490.8 124.225 493.476 123.132 496.265 123.131C499.052 123.136 501.723 124.23 503.692 126.174C505.661 128.117 506.768 130.751 506.769 133.498V252.909C506.77 254.272 506.498 255.621 505.969 256.88C505.441 258.138 504.666 259.282 503.688 260.245C502.711 261.209 501.551 261.973 500.274 262.494C498.996 263.015 497.628 263.282 496.246 263.282H431.069C429.687 263.282 428.318 263.015 427.041 262.494C425.764 261.973 424.604 261.209 423.626 260.245C422.649 259.282 421.874 258.138 421.345 256.88C420.817 255.621 420.545 254.272 420.545 252.909C420.545 251.547 420.817 250.198 421.345 248.939C421.874 247.681 422.649 246.537 423.626 245.574C424.604 244.61 425.764 243.846 427.041 243.325C428.318 242.804 429.687 242.536 431.069 242.537H475.218C476.6 242.538 477.969 242.27 479.246 241.749C480.523 241.228 481.684 240.464 482.661 239.501C483.638 238.537 484.413 237.394 484.942 236.135C485.471 234.876 485.743 233.527 485.742 232.165Z" fill="#535461"/>
<path d="M420.56 252.353C420.705 249.702 421.875 247.207 423.83 245.381C425.785 243.555 428.376 242.537 431.069 242.537H475.218C476.601 242.538 477.969 242.27 479.246 241.749C480.523 241.228 481.684 240.464 482.661 239.501C483.638 238.537 484.414 237.394 484.942 236.135C485.471 234.876 485.743 233.527 485.742 232.165V133.498C485.739 130.832 486.778 128.267 488.644 126.336C490.51 124.405 493.058 123.257 495.76 123.131V252.353H420.56Z" fill="#D6D6E3"/>
<path d="M95.3358 235.494V136.827C95.3358 134.08 94.2305 131.446 92.2623 129.501C90.2941 127.557 87.6238 126.461 84.8371 126.455C83.4549 126.454 82.0862 126.722 80.8091 127.243C79.532 127.764 78.3717 128.528 77.3943 129.491C76.417 130.455 75.6419 131.598 75.1133 132.857C74.5846 134.116 74.3129 135.465 74.3135 136.827V256.258C74.3096 257.62 74.5781 258.97 75.1038 260.23C75.6294 261.49 76.4018 262.635 77.3768 263.601C78.3519 264.566 79.5104 265.333 80.7862 265.857C82.062 266.381 83.4301 266.652 84.8123 266.655H150.009C151.393 266.655 152.764 266.387 154.042 265.864C155.321 265.342 156.483 264.575 157.46 263.609C158.438 262.644 159.213 261.497 159.74 260.235C160.267 258.974 160.536 257.622 160.532 256.258C160.533 254.896 160.261 253.547 159.733 252.288C159.204 251.029 158.429 249.885 157.451 248.922C156.474 247.959 155.314 247.195 154.037 246.674C152.76 246.153 151.391 245.885 150.009 245.886H105.864C104.482 245.887 103.113 245.62 101.836 245.099C100.559 244.579 99.398 243.815 98.4202 242.852C97.4424 241.89 96.6667 240.746 96.1375 239.488C95.6082 238.229 95.3358 236.88 95.3358 235.518V235.494Z" fill="#AEBEE1"/>
<path d="M95.3358 235.494V136.827C95.3358 134.08 94.2305 131.446 92.2623 129.501C90.2941 127.557 87.6238 126.461 84.8371 126.455C83.4549 126.454 82.0862 126.722 80.8091 127.243C79.532 127.764 78.3717 128.528 77.3943 129.491C76.417 130.455 75.6419 131.598 75.1133 132.857C74.5846 134.116 74.3129 135.465 74.3135 136.827V256.258C74.3096 257.62 74.5781 258.97 75.1038 260.23C75.6294 261.49 76.4018 262.635 77.3768 263.601C78.3519 264.566 79.5104 265.333 80.7862 265.857C82.062 266.381 83.4301 266.652 84.8123 266.655H150.009C151.393 266.655 152.764 266.387 154.042 265.864C155.321 265.342 156.483 264.575 157.46 263.609C158.438 262.644 159.213 261.497 159.74 260.235C160.267 258.974 160.536 257.622 160.532 256.258C160.533 254.896 160.261 253.547 159.733 252.288C159.204 251.029 158.429 249.885 157.451 248.922C156.474 247.959 155.314 247.195 154.037 246.674C152.76 246.153 151.391 245.885 150.009 245.886H105.864C104.482 245.887 103.113 245.62 101.836 245.099C100.559 244.579 99.398 243.815 98.4202 242.852C97.4424 241.89 96.6667 240.746 96.1375 239.488C95.6082 238.229 95.3358 236.88 95.3358 235.518V235.494Z" fill="#535461"/>
<path d="M160.517 255.682C160.373 253.031 159.203 250.536 157.248 248.71C155.293 246.884 152.702 245.866 150.009 245.866H105.864C104.482 245.867 103.113 245.6 101.836 245.08C100.559 244.559 99.398 243.796 98.4202 242.833C97.4424 241.87 96.6667 240.727 96.1375 239.468C95.6083 238.21 95.3359 236.861 95.3359 235.499V136.827C95.3354 134.165 94.2966 131.605 92.4346 129.677C90.5725 127.75 88.0297 126.601 85.3323 126.469V255.682H160.517Z" fill="#D6D6E3"/>
<path d="M394.209 220.933H384.498V330.392H394.209V220.933Z" fill="#D6D6E3"/>
<path opacity="0.1" d="M202.077 220.933H192.365V228.841H202.077V220.933Z" fill="black"/>
<path opacity="0.1" d="M394.209 220.933H384.498V228.841H394.209V220.933Z" fill="black"/>
<path opacity="0.1" d="M227.051 155.795C226.896 157.481 226.699 159.189 226.462 160.92H225.09V155.795H227.051Z" fill="black"/>
<path d="M266.842 209.038C266.872 210.771 265.604 212.191 264.034 212.191H234.395V209.146H259.057C260.122 209.146 260.786 207.876 260.251 206.861L237.886 162.053C237.728 161.73 237.483 161.456 237.177 161.261C236.871 161.066 236.517 160.959 236.153 160.949H225.09V155.824H239.06C239.314 155.832 239.562 155.907 239.776 156.043C239.99 156.179 240.162 156.37 240.273 156.596L265.911 205.407C266.498 206.531 266.817 207.774 266.842 209.038Z" fill="#535461"/>
<path d="M212.407 200.906L212.001 201.58L208.203 199.081L219.954 110.015H222.98C222.98 110.015 223.104 110.425 223.307 111.206C225.332 118.904 235.282 162.497 212.407 200.906Z" fill="#535461"/>
<path opacity="0.1" d="M223.302 111.206L212.407 200.906L212.001 201.58L208.203 199.081L219.954 110.015H222.98C222.98 110.015 223.099 110.44 223.302 111.206Z" fill="black"/>
<path d="M215.915 109.094L204.767 200.833L211.897 201.674L223.045 109.936L215.915 109.094Z" fill="#D6D6E3"/>
<path d="M180.331 209.072C180.329 209.293 180.239 209.504 180.081 209.66C179.922 209.816 179.708 209.904 179.485 209.907H178.217C177.993 209.906 177.778 209.817 177.619 209.661C177.461 209.505 177.371 209.293 177.37 209.072C177.365 209.04 177.365 209.007 177.37 208.975C177.395 208.773 177.494 208.588 177.648 208.453C177.802 208.318 178.001 208.243 178.207 208.243H179.475C179.663 208.244 179.845 208.308 179.993 208.423C180.141 208.537 180.246 208.697 180.292 208.877C180.313 208.94 180.326 209.006 180.331 209.072Z" fill="#E3EDF9"/>
<path d="M184.13 209.072C184.127 209.293 184.037 209.504 183.879 209.66C183.721 209.816 183.507 209.904 183.283 209.907H182.015C181.791 209.906 181.576 209.817 181.418 209.661C181.259 209.505 181.17 209.293 181.168 209.072C181.167 208.994 181.179 208.917 181.203 208.843C181.24 208.707 181.314 208.584 181.416 208.487C181.573 208.331 181.787 208.243 182.01 208.243H183.278C183.441 208.242 183.601 208.288 183.739 208.375C183.877 208.461 183.987 208.585 184.055 208.731C184.105 208.838 184.13 208.954 184.13 209.072Z" fill="#E3EDF9"/>
<path d="M187.507 209.072C187.505 209.293 187.415 209.504 187.256 209.66C187.098 209.816 186.884 209.904 186.66 209.907H185.393C185.168 209.906 184.954 209.817 184.795 209.661C184.637 209.505 184.547 209.293 184.546 209.072C184.545 208.963 184.566 208.854 184.608 208.753C184.65 208.652 184.712 208.56 184.791 208.482C184.869 208.405 184.962 208.343 185.064 208.301C185.167 208.259 185.277 208.238 185.388 208.238H186.655C186.766 208.237 186.876 208.258 186.978 208.299C187.08 208.34 187.174 208.401 187.252 208.477C187.331 208.554 187.393 208.645 187.436 208.745C187.479 208.846 187.502 208.954 187.502 209.063L187.507 209.072Z" fill="#E3EDF9"/>
<path d="M191.311 209.072C191.308 209.293 191.218 209.504 191.06 209.66C190.901 209.816 190.687 209.904 190.464 209.907H189.181C189.026 209.907 188.874 209.865 188.742 209.786C188.61 209.706 188.502 209.593 188.43 209.458C188.359 209.322 188.327 209.17 188.337 209.018C188.347 208.866 188.399 208.719 188.488 208.594L188.587 208.487C188.744 208.331 188.958 208.243 189.181 208.243H190.449C190.564 208.244 190.678 208.268 190.784 208.315C190.889 208.361 190.984 208.428 191.063 208.511C191.217 208.659 191.306 208.86 191.311 209.072Z" fill="#E3EDF9"/>
<path opacity="0.1" d="M180.307 208.872C180.323 208.938 180.331 209.005 180.331 209.072C180.329 209.293 180.239 209.504 180.081 209.66C179.922 209.816 179.708 209.904 179.485 209.907H178.217C177.993 209.906 177.778 209.817 177.619 209.661C177.461 209.505 177.371 209.293 177.37 209.072C177.365 209.04 177.365 209.007 177.37 208.975L180.307 208.872Z" fill="black"/>
<path opacity="0.1" d="M184.06 208.74C184.106 208.844 184.129 208.955 184.13 209.067C184.127 209.288 184.037 209.499 183.879 209.655C183.721 209.811 183.507 209.9 183.283 209.902H182.015C181.791 209.901 181.576 209.812 181.418 209.656C181.259 209.5 181.17 209.288 181.168 209.067C181.167 208.99 181.179 208.912 181.203 208.838L184.06 208.74Z" fill="black"/>
<path opacity="0.1" d="M187.383 208.628C187.468 208.76 187.512 208.912 187.512 209.067C187.51 209.288 187.419 209.499 187.261 209.655C187.103 209.811 186.889 209.9 186.665 209.902H185.397C185.173 209.901 184.959 209.812 184.8 209.656C184.642 209.5 184.552 209.288 184.551 209.067C184.55 208.948 184.576 208.83 184.625 208.721L187.383 208.628Z" fill="black"/>
<path opacity="0.1" d="M191.311 209.072C191.308 209.293 191.218 209.504 191.06 209.66C190.901 209.816 190.687 209.904 190.464 209.907H189.181C189.026 209.907 188.874 209.865 188.742 209.786C188.61 209.706 188.502 209.593 188.43 209.458C188.359 209.322 188.327 209.17 188.337 209.018C188.347 208.866 188.399 208.719 188.488 208.594L191.063 208.506C191.217 208.656 191.306 208.859 191.311 209.072Z" fill="black"/>
<path d="M198.907 212.401H174.418V211.303C174.418 210.815 174.61 210.347 174.954 209.996C175.298 209.645 175.766 209.44 176.261 209.424L195.901 208.755C196.284 208.742 196.665 208.803 197.023 208.936C197.382 209.068 197.71 209.269 197.99 209.526C198.27 209.784 198.495 210.093 198.653 210.436C198.811 210.78 198.9 211.151 198.912 211.527V212.401H198.907Z" fill="#D6D6E3"/>
<path d="M319.728 209.038C319.698 210.771 320.966 212.191 322.536 212.191H352.19V209.146H327.498C326.433 209.146 325.769 207.876 326.304 206.861L348.669 162.053C348.827 161.73 349.072 161.456 349.378 161.261C349.684 161.066 350.038 160.959 350.402 160.949H361.47V155.824H347.51C347.259 155.834 347.016 155.91 346.806 156.045C346.595 156.18 346.426 156.368 346.316 156.591L320.678 205.402C320.083 206.526 319.757 207.77 319.728 209.038Z" fill="#535461"/>
<path d="M374.168 200.906L374.574 201.58L378.372 199.081L366.62 110.015H363.595C363.595 110.015 363.471 110.425 363.268 111.206C361.237 118.904 351.268 162.497 374.168 200.906Z" fill="#535461"/>
<path opacity="0.1" d="M363.268 111.206L374.163 200.906L374.569 201.58L378.367 199.081L366.62 110.015H363.595C363.595 110.015 363.471 110.44 363.268 111.206Z" fill="black"/>
<path d="M370.66 109.082L363.531 109.924L374.679 201.662L381.808 200.821L370.66 109.082Z" fill="#D6D6E3"/>
<path d="M406.238 209.072C406.246 209.289 406.338 209.494 406.494 209.646C406.651 209.797 406.861 209.884 407.08 209.887H408.348C408.572 209.886 408.787 209.798 408.945 209.642C409.104 209.485 409.194 209.274 409.195 209.053C409.2 209.02 409.2 208.988 409.195 208.955C409.17 208.754 409.071 208.568 408.917 208.433C408.762 208.299 408.564 208.224 408.358 208.223H407.08C406.892 208.225 406.71 208.288 406.562 208.403C406.414 208.518 406.309 208.678 406.263 208.858C406.246 208.928 406.237 209 406.238 209.072Z" fill="#E3EDF9"/>
<path d="M402.44 209.072C402.443 209.293 402.533 209.504 402.691 209.66C402.849 209.816 403.063 209.904 403.287 209.907H404.555C404.779 209.906 404.994 209.817 405.152 209.661C405.311 209.505 405.4 209.293 405.402 209.072C405.403 208.994 405.391 208.917 405.367 208.843C405.33 208.707 405.256 208.584 405.154 208.487C404.996 208.331 404.783 208.243 404.56 208.243H403.267C403.104 208.242 402.944 208.288 402.806 208.375C402.668 208.461 402.559 208.585 402.49 208.731C402.451 208.84 402.434 208.956 402.44 209.072Z" fill="#E3EDF9"/>
<path d="M399.062 209.072C399.065 209.293 399.155 209.504 399.313 209.66C399.472 209.816 399.686 209.904 399.909 209.907H401.177C401.401 209.906 401.616 209.817 401.774 209.661C401.933 209.505 402.023 209.293 402.024 209.072C402.025 208.963 402.003 208.854 401.961 208.753C401.919 208.652 401.857 208.56 401.779 208.482C401.701 208.405 401.608 208.343 401.505 208.301C401.403 208.259 401.293 208.238 401.182 208.238H399.914C399.804 208.237 399.694 208.258 399.592 208.299C399.489 208.34 399.396 208.401 399.318 208.477C399.239 208.554 399.176 208.645 399.133 208.745C399.091 208.846 399.068 208.954 399.067 209.063L399.062 209.072Z" fill="#E3EDF9"/>
<path d="M395.259 209.072C395.262 209.293 395.352 209.504 395.51 209.66C395.668 209.816 395.882 209.904 396.106 209.907H397.374C397.529 209.907 397.681 209.865 397.813 209.786C397.945 209.706 398.053 209.593 398.124 209.458C398.196 209.322 398.228 209.17 398.218 209.018C398.208 208.866 398.156 208.719 398.067 208.594L397.968 208.487C397.811 208.331 397.597 208.243 397.374 208.243H396.106C395.991 208.244 395.877 208.268 395.771 208.315C395.666 208.361 395.571 208.428 395.492 208.511C395.343 208.661 395.26 208.862 395.259 209.072Z" fill="#E3EDF9"/>
<path opacity="0.1" d="M406.263 208.872C406.247 208.938 406.239 209.005 406.239 209.072C406.246 209.289 406.338 209.494 406.494 209.646C406.651 209.797 406.861 209.884 407.08 209.887H408.348C408.572 209.886 408.787 209.798 408.946 209.642C409.104 209.485 409.194 209.274 409.195 209.053C409.2 209.02 409.2 208.988 409.195 208.955L406.263 208.872Z" fill="black"/>
<path opacity="0.1" d="M402.509 208.74C402.464 208.844 402.44 208.955 402.44 209.067C402.443 209.288 402.533 209.499 402.691 209.655C402.849 209.811 403.063 209.9 403.287 209.902H404.555C404.779 209.901 404.993 209.812 405.152 209.656C405.31 209.5 405.4 209.288 405.401 209.067C405.402 208.99 405.391 208.912 405.367 208.838L402.509 208.74Z" fill="black"/>
<path opacity="0.1" d="M399.186 208.628C399.102 208.76 399.057 208.912 399.058 209.067C399.06 209.288 399.15 209.499 399.308 209.655C399.467 209.811 399.681 209.9 399.904 209.902H401.172C401.396 209.901 401.611 209.812 401.77 209.656C401.928 209.5 402.018 209.288 402.019 209.067C402.019 208.948 401.994 208.83 401.945 208.721L399.186 208.628Z" fill="black"/>
<path opacity="0.1" d="M395.259 209.072C395.262 209.293 395.352 209.504 395.51 209.66C395.668 209.816 395.882 209.904 396.106 209.907H397.374C397.529 209.907 397.681 209.865 397.813 209.786C397.945 209.706 398.053 209.593 398.124 209.458C398.196 209.322 398.228 209.17 398.218 209.018C398.208 208.866 398.156 208.719 398.067 208.594L395.492 208.506C395.343 208.658 395.26 208.861 395.259 209.072Z" fill="black"/>
<path d="M387.663 212.401H412.151V211.303C412.152 210.815 411.96 210.347 411.616 209.996C411.272 209.645 410.804 209.44 410.309 209.424L390.669 208.755C390.286 208.742 389.905 208.803 389.546 208.936C389.188 209.068 388.86 209.269 388.58 209.526C388.3 209.784 388.075 210.093 387.917 210.436C387.758 210.78 387.67 211.151 387.658 211.527V212.401H387.663Z" fill="#D6D6E3"/>
<path d="M490.164 225.634C501.589 206.534 497.449 168.008 497.909 167.271C498.32 166.621 496.746 148.478 486.247 144.046C484.35 140.341 482.483 136.168 482.483 136.168C482.299 136.338 482.097 136.487 481.879 136.612C481.795 136.393 481.716 136.168 481.636 135.939C481.503 135.553 481.379 135.158 481.255 134.762C481.549 134.854 481.848 134.929 482.151 134.987C482.952 135.178 483.794 135.104 484.548 134.777C484.805 134.641 485.038 134.465 485.237 134.255C486.064 133.713 486.519 132.737 486.906 131.814L489.961 124.6C491.338 121.344 492.724 118.069 493.457 114.618C494.55 109.433 494.135 104.049 492.259 99.0864C491.536 97.1925 490.536 95.2987 488.837 94.1663C485.435 91.8917 480.7 93.4634 476.813 92.1308C475.535 91.6915 474.381 90.9496 473.104 90.5006C470.345 89.5243 467.23 90.0466 464.576 91.262C461.921 92.4774 459.772 94.4103 457.45 96.1431C456.306 97.0071 454.478 97.9003 453.131 99.0718C451.824 100.077 450.818 101.293 451.012 102.894C451.23 104.724 453.186 105.822 455.008 106.252C455.31 106.32 455.622 106.374 455.929 106.428C453.771 108.587 452.216 111.261 451.416 114.188C450.617 117.115 450.599 120.196 451.364 123.132C452.13 126.068 453.653 128.759 455.786 130.943C457.919 133.128 460.589 134.731 463.536 135.597C464.466 137.317 465.27 139.1 465.943 140.932C466.032 141.181 466.121 141.42 466.205 141.689C463.204 142.528 460.857 143.226 460.386 143.612C458.965 144.774 461.941 154.946 461.941 154.946C461.184 155.893 460.411 156.971 459.629 158.128C453.695 167.012 449.938 177.133 448.654 187.693C448.159 191.554 447.515 195.503 446.698 199.256L411.191 192.242L411.116 193.106L410.269 192.901L407.605 192.252L407.501 192.843L407.095 192.652C400.494 189.602 389.371 185.706 381.839 189.724C373.915 193.941 391.045 199.544 402.054 202.527C398.404 202.702 394.912 203.566 392.149 205.587C384.166 211.484 406.743 214.554 417.406 215.642L417.836 215.686V215.911L421.531 216.248L422.398 216.326L422.482 217.624C422.482 217.624 427.771 218.478 434.838 219.513C426.77 221.5 416.801 222.876 409.878 223.681C406.278 224.07 402.877 225.505 400.106 227.804C397.336 230.103 395.321 233.162 394.318 236.592C393.681 238.606 393.619 240.754 394.14 242.801C396.185 249.912 393.709 302.067 393.115 313.303L380.066 320.688C380.066 320.688 359.761 323.129 373.286 327.82C374.505 328.23 375.751 328.556 377.015 328.796C375.232 329.928 375.386 331.407 380.64 333.223C394.175 337.899 425.636 333.018 425.636 333.018C425.636 333.018 424.948 327.522 423.829 322.953L424.175 322.983C424.175 322.983 420.946 311.087 425.854 305.069C430.762 299.051 425.027 253.329 425.027 253.329C425.027 253.329 433.654 249.81 459.44 249.581C480.24 254.842 490.377 236.006 490.233 226.268C490.197 226.059 490.174 225.847 490.164 225.634Z" fill="url(#paint0_linear)"/>
<path d="M413.296 196.035L411.092 204.821C411.092 204.821 409.111 204.382 406.14 203.63C396.077 201.062 374.851 194.898 383.359 190.373C390.693 186.468 401.494 190.265 407.907 193.228C410.255 194.317 412.018 195.293 412.805 195.752C413.137 195.937 413.296 196.035 413.296 196.035Z" fill="#F8B9BF"/>
<path opacity="0.1" d="M412.676 198.514L411.091 204.86C411.091 204.86 409.111 204.421 406.139 203.669L407.927 193.292C410.274 194.38 412.037 195.356 412.825 195.815L412.676 198.514Z" fill="black"/>
<path d="M412.681 205.46L406.531 203.962L408.442 192.852L413.36 194.048L412.681 205.46Z" fill="#D9DFE8"/>
<path opacity="0.1" d="M412.681 205.46L410.027 204.816L411.027 193.482L413.36 194.048L412.681 205.46Z" fill="black"/>
<path d="M472.029 159.446C472.029 159.446 460.218 152.72 454.969 172.015C449.719 191.31 449.224 200.198 449.224 200.198L411.924 192.848L410.74 206.275C410.74 206.275 450.62 218.966 455.637 218.044C460.654 217.121 476.932 190.221 476.932 190.221C476.932 190.221 491.729 169.374 472.029 159.446Z" fill="#36357E"/>
<g opacity="0.1">
<path opacity="0.1" d="M413.295 196.035L411.092 204.821C411.092 204.821 409.111 204.382 406.139 203.63C396.076 201.062 374.851 194.898 383.359 190.373C390.693 186.468 401.494 190.265 407.907 193.228C410.255 194.317 412.018 195.293 412.805 195.752C413.137 195.937 413.295 196.035 413.295 196.035Z" fill="black"/>
<path opacity="0.1" d="M412.676 198.514L411.092 204.86C411.092 204.86 409.111 204.421 406.139 203.669L407.927 193.292C410.274 194.38 412.037 195.356 412.825 195.815L412.676 198.514Z" fill="black"/>
<path opacity="0.1" d="M412.681 205.46L406.531 203.962L408.442 192.852L413.36 194.048L412.681 205.46Z" fill="black"/>
<path opacity="0.1" d="M412.681 205.46L410.027 204.816L411.027 193.482L413.36 194.048L412.681 205.46Z" fill="black"/>
<path opacity="0.1" d="M472.029 159.934C472.029 159.934 460.218 153.208 454.969 172.503C449.719 191.798 449.224 200.687 449.224 200.687L411.924 193.336L410.74 206.764C410.74 206.764 450.621 219.454 455.637 218.532C460.654 217.609 476.932 190.71 476.932 190.71C476.932 190.71 491.729 169.862 472.029 159.934Z" fill="black"/>
</g>
<path d="M396.903 308.974L381.675 317.599C381.675 317.599 361.945 319.981 375.089 324.52C388.232 329.06 418.787 324.32 418.787 324.32C418.787 324.32 417.089 310.79 414.722 308.901C412.354 307.012 396.903 308.974 396.903 308.974Z" fill="#68739D"/>
<path d="M456.256 211.967C456.256 211.967 448.679 215.872 435.219 219.245C427.33 221.197 417.455 222.583 410.631 223.374C407.137 223.748 403.835 225.137 401.144 227.364C398.453 229.592 396.494 232.557 395.517 235.884C394.893 237.847 394.833 239.942 395.343 241.937C397.587 249.664 394.239 312.474 394.239 312.474L417.366 314.582C417.366 314.582 414.211 303.009 419 297.176C423.789 291.343 418.198 246.945 418.198 246.945C418.198 246.945 426.577 243.528 451.616 243.303C474.812 249.161 484.37 224.135 480.79 217.121C477.209 210.107 456.256 211.967 456.256 211.967Z" fill="#6394E2"/>
<g opacity="0.1">
<path opacity="0.1" d="M396.903 308.974L381.675 317.599C381.675 317.599 361.946 319.981 375.089 324.52C388.232 329.06 418.787 324.32 418.787 324.32C418.787 324.32 417.089 310.79 414.722 308.901C412.354 307.012 396.903 308.974 396.903 308.974Z" fill="black"/>
<path opacity="0.1" d="M456.256 211.967C456.256 211.967 448.679 215.872 435.219 219.245C427.33 221.197 417.455 222.583 410.631 223.374C407.137 223.748 403.835 225.137 401.144 227.364C398.453 229.592 396.494 232.557 395.517 235.884C394.893 237.847 394.833 239.942 395.343 241.937C397.587 249.664 394.239 312.474 394.239 312.474L417.366 314.582C417.366 314.582 414.211 303.009 419 297.176C423.789 291.343 418.198 246.945 418.198 246.945C418.198 246.945 426.577 243.528 451.616 243.303C474.812 249.161 484.37 224.135 480.79 217.121C477.209 210.107 456.256 211.967 456.256 211.967Z" fill="black"/>
</g>
<path d="M404.044 314.201L388.816 322.846C388.816 322.846 369.096 325.208 382.23 329.767C395.363 334.326 425.928 329.567 425.928 329.567C425.928 329.567 424.23 316.037 421.863 314.148C419.495 312.259 404.044 314.201 404.044 314.201Z" fill="#68739D"/>
<path d="M458.732 248.551C433.694 248.775 425.314 252.192 425.314 252.192C425.314 252.192 430.906 296.61 426.117 302.423C421.328 308.237 424.483 319.829 424.483 319.829L401.355 317.721C401.355 317.721 401.395 316.979 401.459 315.651C402.014 304.737 404.456 254.071 402.45 247.184C401.945 245.195 402.005 243.108 402.623 241.151C403.597 237.82 405.553 234.849 408.243 232.617C410.934 230.384 414.237 228.99 417.733 228.611C424.552 227.826 434.427 226.459 442.316 224.482L442.702 224.384C455.924 221.036 463.353 217.204 463.353 217.204C463.353 217.204 484.306 215.349 487.886 222.364C488.393 223.475 488.643 224.684 488.619 225.902C488.792 235.367 478.942 253.661 458.732 248.551Z" fill="#6394E2"/>
<path d="M423.854 206.983L423.007 216.013C423.007 216.013 420.971 215.872 417.946 215.559C407.61 214.5 385.687 211.523 393.437 205.797C400.103 200.877 411.354 203.025 418.144 205.016C420.62 205.748 422.521 206.48 423.368 206.793C423.68 206.91 423.854 206.983 423.854 206.983Z" fill="#F8B9BF"/>
<path d="M485.365 147.946C485.365 147.946 482.265 150.338 478.477 152.964C474.322 153.891 469.498 154.658 466.022 155.156C467.265 151.251 466.517 146.858 465.116 143.007C463.591 138.983 461.498 135.19 458.901 131.741L479.878 125.293C478.234 129.398 478.977 134.079 480.374 138.15C481.6 141.615 483.278 144.908 485.365 147.946Z" fill="#F8B9BF"/>
<path opacity="0.1" d="M423.616 209.526L423.007 216.013C423.007 216.013 420.971 215.872 417.946 215.559L418.144 205.011C420.62 205.743 422.521 206.451 423.368 206.788L423.616 209.526Z" fill="black"/>
<path d="M424.671 216.394L418.362 215.818L418.57 204.552L423.616 205.011L424.671 216.394Z" fill="#D9DFE8"/>
<path opacity="0.1" d="M485.366 147.946C485.366 147.946 482.265 150.338 478.477 152.964C474.322 153.891 469.498 154.658 466.022 155.156C467.265 151.251 466.517 146.858 465.116 143.007C470.236 141.542 477.561 139.648 480.359 138.125C481.587 141.6 483.27 144.901 485.366 147.946Z" fill="black"/>
<path d="M481.176 138.37C481.176 138.37 484.682 146.213 486.891 149.757C489.1 153.301 461.228 156.591 461.228 156.591C461.228 156.591 458.336 146.716 459.718 145.584C461.099 144.451 478.843 140.664 481.176 138.37Z" fill="#D9DFE8"/>
<path opacity="0.1" d="M488.659 225.907C487.49 227.944 486.034 229.808 484.335 231.442C472.024 242.972 451.844 230.954 442.736 224.384C455.959 221.036 463.387 217.204 463.387 217.204C463.387 217.204 484.34 215.349 487.921 222.364C488.426 223.478 488.678 224.687 488.659 225.907Z" fill="black"/>
<path d="M484.4 230.617C470.405 243.718 446.267 226.371 439.76 221.26C438.705 220.431 438.116 219.918 438.116 219.918C440.686 217.546 442.944 212.518 444.732 206.368C446.399 200.482 447.602 194.479 448.332 188.411C449.579 178.154 453.228 168.324 458.99 159.695C459.747 158.572 460.475 157.523 461.233 156.605C466.507 149.987 475.421 145.779 475.421 145.779C494.161 140.381 496.681 167.778 496.181 168.569C495.681 169.36 500.678 215.384 484.4 230.617Z" fill="#36357E"/>
<path opacity="0.1" d="M486.212 193.165C486.212 193.165 474.163 222.159 469.345 223.813C466.586 224.755 451.854 222.969 439.76 221.265C438.705 220.435 438.116 219.923 438.116 219.923C440.686 217.551 442.944 212.523 444.732 206.373L460.307 207.105C460.307 207.105 459.44 198.251 461.728 178.395C464.016 158.538 476.699 163.458 476.699 163.458C497.706 170.385 486.212 193.165 486.212 193.165Z" fill="black"/>
<path opacity="0.1" d="M424.671 216.394L421.947 216.145L421.224 204.796L423.616 205.011L424.671 216.394Z" fill="black"/>
<path d="M476.412 162.18C476.412 162.18 463.729 157.264 461.441 177.116C459.153 196.967 460.02 205.826 460.02 205.826L422.006 204.03L422.863 217.482C422.863 217.482 464.219 224.174 469.038 222.525C473.856 220.875 485.905 191.876 485.905 191.876C485.905 191.876 497.36 169.101 476.412 162.18Z" fill="#36357E"/>
<path opacity="0.1" d="M477.249 132.766C476.694 129.798 479.839 129.837 480.968 127.045L460.01 133.493C461.467 135.424 462.765 137.466 463.892 139.6C464.98 139.918 466.096 140.13 467.225 140.234C472.222 140.703 473.782 135.856 477.249 132.766Z" fill="black"/>
<path d="M484.931 123.03C485.811 113.645 478.806 105.335 469.284 104.468C459.763 103.6 451.332 110.505 450.452 119.889C449.572 129.274 456.577 137.584 466.098 138.451C475.619 139.319 484.051 132.414 484.931 123.03Z" fill="#F8B9BF"/>
<path opacity="0.1" d="M450.611 106.047C450.824 107.824 452.725 108.907 454.493 109.307C456.261 109.708 458.178 109.727 459.728 110.66C462.204 112.163 462.872 115.502 462.56 118.372C462.387 119.992 462.14 121.979 463.487 122.921C463.91 123.175 464.382 123.341 464.873 123.409C466.278 123.689 467.721 123.739 469.142 123.555C469.974 123.448 470.831 123.263 471.618 123.492C472.916 123.863 473.683 125.21 473.936 126.513C474.188 127.817 474.05 129.174 474.253 130.487C474.537 132.133 475.322 133.656 476.503 134.854C477.684 136.051 479.207 136.867 480.869 137.193C481.647 137.378 482.464 137.306 483.196 136.988C484.137 136.5 484.618 135.46 485.024 134.489L487.995 127.48C489.332 124.322 490.679 121.134 491.392 117.786C492.452 112.743 492.042 107.507 490.209 102.684C489.506 100.849 488.535 99.0083 486.886 97.9052C483.583 95.6941 478.962 97.2218 475.209 95.9528C473.965 95.5281 472.846 94.8057 471.608 94.3713C468.929 93.4292 465.903 93.9271 463.323 95.1132C460.743 96.2993 458.658 98.1688 456.39 99.8723C454.404 101.381 450.239 102.991 450.611 106.047Z" fill="black"/>
<path d="M451.066 105.671C451.279 107.448 453.181 108.531 454.949 108.932C456.717 109.332 458.633 109.351 460.183 110.284C462.66 111.787 463.328 115.126 463.016 117.996C462.843 119.616 462.595 121.603 463.942 122.545C464.366 122.799 464.838 122.965 465.329 123.033C466.734 123.313 468.176 123.363 469.598 123.18C470.43 123.072 471.286 122.887 472.074 123.116C473.371 123.487 474.139 124.834 474.391 126.138C474.644 127.441 474.505 128.798 474.708 130.111C474.991 131.755 475.773 133.276 476.951 134.473C478.128 135.67 479.646 136.488 481.305 136.817C482.082 137.002 482.9 136.93 483.632 136.612C484.573 136.124 485.054 135.085 485.46 134.113L488.431 127.104C489.768 123.946 491.115 120.759 491.828 117.41C492.888 112.367 492.477 107.131 490.645 102.308C489.942 100.473 488.971 98.6325 487.322 97.5294C484.019 95.3182 479.398 96.846 475.644 95.5769C474.401 95.1523 473.282 94.4299 472.044 93.9955C469.365 93.0534 466.339 93.5513 463.759 94.7374C461.179 95.9235 459.094 97.793 456.826 99.4965C454.865 101.005 450.7 102.601 451.066 105.671Z" fill="#B96B6B"/>
<path opacity="0.1" d="M465.408 173.084C465.408 173.084 458.797 198.397 452.215 200.74C445.634 203.083 448.541 203.747 448.541 203.747" fill="black"/>
<path d="M465.72 265.815H458.534V312.366H465.72V265.815Z" fill="#D6D6E3"/>
<path opacity="0.1" d="M465.72 265.815H458.534V269.266H465.72V265.815Z" fill="black"/>
<path d="M444.158 265.571V266.547C444.158 266.848 444.218 267.146 444.335 267.423C444.451 267.701 444.622 267.953 444.838 268.166C445.054 268.379 445.31 268.547 445.591 268.662C445.873 268.777 446.175 268.837 446.48 268.837H477.769C478.385 268.837 478.975 268.595 479.411 268.166C479.847 267.737 480.091 267.154 480.091 266.547V265.571C480.091 265.27 480.031 264.973 479.914 264.695C479.798 264.417 479.627 264.165 479.411 263.952C479.195 263.74 478.939 263.571 478.657 263.456C478.376 263.341 478.074 263.282 477.769 263.282H446.48C446.175 263.282 445.873 263.341 445.591 263.456C445.31 263.571 445.054 263.74 444.838 263.952C444.622 264.165 444.451 264.417 444.335 264.695C444.218 264.973 444.158 265.27 444.158 265.571Z" fill="#D6D6E3"/>
<path opacity="0.1" d="M444.718 264.117H479.586C479.368 263.856 479.095 263.646 478.785 263.502C478.475 263.357 478.136 263.282 477.794 263.282H446.481C446.143 263.286 445.81 263.363 445.505 263.507C445.201 263.651 444.932 263.859 444.718 264.117Z" fill="black"/>
<path d="M488.926 309.833H435.338C433.833 309.833 432.614 311.035 432.614 312.518V312.713C432.614 314.195 433.833 315.397 435.338 315.397H488.926C490.43 315.397 491.65 314.195 491.65 312.713V312.518C491.65 311.035 490.43 309.833 488.926 309.833Z" fill="#D6D6E3"/>
<path d="M488.312 322.485C490.298 322.485 491.907 320.898 491.907 318.941C491.907 316.984 490.298 315.397 488.312 315.397C486.326 315.397 484.717 316.984 484.717 318.941C484.717 320.898 486.326 322.485 488.312 322.485Z" fill="#535461"/>
<path d="M435.947 322.485C437.933 322.485 439.542 320.898 439.542 318.941C439.542 316.984 437.933 315.397 435.947 315.397C433.961 315.397 432.352 316.984 432.352 318.941C432.352 320.898 433.961 322.485 435.947 322.485Z" fill="#535461"/>
<path d="M462.129 322.485C464.115 322.485 465.725 320.898 465.725 318.941C465.725 316.984 464.115 315.397 462.129 315.397C460.144 315.397 458.534 316.984 458.534 318.941C458.534 320.898 460.144 322.485 462.129 322.485Z" fill="#535461"/>
<path d="M506.754 208.638H458.702C456.378 208.638 454.493 210.495 454.493 212.787V213.089C454.493 215.381 456.378 217.238 458.702 217.238H506.754C509.079 217.238 510.964 215.381 510.964 213.089V212.787C510.964 210.495 509.079 208.638 506.754 208.638Z" fill="#D6D6E3"/>
<path opacity="0.1" d="M465.72 309.833C465.72 309.833 462.897 312.581 458.534 309.833H465.72Z" fill="black"/>
<path opacity="0.1" d="M510.964 213.026V213.704C510.962 214.643 510.584 215.542 509.911 216.205C509.238 216.869 508.325 217.242 507.373 217.243H458.089C457.137 217.242 456.224 216.869 455.551 216.205C454.878 215.542 454.499 214.643 454.498 213.704V213.026H510.964Z" fill="black"/>
<path d="M417.01 220.933H407.298V342.893H417.01V220.933Z" fill="#D6D6E3"/>
<path opacity="0.1" d="M417.01 220.933H407.298V228.841H417.01V220.933Z" fill="black"/>
<path d="M122.548 269.144H115.363V315.695H122.548V269.144Z" fill="#D6D6E3"/>
<path opacity="0.1" d="M122.548 269.144H115.363V272.595H122.548V269.144Z" fill="black"/>
<path d="M136.92 268.905V269.881C136.92 270.488 136.675 271.07 136.24 271.5C135.804 271.929 135.213 272.17 134.597 272.17H103.309C102.693 272.17 102.102 271.929 101.667 271.5C101.231 271.07 100.986 270.488 100.986 269.881V268.905C100.992 268.301 101.239 267.724 101.674 267.299C102.109 266.874 102.696 266.635 103.309 266.635H134.597C135.213 266.635 135.804 266.876 136.24 267.306C136.675 267.735 136.92 268.317 136.92 268.924V268.905Z" fill="#D6D6E3"/>
<path opacity="0.1" d="M136.39 267.445H101.526C101.746 267.189 102.021 266.983 102.331 266.843C102.641 266.703 102.978 266.632 103.319 266.635H134.607C134.946 266.633 135.282 266.705 135.59 266.845C135.898 266.985 136.171 267.19 136.39 267.445Z" fill="black"/>
<path d="M145.75 313.162H92.1615C90.6572 313.162 89.4377 314.364 89.4377 315.846V316.042C89.4377 317.524 90.6572 318.726 92.1615 318.726H145.75C147.254 318.726 148.474 317.524 148.474 316.042V315.846C148.474 314.364 147.254 313.162 145.75 313.162Z" fill="#D6D6E3"/>
<path d="M92.7755 325.814C94.7612 325.814 96.3709 324.227 96.3709 322.27C96.3709 320.313 94.7612 318.726 92.7755 318.726C90.7899 318.726 89.1802 320.313 89.1802 322.27C89.1802 324.227 90.7899 325.814 92.7755 325.814Z" fill="#535461"/>
<path d="M145.136 325.814C147.121 325.814 148.731 324.227 148.731 322.27C148.731 320.313 147.121 318.726 145.136 318.726C143.15 318.726 141.54 320.313 141.54 322.27C141.54 324.227 143.15 325.814 145.136 325.814Z" fill="#535461"/>
<path d="M118.953 325.814C120.939 325.814 122.548 324.227 122.548 322.27C122.548 320.313 120.939 318.726 118.953 318.726C116.967 318.726 115.358 320.313 115.358 322.27C115.358 324.227 116.967 325.814 118.953 325.814Z" fill="#535461"/>
<path opacity="0.1" d="M115.363 313.162C115.363 313.162 118.186 315.91 122.548 313.162H115.363Z" fill="black"/>
<path d="M298.68 173.025C298.68 173.025 290.618 158.582 293.565 146.028C294.832 140.77 294.337 135.249 292.153 130.291C291.104 127.947 289.839 125.702 288.375 123.585" stroke="#535461" stroke-width="1.91364" stroke-miterlimit="10"/>
<path d="M290.162 115.682C290.583 117.576 288.33 123.819 288.33 123.819C288.33 123.819 283.63 119.084 283.205 117.19C282.93 116.3 283.026 115.338 283.471 114.517C283.915 113.696 284.673 113.083 285.577 112.812C286.48 112.542 287.456 112.636 288.289 113.074C289.122 113.513 289.744 114.259 290.019 115.15C290.073 115.324 290.113 115.502 290.138 115.682H290.162Z" fill="#6C63FF"/>
<path d="M298.249 124.898C297.561 126.713 292.227 130.755 292.227 130.755C292.227 130.755 290.89 124.263 291.584 122.457C291.892 121.592 292.532 120.881 293.365 120.475C294.199 120.069 295.161 120 296.045 120.284C296.929 120.568 297.666 121.181 298.097 121.993C298.529 122.805 298.621 123.751 298.353 124.629C298.326 124.72 298.293 124.81 298.254 124.898H298.249Z" fill="#6C63FF"/>
<path d="M301.993 142.87C300.468 144.095 293.797 144.92 293.797 144.92C293.797 144.92 295.971 138.653 297.497 137.427C298.224 136.833 299.16 136.548 300.101 136.635C301.041 136.721 301.908 137.172 302.511 137.889C303.114 138.605 303.403 139.529 303.315 140.455C303.228 141.382 302.77 142.237 302.043 142.831L301.993 142.87Z" fill="#6C63FF"/>
<path d="M301.721 157.093C300.428 158.558 293.995 160.481 293.995 160.481C293.995 160.481 295.06 153.94 296.353 152.481C296.649 152.124 297.014 151.829 297.427 151.612C297.839 151.394 298.291 151.259 298.756 151.214C299.221 151.168 299.691 151.214 300.139 151.347C300.586 151.481 301.003 151.7 301.364 151.993C301.726 152.285 302.026 152.645 302.246 153.051C302.467 153.457 302.604 153.903 302.65 154.361C302.696 154.82 302.65 155.283 302.514 155.724C302.379 156.165 302.156 156.576 301.86 156.932L301.716 157.093H301.721Z" fill="#6C63FF"/>
<path d="M285.007 132.693C286.681 133.713 293.426 133.669 293.426 133.669C293.426 133.669 290.455 127.729 288.781 126.709C287.993 126.244 287.054 126.096 286.159 126.298C285.264 126.499 284.482 127.034 283.977 127.79C283.472 128.545 283.283 129.464 283.449 130.354C283.615 131.244 284.124 132.037 284.869 132.566L285.032 132.664L285.007 132.693Z" fill="#6C63FF"/>
<path d="M284.908 149.362C286.815 149.85 293.218 147.839 293.218 147.839C293.218 147.839 288.578 143.016 286.671 142.528C285.752 142.298 284.777 142.437 283.962 142.915C283.146 143.392 282.557 144.17 282.323 145.076C282.089 145.982 282.23 146.943 282.715 147.747C283.2 148.55 283.989 149.131 284.908 149.362Z" fill="#6C63FF"/>
<path d="M287.052 165.523C288.845 166.314 295.506 165.406 295.506 165.406C295.506 165.406 291.752 159.91 289.959 159.119C289.533 158.931 289.072 158.828 288.605 158.815C288.137 158.802 287.672 158.88 287.235 159.045C286.798 159.209 286.398 159.457 286.059 159.774C285.719 160.09 285.446 160.47 285.255 160.891C285.064 161.312 284.959 161.766 284.946 162.226C284.933 162.687 285.012 163.146 285.179 163.576C285.346 164.007 285.598 164.401 285.919 164.736C286.24 165.071 286.626 165.34 287.052 165.528V165.523Z" fill="#6C63FF"/>
<path d="M290.162 115.682C290.583 117.576 288.33 123.819 288.33 123.819C288.33 123.819 283.63 119.084 283.205 117.19C282.93 116.3 283.026 115.338 283.471 114.517C283.915 113.696 284.673 113.083 285.577 112.812C286.48 112.542 287.456 112.636 288.289 113.074C289.122 113.513 289.744 114.259 290.019 115.15C290.073 115.324 290.113 115.502 290.138 115.682H290.162Z" fill="#FE4400"/>
<path d="M298.249 124.898C297.561 126.713 292.227 130.755 292.227 130.755C292.227 130.755 290.89 124.263 291.584 122.457C291.892 121.592 292.532 120.881 293.365 120.475C294.199 120.069 295.161 120 296.045 120.284C296.929 120.568 297.666 121.181 298.097 121.993C298.529 122.805 298.621 123.751 298.353 124.629C298.326 124.72 298.293 124.81 298.254 124.898H298.249Z" fill="#FE4400"/>
<path d="M301.993 142.87C300.468 144.095 293.797 144.92 293.797 144.92C293.797 144.92 295.971 138.653 297.497 137.427C298.224 136.833 299.16 136.548 300.101 136.635C301.041 136.721 301.908 137.172 302.511 137.889C303.114 138.605 303.403 139.529 303.315 140.455C303.228 141.382 302.77 142.237 302.043 142.831L301.993 142.87Z" fill="#FE4400"/>
<path d="M301.721 157.093C300.428 158.558 293.995 160.481 293.995 160.481C293.995 160.481 295.06 153.94 296.353 152.481C296.649 152.124 297.014 151.829 297.427 151.612C297.839 151.394 298.291 151.259 298.756 151.214C299.221 151.168 299.691 151.214 300.139 151.347C300.586 151.481 301.003 151.7 301.364 151.993C301.726 152.285 302.026 152.645 302.246 153.051C302.467 153.457 302.604 153.903 302.65 154.361C302.696 154.82 302.65 155.283 302.514 155.724C302.379 156.165 302.156 156.576 301.86 156.932L301.716 157.093H301.721Z" fill="#FE4400"/>
<path d="M285.007 132.693C286.681 133.713 293.426 133.669 293.426 133.669C293.426 133.669 290.455 127.729 288.781 126.709C287.993 126.244 287.054 126.096 286.159 126.298C285.264 126.499 284.482 127.034 283.977 127.79C283.472 128.545 283.283 129.464 283.449 130.354C283.615 131.244 284.124 132.037 284.869 132.566L285.032 132.664L285.007 132.693Z" fill="#FE4400"/>
<path d="M284.908 149.362C286.815 149.85 293.218 147.839 293.218 147.839C293.218 147.839 288.578 143.016 286.671 142.528C285.752 142.298 284.777 142.437 283.962 142.915C283.146 143.392 282.557 144.17 282.323 145.076C282.089 145.982 282.23 146.943 282.715 147.747C283.2 148.55 283.989 149.131 284.908 149.362Z" fill="#FE4400"/>
<path d="M287.052 165.523C288.845 166.314 295.506 165.406 295.506 165.406C295.506 165.406 291.752 159.91 289.959 159.119C289.533 158.931 289.072 158.828 288.605 158.815C288.137 158.802 287.672 158.88 287.235 159.045C286.798 159.209 286.398 159.457 286.059 159.774C285.719 160.09 285.446 160.47 285.255 160.891C285.064 161.312 284.959 161.766 284.946 162.226C284.933 162.687 285.012 163.146 285.179 163.576C285.346 164.007 285.598 164.401 285.919 164.736C286.24 165.071 286.626 165.34 287.052 165.528V165.523Z" fill="#FE4400"/>
<path d="M295.402 213.085C293.151 213.085 290.992 212.203 289.4 210.634C287.808 209.065 286.914 206.937 286.914 204.718C286.914 204.543 286.914 204.367 286.914 204.191L289.286 167.144H301.488L303.861 204.191C304.003 206.404 303.249 208.582 301.763 210.247C300.277 211.911 298.182 212.927 295.937 213.07C295.749 213.08 295.571 213.085 295.402 213.085Z" fill="#FE4400"/>
<path opacity="0.1" d="M48.339 30.956H41.4058V59.2664H48.339V30.956Z" fill="#6C63FF"/>
<path opacity="0.1" d="M57.253 30.956H50.3199V59.2664H57.253V30.956Z" fill="#6C63FF"/>
<path opacity="0.1" d="M66.1671 30.956H59.2339V59.2664H66.1671V30.956Z" fill="#6C63FF"/>
<path opacity="0.1" d="M75.0811 30.956H68.1479V59.2664H75.0811V30.956Z" fill="#6C63FF"/>
<path opacity="0.1" d="M92.9094 30.956H85.9762V59.2664H92.9094V30.956Z" fill="#6C63FF"/>
<path opacity="0.1" d="M101.823 30.956H94.8902V59.2664H101.823V30.956Z" fill="#6C63FF"/>
<path opacity="0.1" d="M48.339 36.3252H41.4058V37.7895H48.339V36.3252Z" fill="#6C63FF"/>
<path opacity="0.1" d="M48.339 53.8972H41.4058V55.3615H48.339V53.8972Z" fill="#6C63FF"/>
<path opacity="0.1" d="M57.253 36.3252H50.3199V37.7895H57.253V36.3252Z" fill="#6C63FF"/>
<path opacity="0.1" d="M57.253 53.8972H50.3199V55.3615H57.253V53.8972Z" fill="#6C63FF"/>
<path opacity="0.1" d="M66.1671 36.3252H59.2339V37.7895H66.1671V36.3252Z" fill="#6C63FF"/>
<path opacity="0.1" d="M66.1671 53.8972H59.2339V55.3615H66.1671V53.8972Z" fill="#6C63FF"/>
<path opacity="0.1" d="M75.0811 36.3252H68.1479V37.7895H75.0811V36.3252Z" fill="#6C63FF"/>
<path opacity="0.1" d="M75.0811 53.8972H68.1479V55.3615H75.0811V53.8972Z" fill="#6C63FF"/>
<path opacity="0.1" d="M83.9952 36.3252H77.062V37.7895H83.9952V36.3252Z" fill="#6C63FF"/>
<path opacity="0.1" d="M83.9952 53.8972H77.062V55.3615H83.9952V53.8972Z" fill="#6C63FF"/>
<path opacity="0.1" d="M92.9094 36.3252H85.9762V37.7895H92.9094V36.3252Z" fill="#6C63FF"/>
<path opacity="0.1" d="M92.9094 53.8972H85.9762V55.3615H92.9094V53.8972Z" fill="#6C63FF"/>
<path opacity="0.1" d="M101.823 36.3252H94.8902V37.7895H101.823V36.3252Z" fill="#6C63FF"/>
<path opacity="0.1" d="M101.823 53.8972H94.8902V55.3615H101.823V53.8972Z" fill="#6C63FF"/>
<path opacity="0.1" d="M83.9952 30.956H77.062V59.2664H83.9952V30.956Z" fill="#6C63FF"/>
<path opacity="0.1" d="M108.627 30.9126L102.318 33.7827L114.381 59.5451L120.69 56.675L108.627 30.9126Z" fill="#6C63FF"/>
<path opacity="0.1" d="M110.91 35.8044L104.601 38.6745L105.225 40.007L111.534 37.137L110.91 35.8044Z" fill="#6C63FF"/>
<path opacity="0.1" d="M118.411 51.7922L112.102 54.6623L112.726 55.9948L119.035 53.1247L118.411 51.7922Z" fill="#6C63FF"/>
<path d="M192.717 322.87L180.133 314.958C180.069 303.814 179.891 252.08 182.243 245.158C182.85 243.155 182.884 241.025 182.342 239.003C180.708 231.97 174.745 226.717 167.52 225.561C160.706 224.467 150.9 222.676 143.006 220.362C150.043 219.645 155.318 219.025 155.318 219.025L155.456 217.741L159.988 217.526V217.336L160.418 217.312C171.001 216.692 193.475 214.627 185.838 208.448C183.219 206.329 179.801 205.328 176.196 204.992C187.22 202.512 204.449 197.709 196.768 193.194C189.468 188.908 178.291 192.276 171.62 195.015L171.209 195.186L171.135 194.595L168.471 195.122L167.624 195.288L167.584 194.429L130.2 200.125C129.907 195.903 129.398 191.698 128.674 187.527C129.511 182.031 133.404 174.016 132.032 169.716C130.437 164.723 123.891 163.087 121.137 158.577C120.414 157.401 119.696 156.298 118.993 155.331C117.452 153.271 115.683 151.387 113.719 149.713C113.838 146.813 114.496 143.959 115.66 141.293C116.407 139.51 117.28 137.781 118.275 136.119C122.632 135.054 126.413 132.39 128.846 128.671C131.279 124.952 132.182 120.459 131.368 116.107C133.736 117.083 136.613 117.21 138.094 115.257L137.39 114.989C137.462 114.917 137.528 114.84 137.588 114.76C136.147 114.218 134.617 113.603 133.488 112.617C133.201 112.301 132.959 111.948 132.77 111.567C132.087 110.201 132.166 108.561 131.512 107.174C131.204 106.543 130.768 105.982 130.229 105.525C129.082 104.37 127.631 103.552 126.04 103.162C124.252 102.65 122.37 102.391 120.657 101.698C118.321 99.0257 115.238 97.0912 111.794 96.1363C108.349 95.1813 104.695 95.2482 101.288 96.3286L100.669 96.5385C101.099 94.4955 100.698 92.3678 99.5527 90.6133C98.407 88.8588 96.6084 87.6177 94.5437 87.1571C92.4791 86.6965 90.3135 87.0532 88.5129 88.1504C86.7124 89.2477 85.4209 90.9977 84.9163 93.0241C85.0733 91.2451 85.834 89.5703 87.0755 88.2699C86.9467 88.3773 86.813 88.4798 86.6892 88.592C85.9159 89.3086 85.2934 90.1684 84.8572 91.1221C84.421 92.0758 84.1798 93.1049 84.1471 94.1506C84.1144 95.1963 84.2911 96.238 84.6669 97.2164C85.0428 98.1948 85.6105 99.0906 86.3376 99.8527L86.4812 99.9894C87.0535 100.678 87.738 101.269 88.5067 101.737C87.0952 101.24 85.8516 100.366 84.915 99.2128C83.9783 98.0595 83.3855 96.6722 83.2028 95.2059V95.694C83.2641 96.7386 83.5336 97.761 83.9959 98.7029C84.4581 99.6448 85.1041 100.488 85.897 101.183C86.6898 101.879 87.6139 102.414 88.6166 102.758C89.6192 103.102 90.6807 103.247 91.7405 103.187H91.795H92.0178L91.899 103.348C89.5959 106.686 88.5043 110.694 88.8009 114.72C89.0975 118.747 90.765 122.557 93.5332 125.532C93.8614 126.275 94.2986 126.965 94.8307 127.582C95.0178 127.793 95.218 127.992 95.4299 128.178C96.7854 129.589 98.6406 130.432 100.61 130.53C100.942 130.916 101.293 131.292 101.665 131.648C101.339 133.018 100.912 134.362 100.387 135.67C99.3328 138.276 98.019 140.773 96.465 143.124C85.7681 146.121 84.8272 164.025 85.2134 164.703C85.674 165.513 83.6188 193.628 91.5424 227.591C91.2156 237.3 96.9602 253.354 117.354 249.122C142.833 250.435 151.197 254.305 151.197 254.305C151.197 254.305 148.776 298.025 152.232 304.39C154.396 308.378 152.861 314.236 151.242 318.37C150.642 319.393 150.163 320.48 149.816 321.611C149.32 322.641 148.959 323.266 148.959 323.266H149.306C147.998 327.742 147.072 333.145 147.072 333.145C147.072 333.145 177.989 339.329 191.588 335.283C196.867 333.711 197.085 332.257 195.371 331.056C196.634 330.873 197.881 330.604 199.105 330.251C212.714 326.185 192.717 322.87 192.717 322.87Z" fill="url(#paint1_linear)"/>
<path d="M125.446 115.321C125.446 118.796 124.4 122.194 122.441 125.083C120.482 127.973 117.698 130.225 114.44 131.555C111.182 132.885 107.598 133.233 104.139 132.555C100.681 131.877 97.5044 130.204 95.0111 127.746C92.5177 125.289 90.8198 122.158 90.1319 118.749C89.444 115.34 89.797 111.807 91.1464 108.596C92.4958 105.386 94.7808 102.641 97.7127 100.71C100.644 98.7795 104.091 97.749 107.617 97.749C112.346 97.749 116.88 99.6003 120.224 102.896C123.567 106.191 125.446 110.661 125.446 115.321Z" fill="#FA595F"/>
<path d="M165.603 197.875L167.391 206.768C167.391 206.768 169.402 206.412 172.378 205.792C182.545 203.669 204.028 198.427 195.708 193.536C188.552 189.333 177.593 192.638 171.056 195.322C168.659 196.298 166.856 197.206 166.049 197.631C165.767 197.782 165.603 197.875 165.603 197.875Z" fill="#F8B9BF"/>
<path opacity="0.1" d="M166.113 200.384L167.391 206.768C167.391 206.768 169.402 206.412 172.378 205.792L171.056 195.322C168.659 196.298 166.856 197.206 166.049 197.631L166.113 200.384Z" fill="black"/>
<path d="M165.801 207.32L172.012 206.095L170.605 194.912L165.633 195.893L165.801 207.32Z" fill="#D9DFE8"/>
<path opacity="0.1" d="M165.801 207.32L168.481 206.788L167.99 195.43L165.633 195.893L165.801 207.32Z" fill="black"/>
<path d="M108.563 158.763C108.563 158.763 120.652 152.554 125.044 172.064C129.437 191.574 129.501 200.467 129.501 200.467L167.099 194.756L167.683 208.223C167.683 208.223 127.278 219.162 122.326 218.014C117.373 216.867 102.279 189.289 102.279 189.289C102.279 189.289 88.4423 167.837 108.563 158.763Z" fill="#36357E"/>
<g opacity="0.1">
<path opacity="0.1" d="M165.603 197.875L167.391 206.768C167.391 206.768 169.402 206.412 172.378 205.792C182.545 203.669 204.028 198.427 195.708 193.536C188.552 189.333 177.593 192.638 171.056 195.322C168.659 196.298 166.856 197.206 166.049 197.631C165.767 197.782 165.603 197.875 165.603 197.875Z" fill="black"/>
<path opacity="0.1" d="M166.113 200.384L167.391 206.768C167.391 206.768 169.402 206.412 172.378 205.792L171.056 195.322C168.659 196.298 166.856 197.206 166.049 197.631L166.113 200.384Z" fill="black"/>
<path opacity="0.1" d="M165.801 207.32L172.012 206.095L170.605 194.912L165.633 195.893L165.801 207.32Z" fill="black"/>
<path opacity="0.1" d="M165.801 207.32L168.481 206.788L167.99 195.43L165.633 195.893L165.801 207.32Z" fill="black"/>
<path opacity="0.1" d="M109.554 159.739C109.554 159.739 121.642 153.53 126.035 173.04C130.428 192.55 130.492 201.443 130.492 201.443L168.089 195.732L168.674 209.199C168.674 209.199 128.268 220.138 123.316 218.991C118.364 217.844 103.269 190.265 103.269 190.265C103.269 190.265 89.4328 168.813 109.554 159.739Z" fill="black"/>
</g>
<path d="M176.949 311.414L191.776 320.688C191.776 320.688 211.382 323.925 198.046 327.893C184.709 331.861 154.401 325.794 154.401 325.794C154.401 325.794 156.704 312.352 159.156 310.57C161.607 308.788 176.949 311.414 176.949 311.414Z" fill="#F37291"/>
<path d="M121.979 211.918C121.979 211.918 129.373 216.15 142.67 220.104C150.464 222.422 160.27 224.213 167.045 225.302C170.52 225.831 173.757 227.366 176.346 229.713C178.934 232.059 180.755 235.111 181.579 238.481C182.111 240.462 182.078 242.55 181.485 244.514C178.9 252.138 179.425 315.031 179.425 315.031L156.229 316.13C156.229 316.13 159.898 304.703 155.377 298.67C150.856 292.637 158.428 248.526 158.428 248.526C158.428 248.526 150.212 244.748 125.203 243.435C101.764 248.316 93.3401 222.861 97.2326 216.008C101.125 209.155 121.979 211.918 121.979 211.918Z" fill="#96A2D0"/>
<g opacity="0.1">
<path opacity="0.1" d="M176.949 311.414L191.776 320.688C191.776 320.688 211.382 323.925 198.046 327.893C184.709 331.861 154.401 325.794 154.401 325.794C154.401 325.794 156.704 312.352 159.156 310.57C161.607 308.788 176.949 311.414 176.949 311.414Z" fill="black"/>
<path opacity="0.1" d="M121.979 211.918C121.979 211.918 129.373 216.15 142.67 220.104C150.464 222.422 160.27 224.213 167.045 225.302C170.52 225.831 173.757 227.366 176.346 229.713C178.934 232.059 180.755 235.111 181.579 238.481C182.111 240.462 182.078 242.55 181.485 244.514C178.9 252.138 179.425 315.031 179.425 315.031L156.229 316.13C156.229 316.13 159.898 304.703 155.377 298.67C150.856 292.637 158.428 248.526 158.428 248.526C158.428 248.526 150.212 244.748 125.203 243.435C101.764 248.316 93.3401 222.861 97.2326 216.008C101.125 209.155 121.979 211.918 121.979 211.918Z" fill="black"/>
</g>
<path d="M169.56 316.335L184.387 325.609C184.387 325.609 203.993 328.845 190.657 332.813C177.32 336.781 147.013 330.714 147.013 330.714C147.013 330.714 149.315 317.272 151.767 315.49C154.218 313.708 169.56 316.335 169.56 316.335Z" fill="#F37291"/>
<path d="M117.839 248.365C142.848 249.678 151.064 253.456 151.064 253.456C151.064 253.456 148.691 296.322 152.054 302.56C155.644 309.179 148.845 321.059 148.845 321.059L172.041 319.961V317.892C171.972 306.968 171.804 256.243 174.106 249.444C174.699 247.48 174.732 245.392 174.2 243.411C173.375 240.042 171.553 236.99 168.965 234.644C166.377 232.298 163.141 230.762 159.666 230.232C152.886 229.148 143.085 227.357 135.291 225.038L134.909 224.921C121.85 221.016 114.605 216.853 114.605 216.853C114.605 216.853 99.159 215.798 95.2913 222.651C94.796 223.54 92.6616 225.287 92.5725 226.698C91.9931 236.138 97.4455 252.597 117.839 248.365Z" fill="#96A2D0"/>
<path d="M154.57 208.355L155.011 217.414C155.011 217.414 157.051 217.36 160.092 217.18C170.467 216.57 192.504 214.549 185.016 208.491C178.578 203.283 167.238 204.943 160.369 206.637C157.848 207.261 155.912 207.886 155.07 208.184L154.57 208.355Z" fill="#F8B9BF"/>
<path d="M95.7321 146.702C95.7321 146.702 98.7034 149.225 102.388 152.017C106.498 153.12 111.302 154.101 114.734 154.751C113.669 150.772 114.615 146.453 116.185 142.65C117.888 138.695 120.149 134.996 122.9 131.663L102.249 124.307C103.71 128.48 102.744 133.142 101.175 137.13C99.7898 140.54 97.9603 143.757 95.7321 146.702Z" fill="#F8B9BF"/>
<path opacity="0.1" d="M154.694 210.908L155.01 217.414C155.01 217.414 157.051 217.36 160.092 217.18L160.369 206.632C157.848 207.257 155.912 207.881 155.07 208.179L154.694 210.908Z" fill="black"/>
<path d="M153.337 217.722L159.661 217.424L159.958 206.158L154.897 206.397L153.337 217.722Z" fill="#D9DFE8"/>
<path d="M93.0231 229.334C106.394 243.035 131.329 226.752 138.034 221.929C139.124 221.143 139.733 220.66 139.733 220.66C137.257 218.176 133.295 215.877 131.775 209.653C130.325 203.301 129.342 196.854 128.833 190.363C128.422 185.213 133.82 175.407 132.26 170.516C130.7 165.626 124.277 164.005 121.578 159.612C120.87 158.46 120.166 157.377 119.473 156.43C114.491 149.596 105.81 144.993 105.81 144.993C87.3132 138.77 85.8622 164.806 86.3227 165.616C86.7833 166.426 84.6885 195.107 93.0231 229.334Z" fill="#36357E"/>
<path opacity="0.1" d="M92.8844 191.827C92.8844 191.827 103.626 221.319 108.365 223.179C111.079 224.243 125.881 223.096 138.034 221.919C139.124 221.134 139.733 220.65 139.733 220.65C137.257 218.166 135.241 213.046 133.726 206.827L118.131 206.881C118.131 206.881 119.394 198.095 117.997 178.136C116.601 158.177 103.71 162.565 103.71 162.565C82.45 168.584 92.8844 191.827 92.8844 191.827Z" fill="black"/>
<path opacity="0.1" d="M153.337 217.722L156.065 217.595L157.298 206.285L154.897 206.397L153.337 217.722Z" fill="black"/>
<path d="M104.077 161.306C104.077 161.306 116.952 156.947 118.364 176.877C119.775 196.806 118.512 205.621 118.512 205.621L156.556 205.485L155.095 218.888C155.095 218.888 113.496 223.769 108.742 221.919C103.987 220.069 93.2559 190.573 93.2559 190.573C93.2559 190.573 82.8116 167.314 104.077 161.306Z" fill="#36357E"/>
<path opacity="0.1" d="M104.547 131.917C105.235 128.988 102.071 128.895 101.08 126.059L121.741 133.381C120.202 135.24 118.814 137.217 117.591 139.292C116.491 139.562 115.366 139.725 114.234 139.78C109.212 140.024 107.87 135.128 104.547 131.917Z" fill="black"/>
<path d="M114.58 138.091C124.142 138.091 131.893 130.451 131.893 121.027C131.893 111.603 124.142 103.963 114.58 103.963C105.019 103.963 97.2672 111.603 97.2672 121.027C97.2672 130.451 105.019 138.091 114.58 138.091Z" fill="#F8B9BF"/>
<path opacity="0.1" d="M105.637 173.963C105.637 173.963 111.114 199.535 117.581 202.146C124.049 204.757 121.117 205.314 121.117 205.314" fill="black"/>
<path opacity="0.1" d="M128.209 188.411C128.209 188.411 123.633 189.821 118.304 183.08L128.209 188.411Z" fill="black"/>
<path d="M93.7511 105.071C98.1272 105.071 101.675 101.574 101.675 97.2609C101.675 92.9477 98.1272 89.4511 93.7511 89.4511C89.375 89.4511 85.8275 92.9477 85.8275 97.2609C85.8275 101.574 89.375 105.071 93.7511 105.071Z" fill="#FA595F"/>
<path d="M88.1848 101.385C86.8074 99.9378 86.0408 98.0276 86.0408 96.043C86.0408 94.0584 86.8074 92.1483 88.1848 90.7007C88.056 90.8032 87.9273 90.9057 87.8084 91.018C86.277 92.4368 85.3801 94.3971 85.3151 96.4677C85.2501 98.5383 86.0223 100.55 87.4618 102.059C88.9013 103.568 90.8902 104.452 92.991 104.517C95.0918 104.581 97.1323 103.819 98.6638 102.401C98.7876 102.288 98.8965 102.166 99.0055 102.049C97.454 103.315 95.4718 103.95 93.4619 103.827C91.452 103.704 89.5651 102.831 88.1848 101.385Z" fill="#FA595F"/>
<path d="M92.7112 104.334C90.7002 104.453 88.7186 103.813 87.1694 102.543C85.6202 101.274 84.6198 99.4706 84.3716 97.5001V97.9882C84.5029 100.056 85.4621 101.987 87.0382 103.357C88.6142 104.728 90.678 105.425 92.7756 105.295C94.8731 105.166 96.8325 104.22 98.2228 102.667C99.6131 101.113 100.32 99.0793 100.189 97.0119C100.181 96.8483 100.163 96.6853 100.135 96.5238C100.139 98.5125 99.3728 100.428 97.9934 101.879C96.6139 103.33 94.7248 104.208 92.7112 104.334Z" fill="#FA595F"/>
<path opacity="0.1" d="M120.964 104.051C122.811 104.949 124.926 105.198 126.906 105.764C128.887 106.33 130.908 107.365 131.779 109.21C132.418 110.567 132.344 112.173 133.013 113.515C133.973 115.467 136.192 116.366 138.232 117.132C136.479 119.45 132.715 118.821 130.259 117.244C127.803 115.668 125.688 113.339 122.831 112.729C121.421 112.456 119.96 112.618 118.647 113.194C117.335 113.77 116.234 114.731 115.496 115.946C114.714 117.298 114.437 118.874 114.05 120.378C113.06 124.341 111.079 128.285 107.612 130.535C104.146 132.786 98.9807 132.771 96.2619 129.691C94.6771 127.895 94.1473 125.449 93.6768 123.116C93.4091 122.028 93.281 120.911 93.2955 119.792C93.4539 116.99 95.3457 114.603 97.2573 112.524C99.5105 110.084 101.907 107.741 104.304 105.412C106.374 103.401 108.761 99.9943 111.881 99.7552C115.477 99.472 118.017 102.63 120.964 104.051Z" fill="black"/>
<path d="M120.469 103.562C122.316 104.461 124.43 104.709 126.411 105.276C128.392 105.842 130.413 106.877 131.284 108.722C131.923 110.079 131.849 111.685 132.517 113.027C133.478 114.979 135.697 115.877 137.737 116.644C135.984 118.962 132.22 118.333 129.764 116.756C127.308 115.179 125.193 112.851 122.336 112.241C120.926 111.968 119.465 112.13 118.152 112.706C116.839 113.281 115.739 114.242 115.001 115.458C114.219 116.81 113.941 118.386 113.555 119.89C112.565 123.853 110.584 127.797 107.117 130.047C103.651 132.297 98.4855 132.283 95.7667 129.203C94.182 127.407 93.6521 124.961 93.1816 122.628C92.914 121.54 92.7859 120.423 92.8003 119.304C92.9588 116.502 94.8505 114.115 96.7621 112.036C99.0154 109.595 101.412 107.253 103.809 104.924C105.879 102.913 108.266 99.5062 111.386 99.267C114.981 98.9839 117.522 102.142 120.469 103.562Z" fill="#FA595F"/>
<path d="M122.38 211.967H74.3284C72.0036 211.967 70.119 213.824 70.119 216.116V216.418C70.119 218.71 72.0036 220.567 74.3284 220.567H122.38C124.705 220.567 126.59 218.71 126.59 216.418V216.116C126.59 213.824 124.705 211.967 122.38 211.967Z" fill="#D6D6E3"/>
<path opacity="0.1" d="M70.119 216.36V217.038C70.1203 217.976 70.499 218.876 71.1721 219.539C71.8451 220.203 72.7576 220.576 73.7094 220.577H122.999C123.951 220.576 124.864 220.203 125.537 219.539C126.21 218.876 126.588 217.976 126.59 217.038V216.36H70.119Z" fill="black"/>
<path d="M179.277 220.933H169.565V342.878H179.277V220.933Z" fill="#D6D6E3"/>
<path opacity="0.1" d="M179.277 220.933H169.565V228.841H179.277V220.933Z" fill="black"/>
<path d="M421.655 212.191H164.92V228.006H421.655V212.191Z" fill="#D6D6E3"/>
</g>
<defs>
<linearGradient id="paint0_linear" x1="425.598" y1="338.534" x2="447.894" y2="87.1919" gradientUnits="userSpaceOnUse">
<stop stop-color="#808080" stop-opacity="0.25"/>
<stop offset="0.54" stop-color="#808080" stop-opacity="0.12"/>
<stop offset="1" stop-color="#808080" stop-opacity="0.1"/>
</linearGradient>
<linearGradient id="paint1_linear" x1="39814.1" y1="-37500.3" x2="39814.1" y2="-165225" gradientUnits="userSpaceOnUse">
<stop stop-color="#808080" stop-opacity="0.25"/>
<stop offset="0.54" stop-color="#808080" stop-opacity="0.12"/>
<stop offset="1" stop-color="#808080" stop-opacity="0.1"/>
</linearGradient>
<clipPath id="clip0">
<rect width="554.955" height="421" fill="white"/>
</clipPath>
</defs>
</svg>
